{
.appVersion = "1357";
DisplayStrings = (

glyphs = (
{
color = 6;
glyphname = .notdef;
lastChange = "2021-11-24 17:22:35 +0000";
layers = (
{
layerId = "5E1A2ACF-25BB-4872-A226-5327BC7330DB";
paths = (
{
closed = 1;
nodes = (
"479 0 LINE",
"488 8 LINE",
"488 621 LINE",
"479 630 LINE",
"58 630 LINE",
"50 620 LINE",
"50 9 LINE",
"58 0 LINE"
);
},
{
closed = 1;
nodes = (
"154 150 LINE",
"244 316 LINE",
"154 479 LINE",
"173 514 LINE",
"263 350 LINE",
"354 514 LINE",
"373 479 LINE",
"283 314 LINE",
"373 150 LINE",
"354 116 LINE",
"263 279 LINE",
"173 116 LINE"
);
},
{
closed = 1;
nodes = (
"67 16 LINE",
"67 613 LINE",
"471 613 LINE",
"471 16 LINE"
);
},
{
closed = 1;
nodes = (
"437 49 LINE",
"437 577 LINE",
"102 577 LINE",
"102 49 LINE"
);
}
);
width = 538;
}
);
note = .notdef;
},
{
glyphname = A;
lastChange = "2021-12-01 10:14:40 +0000";
layers = (
{
anchors = (
{
name = bottom;
position = "{164, 0}";
},
{
name = ogonek;
position = "{331, 0}";
},
{
name = top;
position = "{163, 591}";
}
);
background = {
paths = (
{
closed = 1;
nodes = (
"18 0 LINE",
"59 162 LINE",
"267 162 LINE",
"309 0 LINE",
"321 0 LINE",
"170 591 LINE",
"157 591 LINE",
"6 0 LINE"
);
},
{
closed = 1;
nodes = (
"62 173 LINE",
"155 534 LINE",
"163 572 LINE",
"173 532 LINE",
"264 173 LINE"
);
}
);
};
layerId = "5E1A2ACF-25BB-4872-A226-5327BC7330DB";
paths = (
{
closed = 1;
nodes = (
"18 0 LINE",
"59 162 LINE",
"267 162 LINE",
"309 0 LINE",
"321 0 LINE",
"170 591 LINE",
"157 591 LINE",
"6 0 LINE"
);
},
{
closed = 1;
nodes = (
"62 172 LINE",
"155 534 LINE",
"163 572 LINE",
"173 532 LINE",
"264 172 LINE"
);
}
);
width = 327;
}
);
leftKerningGroup = A;
note = A;
rightKerningGroup = A;
unicode = 0041;
},
{
glyphname = AE;
lastChange = "2021-12-01 09:12:38 +0000";
layers = (
{
anchors = (
{
name = bottom;
position = "{284, 0}";
},
{
name = top;
position = "{323, 591}";
}
);
layerId = "5E1A2ACF-25BB-4872-A226-5327BC7330DB";
paths = (
{
closed = 1;
nodes = (
"62 0 LINE",
"103 162 LINE",
"261 162 LINE",
"285 0 LINE",
"437 0 LINE",
"437 11 LINE",
"297 11 LINE",
"253 306 LINE",
"386 306 LINE",
"386 317 LINE",
"252 317 LINE",
"216 580 LINE",
"437 580 LINE",
"437 591 LINE",
"200 591 LINE",
"50 0 LINE"
);
},
{
closed = 1;
nodes = (
"106 173 LINE",
"205 568 LINE",
"260 173 LINE"
);
}
);
width = 567;
}
);
leftKerningGroup = A;
note = AE;
rightKerningGroup = E;
unicode = 00C6;
},
{
glyphname = B;
lastChange = "2021-12-01 09:12:38 +0000";
layers = (
{
background = {
paths = (
{
closed = 1;
nodes = (
"202 0 LINE SMOOTH",
"275 0 OFFCURVE",
"323 16 OFFCURVE",
"323 120 CURVE SMOOTH",
"323 209 LINE SMOOTH",
"323 269 OFFCURVE",
"290 312 OFFCURVE",
"230 312 CURVE",
"286 321 OFFCURVE",
"318 363 OFFCURVE",
"318 419 CURVE SMOOTH",
"318 494 LINE SMOOTH",
"318 566 OFFCURVE",
"270 591 OFFCURVE",
"211 591 CURVE SMOOTH",
"50 591 LINE",
"50 0 LINE"
);
},
{
closed = 1;
nodes = (
"62 306 LINE",
"195 306 LINE SMOOTH",
"259 306 OFFCURVE",
"311 287 OFFCURVE",
"311 214 CURVE SMOOTH",
"311 125 LINE SMOOTH",
"311 26 OFFCURVE",
"269 11 OFFCURVE",
"199 11 CURVE SMOOTH",
"62 11 LINE"
);
},
{
closed = 1;
nodes = (
"62 580 LINE",
"211 580 LINE SMOOTH",
"266 580 OFFCURVE",
"306 553 OFFCURVE",
"306 496 CURVE SMOOTH",
"306 420 LINE SMOOTH",
"306 355 OFFCURVE",
"267 317 OFFCURVE",
"190 317 CURVE SMOOTH",
"62 317 LINE"
);
}
);
};
layerId = "5E1A2ACF-25BB-4872-A226-5327BC7330DB";
paths = (
{
closed = 1;
nodes = (
"202 0 LINE SMOOTH",
"275 0 OFFCURVE",
"323 16 OFFCURVE",
"323 120 CURVE SMOOTH",
"323 209 LINE SMOOTH",
"323 269 OFFCURVE",
"290 312 OFFCURVE",
"230 312 CURVE",
"286 321 OFFCURVE",
"318 363 OFFCURVE",
"318 419 CURVE SMOOTH",
"318 494 LINE SMOOTH",
"318 566 OFFCURVE",
"270 591 OFFCURVE",
"211 591 CURVE SMOOTH",
"50 591 LINE",
"50 0 LINE"
);
},
{
closed = 1;
nodes = (
"62 306 LINE",
"195 306 LINE SMOOTH",
"259 306 OFFCURVE",
"311 287 OFFCURVE",
"311 214 CURVE SMOOTH",
"311 125 LINE SMOOTH",
"311 26 OFFCURVE",
"269 11 OFFCURVE",
"199 11 CURVE SMOOTH",
"62 11 LINE"
);
},
{
closed = 1;
nodes = (
"62 580 LINE",
"211 580 LINE SMOOTH",
"266 580 OFFCURVE",
"306 553 OFFCURVE",
"306 496 CURVE SMOOTH",
"306 420 LINE SMOOTH",
"306 355 OFFCURVE",
"266 316 OFFCURVE",
"190 316 CURVE SMOOTH",
"62 316 LINE"
);
}
);
width = 361;
}
);
leftMetricsKey = H;
note = B;
unicode = 0042;
},
{
glyphname = C;
lastChange = "2021-12-01 10:15:57 +0000";
layers = (
{
anchors = (
{
name = bottom;
position = "{181, -9}";
},
{
name = top;
position = "{181, 591}";
}
);
layerId = "5E1A2ACF-25BB-4872-A226-5327BC7330DB";
paths = (
{
closed = 1;
nodes = (
"259 -12 OFFCURVE",
"317 2 OFFCURVE",
"317 118 CURVE SMOOTH",
"317 189 LINE",
"305 189 LINE",
"305 116 LINE SMOOTH",
"305 12 OFFCURVE",
"250 -3 OFFCURVE",
"180 -3 CURVE SMOOTH",
"111 -3 OFFCURVE",
"56 12 OFFCURVE",
"56 116 CURVE SMOOTH",
"56 467 LINE SMOOTH",
"56 572 OFFCURVE",
"105 589 OFFCURVE",
"180 589 CURVE SMOOTH",
"255 589 OFFCURVE",
"305 574 OFFCURVE",
"305 473 CURVE SMOOTH",
"305 381 LINE",
"317 381 LINE",
"317 469 LINE SMOOTH",
"317 583 OFFCURVE",
"258 599 OFFCURVE",
"181 599 CURVE SMOOTH",
"104 599 OFFCURVE",
"44 585 OFFCURVE",
"44 469 CURVE SMOOTH",
"44 118 LINE SMOOTH",
"44 4 OFFCURVE",
"103 -12 OFFCURVE",
"179 -12 CURVE SMOOTH"
);
}
);
width = 361;
}
);
leftKerningGroup = O;
leftMetricsKey = O;
note = C;
rightKerningGroup = C;
rightMetricsKey = O;
unicode = 0043;
},
{
glyphname = D;
lastChange = "2021-12-01 10:16:30 +0000";
layers = (
{
anchors = (
{
name = bottom;
position = "{158, 0}";
},
{
name = center;
position = "{90, 296}";
},
{
name = top;
position = "{164, 591}";
}
);
layerId = "5E1A2ACF-25BB-4872-A226-5327BC7330DB";
paths = (
{
closed = 1;
nodes = (
"50 0 LINE",
"202 0 LINE SMOOTH",
"278 0 OFFCURVE",
"323 25 OFFCURVE",
"323 130 CURVE SMOOTH",
"323 461 LINE SMOOTH",
"323 566 OFFCURVE",
"273 591 OFFCURVE",
"202 591 CURVE SMOOTH",
"50 591 LINE"
);
},
{
closed = 1;
nodes = (
"62 11 LINE",
"62 582 LINE",
"202 582 LINE SMOOTH",
"271 582 OFFCURVE",
"311 552 OFFCURVE",
"311 461 CURVE SMOOTH",
"311 130 LINE SMOOTH",
"311 34 OFFCURVE",
"270 11 OFFCURVE",
"202 11 CURVE SMOOTH"
);
}
);
width = 367;
}
);
leftKerningGroup = H;
leftMetricsKey = H;
note = D;
rightKerningGroup = O;
rightMetricsKey = O;
unicode = 0044;
},
{
glyphname = E;
lastChange = "2021-12-01 09:12:38 +0000";
layers = (
{
anchors = (
{
name = bottom;
position = "{171, 0}";
},
{
name = ogonek;
position = "{275, 0}";
},
{
name = top;
position = "{171, 591}";
},
{
name = topleft;
position = "{20, 591}";
}
);
background = {
paths = (
{
closed = 1;
nodes = (
"291 0 LINE",
"291 11 LINE",
"62 11 LINE",
"62 306 LINE",
"240 306 LINE",
"240 317 LINE",
"62 317 LINE",
"62 580 LINE",
"291 580 LINE",
"291 591 LINE",
"50 591 LINE",
"50 0 LINE"
);
}
);
};
layerId = "5E1A2ACF-25BB-4872-A226-5327BC7330DB";
paths = (
{
closed = 1;
nodes = (
"291 0 LINE",
"291 11 LINE",
"62 11 LINE",
"62 306 LINE",
"240 306 LINE",
"240 316 LINE",
"62 316 LINE",
"62 580 LINE",
"291 580 LINE",
"291 591 LINE",
"50 591 LINE",
"50 0 LINE"
);
}
);
width = 305;
}
);
leftKerningGroup = H;
leftMetricsKey = H;
note = E;
rightKerningGroup = E;
unicode = 0045;
},
{
glyphname = F;
lastChange = "2021-12-01 09:12:38 +0000";
layers = (
{
background = {
paths = (
{
closed = 1;
nodes = (
"62 0 LINE",
"62 306 LINE",
"240 306 LINE",
"240 317 LINE",
"62 317 LINE",
"62 580 LINE",
"291 580 LINE",
"291 591 LINE",
"50 591 LINE",
"50 0 LINE"
);
}
);
};
layerId = "5E1A2ACF-25BB-4872-A226-5327BC7330DB";
paths = (
{
closed = 1;
nodes = (
"62 0 LINE",
"62 306 LINE",
"240 306 LINE",
"240 316 LINE",
"62 316 LINE",
"62 580 LINE",
"291 580 LINE",
"291 591 LINE",
"50 591 LINE",
"50 0 LINE"
);
}
);
width = 301;
}
);
leftKerningGroup = H;
leftMetricsKey = H;
note = F;
rightKerningGroup = F;
unicode = 0046;
},
{
glyphname = G;
lastChange = "2021-12-01 09:12:38 +0000";
layers = (
{
anchors = (
{
name = bottom;
position = "{180, 0}";
},
{
name = top;
position = "{180, 591}";
}
);
layerId = "5E1A2ACF-25BB-4872-A226-5327BC7330DB";
paths = (
{
closed = 1;
nodes = (
"240 -12 OFFCURVE",
"290 18 OFFCURVE",
"306 69 CURVE",
"310 0 LINE",
"317 0 LINE",
"317 266 LINE",
"198 266 LINE",
"198 257 LINE",
"305 257 LINE",
"305 118 LINE SMOOTH",
"305 42 OFFCURVE",
"248 -3 OFFCURVE",
"180 -3 CURVE SMOOTH",
"111 -3 OFFCURVE",
"56 11 OFFCURVE",
"56 118 CURVE SMOOTH",
"56 468 LINE SMOOTH",
"56 572 OFFCURVE",
"103 589 OFFCURVE",
"180 589 CURVE SMOOTH",
"261 589 OFFCURVE",
"305 572 OFFCURVE",
"305 468 CURVE SMOOTH",
"305 401 LINE",
"317 401 LINE",
"317 469 LINE SMOOTH",
"317 583 OFFCURVE",
"261 599 OFFCURVE",
"182 599 CURVE SMOOTH",
"103 599 OFFCURVE",
"44 585 OFFCURVE",
"44 469 CURVE SMOOTH",
"44 118 LINE SMOOTH",
"44 4 OFFCURVE",
"103 -12 OFFCURVE",
"179 -12 CURVE SMOOTH"
);
}
);
width = 359;
}
);
leftKerningGroup = O;
leftMetricsKey = O;
note = G;
rightKerningGroup = G;
rightMetricsKey = "=O-2";
unicode = 0047;
},
{
glyphname = H;
lastChange = "2021-12-01 09:12:38 +0000";
layers = (
{
anchors = (
{
name = bottom;
position = "{187, 0}";
},
{
name = center;
position = "{187, 296}";
},
{
name = top;
position = "{187, 591}";
},
{
name = topleft;
position = "{20, 591}";
}
);
layerId = "5E1A2ACF-25BB-4872-A226-5327BC7330DB";
paths = (
{
closed = 1;
nodes = (
"62 0 LINE",
"62 306 LINE",
"311 306 LINE",
"311 0 LINE",
"323 0 LINE",
"323 591 LINE",
"311 591 LINE",
"311 317 LINE",
"62 317 LINE",
"62 591 LINE",
"50 591 LINE",
"50 0 LINE"
);
}
);
width = 373;
}
);
leftKerningGroup = H;
note = H;
rightKerningGroup = H;
unicode = 0048;
},
{
glyphname = Hbar;
lastChange = "2021-12-01 10:17:08 +0000";
layers = (
{
layerId = "5E1A2ACF-25BB-4872-A226-5327BC7330DB";
paths = (
{
closed = 1;
nodes = (
"61 0 LINE",
"61 306 LINE",
"310 306 LINE",
"310 0 LINE",
"322 0 LINE",
"322 494 LINE",
"372 494 LINE",
"372 504 LINE",
"322 504 LINE",
"322 591 LINE",
"310 591 LINE",
"310 504 LINE",
"61 504 LINE",
"61 591 LINE",
"49 591 LINE",
"49 504 LINE",
"0 504 LINE",
"0 494 LINE",
"49 494 LINE",
"49 0 LINE"
);
},
{
closed = 1;
nodes = (
"61 494 LINE",
"310 494 LINE",
"310 317 LINE",
"61 317 LINE"
);
}
);
width = 372;
}
);
leftKerningGroup = H;
note = Hbar;
rightKerningGroup = H;
unicode = 0126;
},
{
glyphname = I;
lastChange = "2021-12-01 09:12:38 +0000";
layers = (
{
anchors = (
{
name = bottom;
position = "{56, 0}";
},
{
name = ogonek;
position = "{70, 0}";
},
{
name = top;
position = "{56, 591}";
},
{
name = topleft;
position = "{20, 591}";
}
);
layerId = "5E1A2ACF-25BB-4872-A226-5327BC7330DB";
paths = (
{
closed = 1;
nodes = (
"62 0 LINE",
"62 591 LINE",
"50 591 LINE",
"50 0 LINE"
);
}
);
width = 112;
}
);
leftKerningGroup = H;
leftMetricsKey = H;
note = I;
rightKerningGroup = H;
rightMetricsKey = H;
unicode = 0049;
},
{
glyphname = J;
lastChange = "2021-12-01 09:12:38 +0000";
layers = (
{
anchors = (
{
name = bottom;
position = "{76, 0}";
},
{
name = top;
position = "{96, 591}";
}
);
layerId = "5E1A2ACF-25BB-4872-A226-5327BC7330DB";
paths = (
{
closed = 1;
nodes = (
"-8 -1 OFFCURVE",
"0 0 OFFCURVE",
"7 0 CURVE SMOOTH",
"19 0 LINE SMOOTH",
"96 0 OFFCURVE",
"102 33 OFFCURVE",
"102 117 CURVE SMOOTH",
"102 591 LINE",
"90 591 LINE",
"90 86 LINE SMOOTH",
"90 29 OFFCURVE",
"67 10 OFFCURVE",
"19 10 CURVE SMOOTH",
"-15 10 LINE",
"-15 0 LINE"
);
}
);
width = 152;
}
);
leftKerningGroup = J;
note = J;
rightKerningGroup = J;
rightMetricsKey = H;
unicode = 004A;
},
{
glyphname = K;
lastChange = "2021-12-01 09:12:38 +0000";
layers = (
{
anchors = (
{
name = bottom;
position = "{148, 0}";
},
{
name = top;
position = "{161, 591}";
}
);
layerId = "5E1A2ACF-25BB-4872-A226-5327BC7330DB";
paths = (
{
closed = 1;
nodes = (
"291 0 LINE",
"105 306 LINE",
"286 591 LINE",
"272 591 LINE",
"91 306 LINE",
"276 0 LINE"
);
},
{
closed = 1;
nodes = (
"62 0 LINE",
"62 591 LINE",
"50 591 LINE",
"50 0 LINE"
);
}
);
width = 295;
}
);
leftKerningGroup = H;
leftMetricsKey = H;
note = K;
rightKerningGroup = K;
unicode = 004B;
},
{
glyphname = L;
lastChange = "2021-12-01 09:12:38 +0000";
layers = (
{
anchors = (
{
name = bottom;
position = "{133, 0}";
},
{
name = center;
position = "{133, 296}";
},
{
name = top;
position = "{56, 591}";
},
{
name = topright;
position = "{167, 495}";
}
);
layerId = "5E1A2ACF-25BB-4872-A226-5327BC7330DB";
paths = (
{
closed = 1;
nodes = (
"260 0 LINE",
"260 11 LINE",
"62 11 LINE",
"62 591 LINE",
"50 591 LINE",
"50 0 LINE"
);
}
);
width = 265;
}
);
leftKerningGroup = H;
leftMetricsKey = H;
note = L;
rightKerningGroup = L;
unicode = 004C;
},
{
glyphname = Lslash;
lastChange = "2021-12-01 09:12:38 +0000";
layers = (
{
layerId = "5E1A2ACF-25BB-4872-A226-5327BC7330DB";
paths = (
{
closed = 1;
nodes = (
"329 0 LINE",
"329 11 LINE",
"131 11 LINE",
"131 197 LINE",
"218 237 LINE",
"218 247 LINE",
"131 207 LINE",
"131 591 LINE",
"119 591 LINE",
"119 202 LINE",
"50 171 LINE",
"50 160 LINE",
"119 191 LINE",
"119 0 LINE"
);
}
);
width = 374;
}
);
leftKerningGroup = H;
note = Lslash;
rightKerningGroup = L;
unicode = 0141;
},
{
glyphname = M;
lastChange = "2021-12-01 09:12:38 +0000";
layers = (
{
layerId = "5E1A2ACF-25BB-4872-A226-5327BC7330DB";
paths = (
{
closed = 1;
nodes = (
"62 0 LINE",
"62 537 LINE",
"226 0 LINE",
"240 0 LINE",
"283 148 OFFCURVE",
"340 324 OFFCURVE",
"404 537 CURVE",
"404 0 LINE",
"416 0 LINE",
"416 591 LINE",
"408 591 LINE",
"233 16 LINE",
"59 591 LINE",
"50 591 LINE",
"50 0 LINE"
);
}
);
width = 466;
}
);
leftKerningGroup = H;
leftMetricsKey = H;
note = M;
rightKerningGroup = H;
rightMetricsKey = H;
unicode = 004D;
},
{
glyphname = N;
lastChange = "2021-12-01 09:12:38 +0000";
layers = (
{
anchors = (
{
name = bottom;
position = "{187, 0}";
},
{
name = top;
position = "{187, 591}";
}
);
layerId = "5E1A2ACF-25BB-4872-A226-5327BC7330DB";
paths = (
{
closed = 1;
nodes = (
"62 0 LINE",
"62 564 LINE",
"307 0 LINE",
"323 0 LINE",
"323 591 LINE",
"312 591 LINE",
"312 17 LINE",
"64 591 LINE",
"50 591 LINE",
"50 0 LINE"
);
}
);
width = 373;
}
);
leftKerningGroup = H;
leftMetricsKey = H;
note = N;
rightKerningGroup = H;
rightMetricsKey = H;
unicode = 004E;
},
{
glyphname = Eng;
lastChange = "2021-12-01 09:12:38 +0000";
layers = (
{
layerId = "5E1A2ACF-25BB-4872-A226-5327BC7330DB";
paths = (
{
closed = 1;
nodes = (
"213 -248 OFFCURVE",
"221 -247 OFFCURVE",
"228 -247 CURVE SMOOTH",
"240 -247 LINE SMOOTH",
"317 -247 OFFCURVE",
"323 -214 OFFCURVE",
"323 -130 CURVE SMOOTH",
"323 591 LINE",
"312 591 LINE",
"312 17 LINE",
"64 591 LINE",
"50 591 LINE",
"50 0 LINE",
"62 0 LINE",
"62 564 LINE",
"311 -9 LINE",
"311 -161 LINE SMOOTH",
"311 -218 OFFCURVE",
"288 -237 OFFCURVE",
"240 -237 CURVE SMOOTH",
"206 -237 LINE",
"206 -247 LINE"
);
}
);
width = 373;
}
);
leftKerningGroup = H;
note = Eng;
rightKerningGroup = H;
unicode = 014A;
},
{
glyphname = O;
lastChange = "2021-12-01 10:18:18 +0000";
layers = (
{
anchors = (
{
name = bottom;
position = "{181, 0}";
},
{
name = center;
position = "{181, 296}";
},
{
name = ogonek;
position = "{202, -3}";
},
{
name = top;
position = "{181, 591}";
},
{
name = topleft;
position = "{20, 591}";
},
{
name = topright;
position = "{235, 591}";
}
);
layerId = "5E1A2ACF-25BB-4872-A226-5327BC7330DB";
paths = (
{
closed = 1;
nodes = (
"259 -12 OFFCURVE",
"317 2 OFFCURVE",
"317 118 CURVE SMOOTH",
"317 469 LINE SMOOTH",
"317 583 OFFCURVE",
"258 599 OFFCURVE",
"181 599 CURVE SMOOTH",
"104 599 OFFCURVE",
"44 585 OFFCURVE",
"44 469 CURVE SMOOTH",
"44 118 LINE SMOOTH",
"44 4 OFFCURVE",
"103 -12 OFFCURVE",
"179 -12 CURVE SMOOTH"
);
},
{
closed = 1;
nodes = (
"111 -2 OFFCURVE",
"56 11 OFFCURVE",
"56 115 CURVE SMOOTH",
"56 472 LINE SMOOTH",
"56 576 OFFCURVE",
"111 589 OFFCURVE",
"180 589 CURVE SMOOTH",
"248 589 OFFCURVE",
"305 576 OFFCURVE",
"305 472 CURVE SMOOTH",
"305 115 LINE SMOOTH",
"305 11 OFFCURVE",
"250 -2 OFFCURVE",
"180 -2 CURVE SMOOTH"
);
}
);
width = 361;
}
);
leftKerningGroup = O;
note = O;
rightKerningGroup = O;
unicode = 004F;
},
{
glyphname = Oslash;
lastChange = "2021-12-01 10:46:55 +0000";
layers = (
{
anchors = (
{
name = bottom;
position = "{190, 0}";
},
{
name = top;
position = "{179, 589}";
}
);
layerId = "5E1A2ACF-25BB-4872-A226-5327BC7330DB";
paths = (
{
closed = 1;
nodes = (
"31 -46 LINE",
"67 25 LINE",
"91 -6 OFFCURVE",
"131 -12 OFFCURVE",
"178 -12 CURVE SMOOTH",
"258 -12 OFFCURVE",
"316 2 OFFCURVE",
"316 118 CURVE SMOOTH",
"316 469 LINE SMOOTH",
"316 484 OFFCURVE",
"315 498 OFFCURVE",
"313 510 CURVE",
"328 541 OFFCURVE",
"344 572 OFFCURVE",
"361 604 CURVE",
"348 604 LINE",
"309 527 LINE",
"290 589 OFFCURVE",
"242 599 OFFCURVE",
"180 599 CURVE SMOOTH",
"103 599 OFFCURVE",
"43 585 OFFCURVE",
"43 469 CURVE SMOOTH",
"43 118 LINE SMOOTH",
"43 82 OFFCURVE",
"48 55 OFFCURVE",
"59 36 CURVE",
"17 -46 LINE"
);
},
{
closed = 1;
nodes = (
"132 -3 OFFCURVE",
"94 3 OFFCURVE",
"73 36 CURVE",
"153 193 OFFCURVE",
"224 336 OFFCURVE",
"303 491 CURVE",
"303 484 OFFCURVE",
"304 479 OFFCURVE",
"304 472 CURVE SMOOTH",
"304 114 LINE SMOOTH",
"304 10 OFFCURVE",
"249 -3 OFFCURVE",
"179 -3 CURVE SMOOTH"
);
},
{
closed = 1;
nodes = (
"58 64 OFFCURVE",
"55 86 OFFCURVE",
"55 114 CURVE SMOOTH",
"55 472 LINE SMOOTH",
"55 576 OFFCURVE",
"110 589 OFFCURVE",
"179 589 CURVE SMOOTH",
"238 589 OFFCURVE",
"287 579 OFFCURVE",
"301 511 CURVE",
"65 49 LINE"
);
}
);
width = 361;
}
);
leftKerningGroup = O;
note = Oslash;
rightKerningGroup = O;
unicode = 00D8;
},
{
glyphname = OE;
lastChange = "2021-12-01 09:12:38 +0000";
layers = (
{
layerId = "5E1A2ACF-25BB-4872-A226-5327BC7330DB";
paths = (
{
closed = 1;
nodes = (
"244 -12 OFFCURVE",
"290 -4 OFFCURVE",
"311 45 CURVE",
"311 0 LINE",
"552 0 LINE",
"552 11 LINE",
"323 11 LINE",
"323 306 LINE",
"501 306 LINE",
"501 317 LINE",
"323 317 LINE",
"323 580 LINE",
"552 580 LINE",
"552 591 LINE",
"311 591 LINE",
"311 541 LINE",
"290 590 OFFCURVE",
"244 599 OFFCURVE",
"187 599 CURVE SMOOTH",
"110 599 OFFCURVE",
"50 585 OFFCURVE",
"50 469 CURVE SMOOTH",
"50 118 LINE SMOOTH",
"50 4 OFFCURVE",
"109 -12 OFFCURVE",
"185 -12 CURVE SMOOTH"
);
},
{
closed = 1;
nodes = (
"117 -3 OFFCURVE",
"62 10 OFFCURVE",
"62 114 CURVE SMOOTH",
"62 472 LINE SMOOTH",
"62 576 OFFCURVE",
"117 589 OFFCURVE",
"186 589 CURVE SMOOTH",
"254 589 OFFCURVE",
"311 576 OFFCURVE",
"311 472 CURVE SMOOTH",
"311 106 LINE SMOOTH",
"311 9 OFFCURVE",
"254 -3 OFFCURVE",
"186 -3 CURVE SMOOTH"
);
}
);
width = 594;
}
);
leftKerningGroup = O;
note = OE;
rightKerningGroup = E;
unicode = 0152;
},
{
glyphname = P;
lastChange = "2021-12-01 09:12:38 +0000";
layers = (
{
layerId = "5E1A2ACF-25BB-4872-A226-5327BC7330DB";
paths = (
{
closed = 1;
nodes = (
"62 0 LINE",
"62 271 LINE",
"173 271 LINE SMOOTH",
"295 271 OFFCURVE",
"318 313 OFFCURVE",
"318 418 CURVE SMOOTH",
"318 494 LINE SMOOTH",
"318 569 OFFCURVE",
"278 591 OFFCURVE",
"198 591 CURVE SMOOTH",
"50 591 LINE",
"50 0 LINE"
);
},
{
closed = 1;
nodes = (
"62 282 LINE",
"62 580 LINE",
"197 580 LINE SMOOTH",
"282 580 OFFCURVE",
"306 556 OFFCURVE",
"306 476 CURVE SMOOTH",
"306 417 LINE SMOOTH",
"306 315 OFFCURVE",
"282 282 OFFCURVE",
"173 282 CURVE SMOOTH"
);
}
);
width = 345;
}
);
leftKerningGroup = H;
leftMetricsKey = H;
note = P;
rightKerningGroup = P;
unicode = 0050;
},
{
glyphname = Thorn;
lastChange = "2021-12-01 09:12:38 +0000";
layers = (
{
layerId = "5E1A2ACF-25BB-4872-A226-5327BC7330DB";
paths = (
{
closed = 1;
nodes = (
"62 0 LINE",
"62 151 LINE",
"198 151 LINE SMOOTH",
"292 151 OFFCURVE",
"318 211 OFFCURVE",
"318 270 CURVE SMOOTH",
"318 374 LINE SMOOTH",
"318 446 OFFCURVE",
"269 471 OFFCURVE",
"212 471 CURVE SMOOTH",
"62 471 LINE",
"62 591 LINE",
"50 591 LINE",
"50 0 LINE"
);
},
{
closed = 1;
nodes = (
"62 162 LINE",
"62 460 LINE",
"220 460 LINE SMOOTH",
"265 460 OFFCURVE",
"306 433 OFFCURVE",
"306 376 CURVE SMOOTH",
"306 265 LINE SMOOTH",
"306 197 OFFCURVE",
"263 162 OFFCURVE",
"198 162 CURVE SMOOTH"
);
}
);
width = 368;
}
);
note = Thorn;
unicode = 00DE;
},
{
glyphname = Q;
lastChange = "2021-12-01 09:12:38 +0000";
layers = (
{
layerId = "5E1A2ACF-25BB-4872-A226-5327BC7330DB";
paths = (
{
closed = 1;
nodes = (
"302 -103 LINE",
"244 -6 LINE",
"288 5 OFFCURVE",
"317 37 OFFCURVE",
"317 118 CURVE SMOOTH",
"317 469 LINE SMOOTH",
"317 583 OFFCURVE",
"258 599 OFFCURVE",
"181 599 CURVE SMOOTH",
"104 599 OFFCURVE",
"44 585 OFFCURVE",
"44 469 CURVE SMOOTH",
"44 118 LINE SMOOTH",
"44 4 OFFCURVE",
"103 -12 OFFCURVE",
"179 -12 CURVE SMOOTH",
"200 -12 OFFCURVE",
"218 -11 OFFCURVE",
"233 -8 CURVE",
"292 -109 LINE"
);
},
{
closed = 1;
nodes = (
"111 -3 OFFCURVE",
"56 10 OFFCURVE",
"56 114 CURVE SMOOTH",
"56 472 LINE SMOOTH",
"56 576 OFFCURVE",
"111 589 OFFCURVE",
"180 589 CURVE SMOOTH",
"248 589 OFFCURVE",
"305 576 OFFCURVE",
"305 472 CURVE SMOOTH",
"305 114 LINE SMOOTH",
"305 10 OFFCURVE",
"250 -3 OFFCURVE",
"180 -3 CURVE SMOOTH"
);
}
);
width = 361;
}
);
leftKerningGroup = O;
leftMetricsKey = O;
note = Q;
rightKerningGroup = O;
rightMetricsKey = O;
unicode = 0051;
},
{
glyphname = R;
lastChange = "2021-12-01 09:12:38 +0000";
layers = (
{
anchors = (
{
name = bottom;
position = "{178, 0}";
},
{
name = top;
position = "{173, 591}";
}
);
background = {
paths = (
{
closed = 1;
nodes = (
"62 0 LINE",
"62 292 LINE",
"181 292 LINE SMOOTH",
"222 292 OFFCURVE",
"248 257 OFFCURVE",
"264 205 CURVE SMOOTH",
"325 0 LINE",
"339 0 LINE",
"270 224 LINE SMOOTH",
"259 256 OFFCURVE",
"237 293 OFFCURVE",
"204 296 CURVE",
"267 296 OFFCURVE",
"318 328 OFFCURVE",
"318 411 CURVE SMOOTH",
"318 494 LINE SMOOTH",
"318 566 OFFCURVE",
"269 591 OFFCURVE",
"212 591 CURVE SMOOTH",
"50 591 LINE",
"50 0 LINE"
);
},
{
closed = 1;
nodes = (
"62 303 LINE",
"62 580 LINE",
"220 580 LINE SMOOTH",
"265 580 OFFCURVE",
"306 553 OFFCURVE",
"306 496 CURVE SMOOTH",
"306 409 LINE SMOOTH",
"306 331 OFFCURVE",
"255 303 OFFCURVE",
"187 303 CURVE SMOOTH"
);
}
);
};
layerId = "5E1A2ACF-25BB-4872-A226-5327BC7330DB";
paths = (
{
closed = 1;
nodes = (
"62 0 LINE",
"62 292 LINE",
"181 292 LINE SMOOTH",
"222 292 OFFCURVE",
"248 257 OFFCURVE",
"264 205 CURVE SMOOTH",
"325 0 LINE",
"339 0 LINE",
"270 224 LINE SMOOTH",
"260 256 OFFCURVE",
"237 293 OFFCURVE",
"204 296 CURVE",
"267 296 OFFCURVE",
"318 328 OFFCURVE",
"318 411 CURVE SMOOTH",
"318 494 LINE SMOOTH",
"318 566 OFFCURVE",
"269 591 OFFCURVE",
"212 591 CURVE SMOOTH",
"50 591 LINE",
"50 0 LINE"
);
},
{
closed = 1;
nodes = (
"62 302 LINE",
"62 580 LINE",
"220 580 LINE SMOOTH",
"265 580 OFFCURVE",
"306 553 OFFCURVE",
"306 496 CURVE SMOOTH",
"306 409 LINE SMOOTH",
"306 343 OFFCURVE",
"267 302 OFFCURVE",
"187 302 CURVE SMOOTH"
);
}
);
width = 355;
}
);
leftKerningGroup = H;
leftMetricsKey = H;
note = R;
rightKerningGroup = R;
unicode = 0052;
},
{
glyphname = S;
lastChange = "2021-12-01 09:12:38 +0000";
layers = (
{
anchors = (
{
name = bottom;
position = "{163, 0}";
},
{
name = top;
position = "{163, 591}";
}
);
layerId = "5E1A2ACF-25BB-4872-A226-5327BC7330DB";
paths = (
{
closed = 1;
nodes = (
"234 -9 OFFCURVE",
"293 31 OFFCURVE",
"293 146 CURVE SMOOTH",
"293 202 OFFCURVE",
"280 237 OFFCURVE",
"253 260 CURVE SMOOTH",
"181 324 OFFCURVE",
"45 304 OFFCURVE",
"45 448 CURVE SMOOTH",
"45 540 OFFCURVE",
"78 583 OFFCURVE",
"161 583 CURVE SMOOTH",
"233 583 OFFCURVE",
"275 541 OFFCURVE",
"275 469 CURVE SMOOTH",
"275 429 LINE",
"287 429 LINE",
"287 469 LINE SMOOTH",
"287 549 OFFCURVE",
"241 595 OFFCURVE",
"161 595 CURVE SMOOTH",
"69 595 OFFCURVE",
"33 544 OFFCURVE",
"33 448 CURVE SMOOTH",
"33 354 OFFCURVE",
"91 322 OFFCURVE",
"151 298 CURVE SMOOTH",
"231 269 OFFCURVE",
"281 250 OFFCURVE",
"281 146 CURVE SMOOTH",
"281 38 OFFCURVE",
"227 3 OFFCURVE",
"157 3 CURVE SMOOTH",
"89 3 OFFCURVE",
"42 38 OFFCURVE",
"42 163 CURVE SMOOTH",
"42 175 LINE",
"30 175 LINE",
"30 163 LINE SMOOTH",
"30 32 OFFCURVE",
"80 -9 OFFCURVE",
"157 -9 CURVE SMOOTH"
);
}
);
width = 325;
}
);
leftKerningGroup = S;
note = S;
rightKerningGroup = S;
unicode = 0053;
},
{
glyphname = Germandbls;
lastChange = "2021-12-01 09:12:38 +0000";
layers = (
{
associatedMasterId = "5E1A2ACF-25BB-4872-A226-5327BC7330DB";
background = {
paths = (
{
closed = 1;
nodes = (
"718 -8 OFFCURVE",
"794 36 OFFCURVE",
"794 171 CURVE SMOOTH",
"794 290 OFFCURVE",
"757 313 OFFCURVE",
"669 345 CURVE SMOOTH",
"626 361 OFFCURVE",
"587 368 OFFCURVE",
"587 427 CURVE SMOOTH",
"587 456 OFFCURVE",
"590 467 OFFCURVE",
"607 467 CURVE SMOOTH",
"628 467 OFFCURVE",
"628 453 OFFCURVE",
"628 399 CURVE SMOOTH",
"628 373 LINE",
"681 373 OFFCURVE",
"734 373 OFFCURVE",
"787 373 CURVE",
"787 449 LINE SMOOTH",
"787 546 OFFCURVE",
"725 593 OFFCURVE",
"605 593 CURVE SMOOTH",
"465 593 OFFCURVE",
"422 548 OFFCURVE",
"422 422 CURVE SMOOTH",
"422 332 OFFCURVE",
"443 279 OFFCURVE",
"518 246 CURVE SMOOTH",
"598 211 OFFCURVE",
"625 211 OFFCURVE",
"625 147 CURVE SMOOTH",
"625 101 OFFCURVE",
"620 92 OFFCURVE",
"605 92 CURVE SMOOTH",
"591 92 OFFCURVE",
"584 101 OFFCURVE",
"584 155 CURVE SMOOTH",
"584 206 LINE",
"528 206 OFFCURVE",
"473 206 OFFCURVE",
"417 206 CURVE",
"417 169 LINE SMOOTH",
"417 26 OFFCURVE",
"480 -8 OFFCURVE",
"599 -8 CURVE SMOOTH"
);
},
{
closed = 1;
nodes = (
"321 -8 OFFCURVE",
"397 36 OFFCURVE",
"397 171 CURVE SMOOTH",
"397 290 OFFCURVE",
"360 313 OFFCURVE",
"272 345 CURVE SMOOTH",
"229 361 OFFCURVE",
"190 368 OFFCURVE",
"190 427 CURVE SMOOTH",
"190 456 OFFCURVE",
"193 467 OFFCURVE",
"210 467 CURVE SMOOTH",
"231 467 OFFCURVE",
"231 453 OFFCURVE",
"231 399 CURVE SMOOTH",
"231 373 LINE",
"284 373 OFFCURVE",
"337 373 OFFCURVE",
"390 373 CURVE",
"390 449 LINE SMOOTH",
"390 546 OFFCURVE",
"328 593 OFFCURVE",
"208 593 CURVE SMOOTH",
"68 593 OFFCURVE",
"25 548 OFFCURVE",
"25 422 CURVE SMOOTH",
"25 332 OFFCURVE",
"46 279 OFFCURVE",
"121 246 CURVE SMOOTH",
"201 211 OFFCURVE",
"228 211 OFFCURVE",
"228 147 CURVE SMOOTH",
"228 101 OFFCURVE",
"223 92 OFFCURVE",
"208 92 CURVE SMOOTH",
"194 92 OFFCURVE",
"187 101 OFFCURVE",
"187 155 CURVE SMOOTH",
"187 206 LINE",
"131 206 OFFCURVE",
"76 206 OFFCURVE",
"20 206 CURVE",
"20 169 LINE SMOOTH",
"20 26 OFFCURVE",
"83 -8 OFFCURVE",
"202 -8 CURVE SMOOTH"
);
}
);
};
layerId = "8A3706BD-364F-4FE3-9C2E-7E87DF0DB4CC";
name = Black;
paths = (
{
closed = 1;
nodes = (
"215 -25 LINE",
"214 542 LINE SMOOTH",
"214 556 OFFCURVE",
"221 558 OFFCURVE",
"258 558 CURVE SMOOTH",
"302 558 OFFCURVE",
"302 538 OFFCURVE",
"302 483 CURVE SMOOTH",
"302 435 LINE SMOOTH",
"302 396 OFFCURVE",
"298 373 OFFCURVE",
"276 373 CURVE SMOOTH",
"239 373 LINE",
"238 293 LINE",
"256 293 LINE SMOOTH",
"301 293 OFFCURVE",
"301 270 OFFCURVE",
"301 239 CURVE SMOOTH",
"301 186 LINE SMOOTH",
"301 94 OFFCURVE",
"298 78 OFFCURVE",
"261 78 CURVE SMOOTH",
"241 78 LINE",
"241 0 LINE",
"285 0 LINE SMOOTH",
"398 0 OFFCURVE",
"474 16 OFFCURVE",
"474 121 CURVE SMOOTH",
"474 244 LINE SMOOTH",
"474 303 OFFCURVE",
"419 334 OFFCURVE",
"371 338 CURVE",
"371 342 LINE",
"413 345 OFFCURVE",
"456 382 OFFCURVE",
"456 438 CURVE SMOOTH",
"456 533 LINE SMOOTH",
"456 606 OFFCURVE",
"385 631 OFFCURVE",
"256 631 CURVE SMOOTH",
"89 631 OFFCURVE",
"58 624 OFFCURVE",
"58 584 CURVE",
"58 -25 LINE"
);
}
);
width = 499;
},
{
layerId = "5E1A2ACF-25BB-4872-A226-5327BC7330DB";
paths = (
{
closed = 1;
nodes = (
"62 -59 LINE",
"62 525 LINE SMOOTH",
"62 558 OFFCURVE",
"58 583 OFFCURVE",
"166 583 CURVE SMOOTH",
"238 583 OFFCURVE",
"271 558 OFFCURVE",
"271 497 CURVE SMOOTH",
"271 448 LINE SMOOTH",
"271 385 OFFCURVE",
"251 346 OFFCURVE",
"180 346 CURVE SMOOTH",
"126 346 LINE",
"126 336 LINE",
"169 336 LINE SMOOTH",
"229 336 OFFCURVE",
"283 315 OFFCURVE",
"283 239 CURVE SMOOTH",
"283 123 LINE SMOOTH",
"283 24 OFFCURVE",
"242 9 OFFCURVE",
"183 9 CURVE SMOOTH",
"106 9 LINE",
"106 0 LINE",
"183 0 LINE SMOOTH",
"248 0 OFFCURVE",
"293 15 OFFCURVE",
"293 119 CURVE SMOOTH",
"293 244 LINE SMOOTH",
"293 300 OFFCURVE",
"258 334 OFFCURVE",
"212 340 CURVE",
"212 343 LINE",
"255 347 OFFCURVE",
"282 385 OFFCURVE",
"282 441 CURVE SMOOTH",
"282 498 LINE SMOOTH",
"282 570 OFFCURVE",
"241 593 OFFCURVE",
"166 593 CURVE SMOOTH",
"59 593 OFFCURVE",
"50 573 OFFCURVE",
"50 527 CURVE SMOOTH",
"50 -59 LINE"
);
}
);
width = 331;
}
);
leftMetricsKey = H;
rightKerningGroup = B;
rightMetricsKey = B;
unicode = 1E9E;
},
{
glyphname = Schwa;
lastChange = "2021-12-01 09:12:38 +0000";
layers = (
{
layerId = "5E1A2ACF-25BB-4872-A226-5327BC7330DB";
paths = (
{
closed = 1;
nodes = (
"263 -8 OFFCURVE",
"323 6 OFFCURVE",
"323 122 CURVE SMOOTH",
"323 473 LINE SMOOTH",
"323 587 OFFCURVE",
"264 603 OFFCURVE",
"188 603 CURVE SMOOTH",
"108 603 OFFCURVE",
"50 589 OFFCURVE",
"50 473 CURVE SMOOTH",
"50 402 LINE",
"62 402 LINE",
"62 475 LINE SMOOTH",
"62 579 OFFCURVE",
"117 594 OFFCURVE",
"187 594 CURVE SMOOTH",
"256 594 OFFCURVE",
"311 579 OFFCURVE",
"311 475 CURVE SMOOTH",
"311 124 LINE SMOOTH",
"311 19 OFFCURVE",
"262 2 OFFCURVE",
"187 2 CURVE SMOOTH",
"112 2 OFFCURVE",
"62 17 OFFCURVE",
"62 118 CURVE SMOOTH",
"62 247 LINE",
"50 247 LINE",
"50 122 LINE SMOOTH",
"50 8 OFFCURVE",
"109 -8 OFFCURVE",
"186 -8 CURVE SMOOTH"
);
},
{
closed = 1;
nodes = (
"315 236 LINE",
"315 247 LINE",
"50 247 LINE",
"50 236 LINE"
);
}
);
width = 373;
},
{
anchors = (
{
name = bottom;
position = "{197, 0}";
},
{
name = top;
position = "{197, 591}";
}
);
associatedMasterId = "5E1A2ACF-25BB-4872-A226-5327BC7330DB";
layerId = "8A3706BD-364F-4FE3-9C2E-7E87DF0DB4CC";
name = Black;
paths = (
{
closed = 1;
nodes = (
"302 -12 OFFCURVE",
"375 14 OFFCURVE",
"375 173 CURVE SMOOTH",
"375 465 LINE SMOOTH",
"375 564 OFFCURVE",
"302 600 OFFCURVE",
"193 600 CURVE SMOOTH",
"84 600 OFFCURVE",
"18 564 OFFCURVE",
"18 465 CURVE SMOOTH",
"18 327 LINE",
"177 327 LINE",
"177 473 LINE SMOOTH",
"177 496 OFFCURVE",
"184 503 OFFCURVE",
"193 503 CURVE SMOOTH",
"203 503 OFFCURVE",
"209 496 OFFCURVE",
"209 473 CURVE SMOOTH",
"209 110 LINE SMOOTH",
"209 87 OFFCURVE",
"203 80 OFFCURVE",
"193 80 CURVE SMOOTH",
"184 80 OFFCURVE",
"177 87 OFFCURVE",
"177 110 CURVE SMOOTH",
"177 248 LINE",
"18 248 LINE",
"18 174 LINE SMOOTH",
"18 14 OFFCURVE",
"84 -12 OFFCURVE",
"193 -12 CURVE SMOOTH"
);
},
{
closed = 1;
nodes = (
"230 216 LINE",
"230 289 LINE",
"18 289 LINE",
"18 216 LINE"
);
}
);
width = 395;
}
);
leftKerningGroup = a;
rightKerningGroup = o;
unicode = 018F;
},
{
glyphname = T;
lastChange = "2021-12-01 09:12:38 +0000";
layers = (
{
anchors = (
{
name = bottom;
position = "{126, 0}";
},
{
name = center;
position = "{126, 395}";
},
{
name = top;
position = "{126, 591}";
}
);
layerId = "5E1A2ACF-25BB-4872-A226-5327BC7330DB";
paths = (
{
closed = 1;
nodes = (
"132 0 LINE",
"132 580 LINE",
"246 580 LINE",
"246 591 LINE",
"7 591 LINE",
"7 580 LINE",
"120 580 LINE",
"120 0 LINE"
);
}
);
width = 251;
}
);
leftKerningGroup = T;
note = T;
rightKerningGroup = T;
unicode = 0054;
},
{
glyphname = U;
lastChange = "2021-12-01 10:47:25 +0000";
layers = (
{
anchors = (
{
name = bottom;
position = "{177, 0}";
},
{
name = ogonek;
position = "{200, -11}";
},
{
name = top;
position = "{183, 591}";
},
{
name = topright;
position = "{300, 591}";
}
);
layerId = "5E1A2ACF-25BB-4872-A226-5327BC7330DB";
paths = (
{
closed = 1;
nodes = (
"249 -12 OFFCURVE",
"319 6 OFFCURVE",
"319 110 CURVE SMOOTH",
"319 591 LINE",
"307 591 LINE",
"307 106 LINE SMOOTH",
"307 14 OFFCURVE",
"238 -3 OFFCURVE",
"177 -3 CURVE SMOOTH",
"116 -3 OFFCURVE",
"58 14 OFFCURVE",
"58 106 CURVE SMOOTH",
"58 591 LINE",
"46 591 LINE",
"46 110 LINE SMOOTH",
"46 6 OFFCURVE",
"106 -12 OFFCURVE",
"177 -12 CURVE SMOOTH"
);
}
);
width = 365;
}
);
leftKerningGroup = U;
leftMetricsKey = "=H-4";
note = U;
rightKerningGroup = U;
rightMetricsKey = "=H-4";
unicode = 0055;
},
{
glyphname = V;
lastChange = "2021-12-01 09:12:38 +0000";
layers = (
{
layerId = "5E1A2ACF-25BB-4872-A226-5327BC7330DB";
paths = (
{
closed = 1;
nodes = (
"155 0 LINE",
"277 591 LINE",
"265 591 LINE",
"149 24 LINE",
"27 591 LINE",
"15 591 LINE",
"142 0 LINE"
);
}
);
width = 292;
}
);
leftKerningGroup = V;
note = V;
rightKerningGroup = V;
unicode = 0056;
},
{
glyphname = W;
lastChange = "2021-12-01 09:12:38 +0000";
layers = (
{
anchors = (
{
name = bottom;
position = "{253, 0}";
},
{
name = top;
position = "{253, 591}";
}
);
background = {
paths = (
{
closed = 1;
nodes = (
"20 591 LINE",
"52 391 OFFCURVE",
"88 201 OFFCURVE",
"120 0 CURVE",
"132 0 LINE",
"253 565 LINE",
"370 0 LINE",
"385 0 LINE",
"417 201 OFFCURVE",
"453 390 OFFCURVE",
"485 591 CURVE",
"472 591 LINE",
"377 38 LINE",
"260 591 LINE",
"246 591 LINE",
"128 38 LINE",
"33 591 LINE"
);
},
{
closed = 1;
nodes = (
"20 591 LINE",
"147 0 LINE",
"160 0 LINE",
"282 591 LINE",
"270 591 LINE",
"154 24 LINE",
"32 591 LINE"
);
}
);
};
layerId = "5E1A2ACF-25BB-4872-A226-5327BC7330DB";
paths = (
{
closed = 1;
nodes = (
"132 0 LINE",
"253 569 LINE",
"370 0 LINE",
"385 0 LINE",
"417 201 OFFCURVE",
"453 390 OFFCURVE",
"485 591 CURVE",
"474 591 LINE",
"377 26 LINE",
"260 591 LINE",
"247 591 LINE",
"126 26 LINE",
"32 591 LINE",
"20 591 LINE",
"120 0 LINE"
);
}
);
width = 505;
}
);
leftKerningGroup = W;
note = W;
rightKerningGroup = W;
unicode = 0057;
},
{
glyphname = X;
lastChange = "2021-12-01 09:12:38 +0000";
layers = (
{
layerId = "5E1A2ACF-25BB-4872-A226-5327BC7330DB";
paths = (
{
closed = 1;
nodes = (
"20 0 LINE",
"118 292 LINE",
"136 292 LINE",
"232 0 LINE",
"247 0 LINE",
"147 298 LINE",
"249 591 LINE",
"235 591 LINE",
"136 303 LINE",
"118 303 LINE",
"30 591 LINE",
"16 591 LINE",
"108 298 LINE",
"5 0 LINE"
);
}
);
width = 254;
}
);
note = X;
unicode = 0058;
},
{
glyphname = Y;
lastChange = "2021-12-01 09:12:38 +0000";
layers = (
{
anchors = (
{
name = bottom;
position = "{127, 0}";
},
{
name = top;
position = "{128, 591}";
},
{
name = topleft;
position = "{20, 591}";
}
);
layerId = "5E1A2ACF-25BB-4872-A226-5327BC7330DB";
paths = (
{
closed = 1;
nodes = (
"121 0 LINE",
"133 0 LINE",
"133 251 LINE",
"258 591 LINE",
"243 591 LINE",
"128 269 LINE",
"25 591 LINE",
"10 591 LINE",
"121 253 LINE"
);
}
);
width = 268;
}
);
leftKerningGroup = Y;
note = Y;
rightKerningGroup = Y;
unicode = 0059;
},
{
glyphname = Z;
lastChange = "2021-12-01 09:12:38 +0000";
layers = (
{
anchors = (
{
name = bottom;
position = "{126, 0}";
},
{
name = center;
position = "{126, 296}";
},
{
name = top;
position = "{126, 591}";
}
);
layerId = "5E1A2ACF-25BB-4872-A226-5327BC7330DB";
paths = (
{
closed = 1;
nodes = (
"235 0 LINE",
"235 11 LINE",
"28 11 LINE",
"227 577 LINE",
"227 591 LINE",
"27 591 LINE",
"27 580 LINE",
"216 580 LINE",
"15 14 LINE",
"15 0 LINE"
);
}
);
width = 252;
}
);
leftKerningGroup = Z;
note = Z;
rightKerningGroup = Z;
unicode = 005A;
},
{
color = 6;
glyphname = a;
lastChange = "2021-12-01 08:59:04 +0000";
layers = (
{
anchors = (
{
name = bottom;
position = "{160, 0}";
},
{
name = ogonek;
position = "{288, 10}";
},
{
name = top;
position = "{160, 495}";
}
);
layerId = "5E1A2ACF-25BB-4872-A226-5327BC7330DB";
paths = (
{
closed = 1;
nodes = (
"171 -7 OFFCURVE",
"206 4 OFFCURVE",
"233 31 CURVE SMOOTH",
"246 46 OFFCURVE",
"256 62 OFFCURVE",
"262 79 CURVE",
"264 0 LINE",
"273 0 LINE",
"273 402 LINE SMOOTH",
"273 455 OFFCURVE",
"266 502 OFFCURVE",
"161 502 CURVE SMOOTH",
"65 502 OFFCURVE",
"45 452 OFFCURVE",
"45 377 CURVE SMOOTH",
"45 334 LINE",
"56 334 LINE",
"56 375 LINE SMOOTH",
"56 448 OFFCURVE",
"73 493 OFFCURVE",
"161 493 CURVE SMOOTH",
"211 493 OFFCURVE",
"262 481 OFFCURVE",
"262 414 CURVE SMOOTH",
"262 400 LINE SMOOTH",
"262 350 OFFCURVE",
"231 328 OFFCURVE",
"164 291 CURVE SMOOTH",
"127 270 OFFCURVE",
"34 237 OFFCURVE",
"34 146 CURVE SMOOTH",
"34 112 LINE SMOOTH",
"34 -3 OFFCURVE",
"94 -7 OFFCURVE",
"135 -7 CURVE SMOOTH"
);
},
{
closed = 1;
nodes = (
"100 3 OFFCURVE",
"45 5 OFFCURVE",
"45 112 CURVE SMOOTH",
"45 142 LINE SMOOTH",
"45 225 OFFCURVE",
"114 251 OFFCURVE",
"162 278 CURVE SMOOTH",
"206 303 OFFCURVE",
"248 323 OFFCURVE",
"262 357 CURVE",
"262 157 LINE SMOOTH",
"262 110 OFFCURVE",
"258 74 OFFCURVE",
"225 39 CURVE SMOOTH",
"201 14 OFFCURVE",
"170 3 OFFCURVE",
"137 3 CURVE SMOOTH"
);
}
);
width = 320;
}
);
leftKerningGroup = a;
note = a;
rightKerningGroup = n;
rightMetricsKey = n;
unicode = 0061;
},
{
glyphname = ae;
lastChange = "2021-12-01 09:12:49 +0000";
layers = (
{
anchors = (
{
name = bottom;
position = "{277, 0}";
},
{
name = top;
position = "{294, 493}";
}
);
layerId = "5E1A2ACF-25BB-4872-A226-5327BC7330DB";
paths = (
{
closed = 1;
nodes = (
"194 -7 OFFCURVE",
"251 18 OFFCURVE",
"278 88 CURVE",
"280 0 LINE",
"289 0 LINE",
"289 47 LINE",
"302 16 OFFCURVE",
"331 -7 OFFCURVE",
"398 -7 CURVE SMOOTH",
"511 -7 OFFCURVE",
"517 62 OFFCURVE",
"517 124 CURVE SMOOTH",
"517 167 LINE",
"506 167 LINE",
"506 127 LINE SMOOTH",
"506 68 OFFCURVE",
"501 3 OFFCURVE",
"398 3 CURVE SMOOTH",
"305 3 OFFCURVE",
"289 56 OFFCURVE",
"289 109 CURVE SMOOTH",
"289 263 LINE",
"517 263 LINE",
"517 372 LINE SMOOTH",
"517 433 OFFCURVE",
"511 503 OFFCURVE",
"398 503 CURVE SMOOTH",
"327 503 OFFCURVE",
"298 476 OFFCURVE",
"286 441 CURVE",
"278 474 OFFCURVE",
"255 502 OFFCURVE",
"172 502 CURVE SMOOTH",
"60 502 OFFCURVE",
"61 429 OFFCURVE",
"61 369 CURVE SMOOTH",
"61 335 LINE",
"72 335 LINE",
"72 375 LINE SMOOTH",
"72 448 OFFCURVE",
"89 493 OFFCURVE",
"172 493 CURVE SMOOTH",
"276 493 OFFCURVE",
"278 433 OFFCURVE",
"278 417 CURVE SMOOTH",
"278 380 LINE SMOOTH",
"278 341 OFFCURVE",
"219 312 OFFCURVE",
"168 285 CURVE SMOOTH",
"104 250 OFFCURVE",
"50 223 OFFCURVE",
"50 133 CURVE SMOOTH",
"50 111 LINE SMOOTH",
"50 -3 OFFCURVE",
"110 -7 OFFCURVE",
"150 -7 CURVE SMOOTH"
);
},
{
closed = 1;
nodes = (
"97 3 OFFCURVE",
"61 19 OFFCURVE",
"61 114 CURVE SMOOTH",
"61 149 LINE SMOOTH",
"61 217 OFFCURVE",
"142 259 OFFCURVE",
"171 275 CURVE SMOOTH",
"222 302 OFFCURVE",
"266 324 OFFCURVE",
"278 356 CURVE",
"278 129 LINE SMOOTH",
"278 74 OFFCURVE",
"225 3 OFFCURVE",
"150 3 CURVE SMOOTH"
);
},
{
closed = 1;
nodes = (
"289 273 LINE",
"289 369 LINE SMOOTH",
"289 428 OFFCURVE",
"294 493 OFFCURVE",
"398 493 CURVE SMOOTH",
"501 493 OFFCURVE",
"506 428 OFFCURVE",
"506 369 CURVE SMOOTH",
"506 273 LINE"
);
}
);
width = 554;
}
);
leftKerningGroup = a;
note = ae;
rightKerningGroup = e;
unicode = 00E6;
},
{
glyphname = b;
lastChange = "2021-12-01 09:12:49 +0000";
layers = (
{
layerId = "5E1A2ACF-25BB-4872-A226-5327BC7330DB";
paths = (
{
closed = 1;
nodes = (
"283 -7 OFFCURVE",
"289 62 OFFCURVE",
"289 124 CURVE SMOOTH",
"289 372 LINE SMOOTH",
"289 433 OFFCURVE",
"283 503 OFFCURVE",
"170 503 CURVE SMOOTH",
"103 503 OFFCURVE",
"74 480 OFFCURVE",
"61 449 CURVE",
"61 630 LINE",
"50 630 LINE",
"50 0 LINE",
"59 0 LINE",
"61 47 LINE",
"74 16 OFFCURVE",
"103 -7 OFFCURVE",
"170 -7 CURVE SMOOTH"
);
},
{
closed = 1;
nodes = (
"66 3 OFFCURVE",
"61 68 OFFCURVE",
"61 127 CURVE SMOOTH",
"61 387 LINE SMOOTH",
"61 440 OFFCURVE",
"77 493 OFFCURVE",
"170 493 CURVE SMOOTH",
"273 493 OFFCURVE",
"278 428 OFFCURVE",
"278 369 CURVE SMOOTH",
"278 127 LINE SMOOTH",
"278 68 OFFCURVE",
"273 3 OFFCURVE",
"170 3 CURVE SMOOTH"
);
}
);
width = 334;
}
);
leftKerningGroup = b;
leftMetricsKey = n;
note = b;
rightKerningGroup = o;
rightMetricsKey = o;
unicode = 0062;
},
{
glyphname = c;
lastChange = "2021-12-01 09:12:49 +0000";
layers = (
{
anchors = (
{
name = bottom;
position = "{162, 0}";
},
{
name = top;
position = "{162, 495}";
}
);
layerId = "5E1A2ACF-25BB-4872-A226-5327BC7330DB";
paths = (
{
closed = 1;
nodes = (
"278 -7 OFFCURVE",
"284 62 OFFCURVE",
"284 124 CURVE SMOOTH",
"284 167 LINE",
"273 167 LINE",
"273 127 LINE SMOOTH",
"273 68 OFFCURVE",
"268 3 OFFCURVE",
"165 3 CURVE SMOOTH",
"61 3 OFFCURVE",
"56 68 OFFCURVE",
"56 127 CURVE SMOOTH",
"56 369 LINE SMOOTH",
"56 428 OFFCURVE",
"61 493 OFFCURVE",
"165 493 CURVE SMOOTH",
"268 493 OFFCURVE",
"273 428 OFFCURVE",
"273 369 CURVE SMOOTH",
"273 328 LINE",
"284 328 LINE",
"284 372 LINE SMOOTH",
"284 433 OFFCURVE",
"278 503 OFFCURVE",
"165 503 CURVE SMOOTH",
"50 503 OFFCURVE",
"45 433 OFFCURVE",
"45 372 CURVE SMOOTH",
"45 124 LINE SMOOTH",
"45 62 OFFCURVE",
"50 -7 OFFCURVE",
"165 -7 CURVE SMOOTH"
);
}
);
width = 324;
}
);
leftKerningGroup = o;
leftMetricsKey = o;
note = c;
rightKerningGroup = c;
rightMetricsKey = "=o-5";
unicode = 0063;
},
{
glyphname = d;
lastChange = "2021-12-01 09:12:49 +0000";
layers = (
{
anchors = (
{
name = bottom;
position = "{167, 0}";
},
{
name = center;
position = "{167, 248}";
},
{
name = top;
position = "{167, 630}";
},
{
name = topright;
position = "{333, 513}";
}
);
layerId = "5E1A2ACF-25BB-4872-A226-5327BC7330DB";
paths = (
{
closed = 1;
nodes = (
"197 -7 OFFCURVE",
"222 -1 OFFCURVE",
"240 12 CURVE SMOOTH",
"255 23 OFFCURVE",
"266 38 OFFCURVE",
"273 59 CURVE",
"275 0 LINE",
"284 0 LINE",
"284 630 LINE",
"273 630 LINE",
"273 466 LINE",
"265 474 OFFCURVE",
"233 503 OFFCURVE",
"164 503 CURVE SMOOTH",
"51 503 OFFCURVE",
"45 433 OFFCURVE",
"45 372 CURVE SMOOTH",
"45 124 LINE SMOOTH",
"45 62 OFFCURVE",
"51 -7 OFFCURVE",
"164 -7 CURVE SMOOTH"
);
},
{
closed = 1;
nodes = (
"61 3 OFFCURVE",
"56 68 OFFCURVE",
"56 127 CURVE SMOOTH",
"56 369 LINE SMOOTH",
"56 428 OFFCURVE",
"61 493 OFFCURVE",
"164 493 CURVE SMOOTH",
"246 493 OFFCURVE",
"273 452 OFFCURVE",
"273 452 CURVE",
"273 127 LINE SMOOTH",
"273 98 OFFCURVE",
"271 46 OFFCURVE",
"231 19 CURVE SMOOTH",
"214 8 OFFCURVE",
"191 3 OFFCURVE",
"164 3 CURVE SMOOTH"
);
}
);
width = 334;
}
);
leftKerningGroup = o;
leftMetricsKey = o;
note = d;
rightKerningGroup = d;
unicode = 0064;
},
{
glyphname = eth;
lastChange = "2021-12-01 09:12:49 +0000";
layers = (
{
layerId = "5E1A2ACF-25BB-4872-A226-5327BC7330DB";
paths = (
{
closed = 1;
nodes = (
"267 -7 OFFCURVE",
"289 43 OFFCURVE",
"289 123 CURVE SMOOTH",
"289 449 LINE SMOOTH",
"289 516 OFFCURVE",
"286 567 OFFCURVE",
"275 599 CURVE SMOOTH",
"259 646 OFFCURVE",
"227 658 OFFCURVE",
"192 661 CURVE",
"217 707 LINE",
"205 707 LINE",
"181 661 LINE",
"142 660 OFFCURVE",
"112 653 OFFCURVE",
"93 646 CURVE",
"93 636 LINE",
"111 641 OFFCURVE",
"150 651 OFFCURVE",
"171 651 CURVE SMOOTH",
"175 651 LINE",
"144 591 LINE",
"156 591 LINE",
"187 650 LINE",
"267 645 OFFCURVE",
"272 585 OFFCURVE",
"277 463 CURVE",
"257 486 OFFCURVE",
"224 503 OFFCURVE",
"169 503 CURVE SMOOTH",
"56 503 OFFCURVE",
"50 433 OFFCURVE",
"50 372 CURVE SMOOTH",
"50 124 LINE SMOOTH",
"50 62 OFFCURVE",
"56 -7 OFFCURVE",
"169 -7 CURVE SMOOTH"
);
},
{
closed = 1;
nodes = (
"66 3 OFFCURVE",
"61 68 OFFCURVE",
"61 127 CURVE SMOOTH",
"61 369 LINE SMOOTH",
"61 428 OFFCURVE",
"66 493 OFFCURVE",
"169 493 CURVE SMOOTH",
"246 493 OFFCURVE",
"269 454 OFFCURVE",
"278 445 CURVE",
"278 127 LINE SMOOTH",
"278 71 OFFCURVE",
"273 3 OFFCURVE",
"169 3 CURVE SMOOTH"
);
}
);
width = 387;
}
);
leftKerningGroup = o;
note = eth;
rightKerningGroup = d;
unicode = 00F0;
},
{
glyphname = dcroat;
lastChange = "2021-12-01 13:04:43 +0000";
layers = (
{
layerId = "5E1A2ACF-25BB-4872-A226-5327BC7330DB";
paths = (
{
closed = 1;
nodes = (
"202 -7 OFFCURVE",
"227 -1 OFFCURVE",
"245 12 CURVE SMOOTH",
"260 23 OFFCURVE",
"271 38 OFFCURVE",
"278 59 CURVE",
"280 0 LINE",
"289 0 LINE",
"289 551 LINE",
"339 551 LINE",
"339 561 LINE",
"289 561 LINE",
"289 630 LINE",
"278 630 LINE",
"278 561 LINE",
"170 561 LINE",
"170 551 LINE",
"278 551 LINE",
"278 466 LINE",
"270 474 OFFCURVE",
"238 503 OFFCURVE",
"169 503 CURVE SMOOTH",
"56 503 OFFCURVE",
"50 433 OFFCURVE",
"50 372 CURVE SMOOTH",
"50 124 LINE SMOOTH",
"50 62 OFFCURVE",
"56 -7 OFFCURVE",
"169 -7 CURVE SMOOTH"
);
},
{
closed = 1;
nodes = (
"66 3 OFFCURVE",
"61 68 OFFCURVE",
"61 127 CURVE SMOOTH",
"61 369 LINE SMOOTH",
"61 428 OFFCURVE",
"66 493 OFFCURVE",
"169 493 CURVE SMOOTH",
"251 493 OFFCURVE",
"278 452 OFFCURVE",
"278 452 CURVE",
"278 127 LINE SMOOTH",
"278 98 OFFCURVE",
"276 46 OFFCURVE",
"236 19 CURVE SMOOTH",
"219 8 OFFCURVE",
"196 3 OFFCURVE",
"169 3 CURVE SMOOTH"
);
}
);
width = 339;
}
);
leftKerningGroup = o;
note = dcroat;
rightKerningGroup = d;
unicode = 0111;
},
{
glyphname = e;
lastChange = "2021-12-01 10:53:47 +0000";
layers = (
{
anchors = (
{
name = bottom;
position = "{163, 0}";
},
{
name = ogonek;
position = "{242, 6}";
},
{
name = top;
position = "{169, 495}";
}
);
layerId = "5E1A2ACF-25BB-4872-A226-5327BC7330DB";
paths = (
{
closed = 1;
nodes = (
"278 -6 OFFCURVE",
"284 63 OFFCURVE",
"284 125 CURVE SMOOTH",
"284 168 LINE",
"273 168 LINE",
"273 128 LINE SMOOTH",
"273 69 OFFCURVE",
"268 4 OFFCURVE",
"165 4 CURVE SMOOTH",
"61 4 OFFCURVE",
"56 69 OFFCURVE",
"56 128 CURVE SMOOTH",
"56 262 LINE",
"284 262 LINE",
"284 373 LINE SMOOTH",
"284 434 OFFCURVE",
"278 504 OFFCURVE",
"165 504 CURVE SMOOTH",
"50 504 OFFCURVE",
"45 434 OFFCURVE",
"45 373 CURVE SMOOTH",
"45 125 LINE SMOOTH",
"45 63 OFFCURVE",
"50 -6 OFFCURVE",
"165 -6 CURVE SMOOTH"
);
},
{
closed = 1;
nodes = (
"56 272 LINE",
"56 370 LINE SMOOTH",
"56 429 OFFCURVE",
"61 494 OFFCURVE",
"165 494 CURVE SMOOTH",
"268 494 OFFCURVE",
"273 429 OFFCURVE",
"273 370 CURVE SMOOTH",
"273 272 LINE"
);
}
);
width = 326;
}
);
leftKerningGroup = o;
leftMetricsKey = o;
note = e;
rightKerningGroup = e;
rightMetricsKey = "=o-3";
unicode = 0065;
},
{
glyphname = f;
lastChange = "2021-12-01 09:12:49 +0000";
layers = (
{
background = {
paths = (
{
closed = 1;
nodes = (
"74 0 LINE",
"74 461 LINE",
"192 461 LINE",
"192 471 LINE",
"74 471 LINE",
"74 552 LINE SMOOTH",
"74 587 OFFCURVE",
"85 627 OFFCURVE",
"132 627 CURVE SMOOTH",
"149 627 OFFCURVE",
"164 626 OFFCURVE",
"175 625 CURVE SMOOTH",
"192 623 LINE",
"192 632 LINE",
"179 635 OFFCURVE",
"158 636 OFFCURVE",
"133 636 CURVE SMOOTH",
"81 636 OFFCURVE",
"63 603 OFFCURVE",
"63 547 CURVE SMOOTH",
"63 471 LINE",
"32 471 LINE",
"32 461 LINE",
"63 461 LINE",
"63 0 LINE"
);
}
);
};
layerId = "5E1A2ACF-25BB-4872-A226-5327BC7330DB";
paths = (
{
closed = 1;
nodes = (
"74 0 LINE",
"74 462 LINE",
"192 462 LINE",
"192 471 LINE",
"74 471 LINE",
"74 552 LINE SMOOTH",
"74 587 OFFCURVE",
"85 627 OFFCURVE",
"132 627 CURVE SMOOTH",
"149 627 OFFCURVE",
"164 626 OFFCURVE",
"175 625 CURVE SMOOTH",
"192 623 LINE",
"192 632 LINE",
"179 635 OFFCURVE",
"158 636 OFFCURVE",
"133 636 CURVE SMOOTH",
"81 636 OFFCURVE",
"63 603 OFFCURVE",
"63 547 CURVE SMOOTH",
"63 471 LINE",
"32 471 LINE",
"32 462 LINE",
"63 462 LINE",
"63 0 LINE"
);
}
);
width = 202;
}
);
note = f;
unicode = 0066;
},
{
glyphname = g;
lastChange = "2021-12-01 09:12:49 +0000";
layers = (
{
anchors = (
{
name = bottom;
position = "{166, -116}";
},
{
name = top;
position = "{174, 495}";
}
);
layerId = "5E1A2ACF-25BB-4872-A226-5327BC7330DB";
paths = (
{
closed = 1;
nodes = (
"206 -115 OFFCURVE",
"284 -96 OFFCURVE",
"284 0 CURVE SMOOTH",
"284 495 LINE",
"276 495 LINE",
"273 466 LINE",
"265 478 OFFCURVE",
"231 503 OFFCURVE",
"164 503 CURVE SMOOTH",
"51 503 OFFCURVE",
"45 433 OFFCURVE",
"45 372 CURVE SMOOTH",
"45 155 LINE SMOOTH",
"45 93 OFFCURVE",
"51 24 OFFCURVE",
"164 24 CURVE SMOOTH",
"231 24 OFFCURVE",
"260 47 OFFCURVE",
"273 78 CURVE",
"273 8 LINE SMOOTH",
"273 -103 OFFCURVE",
"178 -104 OFFCURVE",
"142 -104 CURVE SMOOTH",
"131 -104 OFFCURVE",
"121 -103 OFFCURVE",
"112 -101 CURVE SMOOTH",
"96 -97 LINE",
"96 -108 LINE",
"103 -111 OFFCURVE",
"124 -115 OFFCURVE",
"145 -115 CURVE SMOOTH"
);
},
{
closed = 1;
nodes = (
"61 34 OFFCURVE",
"56 99 OFFCURVE",
"56 158 CURVE SMOOTH",
"56 369 LINE SMOOTH",
"56 428 OFFCURVE",
"61 493 OFFCURVE",
"164 493 CURVE SMOOTH",
"249 493 OFFCURVE",
"264 454 OFFCURVE",
"273 445 CURVE",
"273 158 LINE SMOOTH",
"273 99 OFFCURVE",
"268 34 OFFCURVE",
"164 34 CURVE SMOOTH"
);
}
);
width = 332;
}
);
leftKerningGroup = o;
leftMetricsKey = o;
note = g;
rightKerningGroup = g;
unicode = 0067;
},
{
glyphname = h;
lastChange = "2021-12-01 09:12:49 +0000";
layers = (
{
anchors = (
{
name = bottom;
position = "{169, 0}";
},
{
name = center;
position = "{90, 545}";
},
{
name = top;
position = "{56, 630}";
}
);
layerId = "5E1A2ACF-25BB-4872-A226-5327BC7330DB";
paths = (
{
closed = 1;
nodes = (
"62 0 LINE",
"62 417 LINE",
"67 452 OFFCURVE",
"98 493 OFFCURVE",
"171 493 CURVE SMOOTH",
"275 493 OFFCURVE",
"278 428 OFFCURVE",
"278 369 CURVE SMOOTH",
"278 0 LINE",
"290 0 LINE",
"290 372 LINE SMOOTH",
"290 433 OFFCURVE",
"284 503 OFFCURVE",
"171 503 CURVE SMOOTH",
"108 503 OFFCURVE",
"77 476 OFFCURVE",
"62 445 CURVE",
"62 630 LINE",
"50 630 LINE",
"50 0 LINE"
);
}
);
width = 337;
}
);
leftKerningGroup = n;
leftMetricsKey = n;
note = h;
rightKerningGroup = n;
rightMetricsKey = n;
unicode = 0068;
},
{
glyphname = i;
lastChange = "2021-12-01 09:12:49 +0000";
layers = (
{
anchors = (
{
name = bottom;
position = "{52, 0}";
}
);
layerId = "5E1A2ACF-25BB-4872-A226-5327BC7330DB";
paths = (
{
closed = 1;
nodes = (
"46 0 LINE",
"57 0 LINE",
"57 495 LINE",
"46 495 LINE"
);
},
{
closed = 1;
nodes = (
"61 619 OFFCURVE",
"65 623 OFFCURVE",
"65 631 CURVE SMOOTH",
"65 639 OFFCURVE",
"61 643 OFFCURVE",
"52 643 CURVE SMOOTH",
"43 643 OFFCURVE",
"39 639 OFFCURVE",
"39 631 CURVE SMOOTH",
"39 623 OFFCURVE",
"43 619 OFFCURVE",
"52 619 CURVE SMOOTH"
);
}
);
width = 104;
}
);
note = i;
unicode = 0069;
},
{
glyphname = idotless;
lastChange = "2021-12-01 13:34:48 +0000";
layers = (
{
anchors = (
{
name = bottom;
position = "{45, 0}";
},
{
name = ogonek;
position = "{59, 0}";
},
{
name = top;
position = "{45, 495}";
}
);
layerId = "5E1A2ACF-25BB-4872-A226-5327BC7330DB";
paths = (
{
closed = 1;
nodes = (
"39 0 LINE",
"50 0 LINE",
"50 495 LINE",
"39 495 LINE"
);
}
);
width = 89;
}
);
leftMetricsKey = i;
note = dotlessi;
rightMetricsKey = i;
unicode = 0131;
},
{
glyphname = j;
lastChange = "2021-12-01 09:12:49 +0000";
layers = (
{
layerId = "5E1A2ACF-25BB-4872-A226-5327BC7330DB";
paths = (
{
closed = 1;
nodes = (
"-16 -115 LINE SMOOTH",
"33 -112 OFFCURVE",
"68 -91 OFFCURVE",
"68 -31 CURVE SMOOTH",
"68 495 LINE",
"57 495 LINE",
"57 -32 LINE SMOOTH",
"57 -85 OFFCURVE",
"21 -106 OFFCURVE",
"-31 -106 CURVE SMOOTH",
"-38 -106 OFFCURVE",
"-45 -105 OFFCURVE",
"-52 -104 CURVE",
"-52 -114 LINE",
"-44 -115 OFFCURVE",
"-35 -115 OFFCURVE",
"-26 -115 CURVE SMOOTH"
);
},
{
closed = 1;
nodes = (
"72 619 OFFCURVE",
"76 623 OFFCURVE",
"76 631 CURVE SMOOTH",
"76 639 OFFCURVE",
"72 643 OFFCURVE",
"63 643 CURVE SMOOTH",
"54 643 OFFCURVE",
"50 639 OFFCURVE",
"50 631 CURVE SMOOTH",
"50 623 OFFCURVE",
"54 619 OFFCURVE",
"63 619 CURVE SMOOTH"
);
}
);
width = 126;
}
);
leftKerningGroup = j;
note = j;
rightKerningGroup = j;
rightMetricsKey = d;
unicode = 006A;
},
{
glyphname = jdotless;
lastChange = "2021-12-01 13:04:55 +0000";
layers = (
{
anchors = (
{
name = bottom;
position = "{50, -116}";
},
{
name = top;
position = "{62, 495}";
}
);
layerId = "5E1A2ACF-25BB-4872-A226-5327BC7330DB";
paths = (
{
closed = 1;
nodes = (
"-16 -115 LINE SMOOTH",
"33 -115 OFFCURVE",
"68 -91 OFFCURVE",
"68 -31 CURVE SMOOTH",
"68 495 LINE",
"57 495 LINE",
"57 -32 LINE SMOOTH",
"57 -85 OFFCURVE",
"21 -106 OFFCURVE",
"-31 -106 CURVE SMOOTH",
"-38 -106 OFFCURVE",
"-45 -105 OFFCURVE",
"-52 -104 CURVE",
"-52 -114 LINE",
"-44 -115 OFFCURVE",
"-35 -115 OFFCURVE",
"-26 -115 CURVE SMOOTH"
);
}
);
width = 118;
}
);
leftKerningGroup = j;
leftMetricsKey = j;
rightKerningGroup = j;
rightMetricsKey = j;
unicode = 0237;
},
{
glyphname = k;
lastChange = "2021-12-01 09:12:49 +0000";
layers = (
{
anchors = (
{
name = bottom;
position = "{145, 0}";
},
{
name = top;
position = "{132, 630}";
}
);
layerId = "5E1A2ACF-25BB-4872-A226-5327BC7330DB";
paths = (
{
closed = 1;
nodes = (
"50 0 LINE",
"61 0 LINE",
"61 283 LINE",
"96 283 LINE",
"246 0 LINE",
"259 0 LINE",
"107 287 LINE",
"257 495 LINE",
"242 495 LINE",
"97 293 LINE",
"61 293 LINE",
"61 630 LINE",
"50 630 LINE"
);
}
);
width = 263;
}
);
leftKerningGroup = b;
leftMetricsKey = n;
note = k;
rightKerningGroup = k;
unicode = 006B;
},
{
glyphname = kgreenlandic;
lastChange = "2021-12-01 09:12:49 +0000";
layers = (
{
layerId = "5E1A2ACF-25BB-4872-A226-5327BC7330DB";
paths = (
{
closed = 1;
nodes = (
"50 0 LINE",
"61 0 LINE",
"61 204 LINE",
"63 213 OFFCURVE",
"85 261 OFFCURVE",
"109 300 CURVE",
"257 0 LINE",
"269 0 LINE",
"115 311 LINE",
"158 378 OFFCURVE",
"216 447 OFFCURVE",
"277 468 CURVE",
"277 475 LINE",
"225 462 OFFCURVE",
"125 376 OFFCURVE",
"61 224 CURVE",
"61 631 LINE",
"50 631 LINE"
);
}
);
width = 330;
}
);
leftKerningGroup = b;
note = kgreenlandic;
rightKerningGroup = k;
unicode = 0138;
},
{
glyphname = l;
lastChange = "2021-12-01 09:12:49 +0000";
layers = (
{
anchors = (
{
name = bottom;
position = "{56, 0}";
},
{
name = center;
position = "{56, 315}";
},
{
name = top;
position = "{56, 630}";
},
{
name = topright;
position = "{101, 516}";
}
);
layerId = "5E1A2ACF-25BB-4872-A226-5327BC7330DB";
paths = (
{
closed = 1;
nodes = (
"50 0 LINE",
"61 0 LINE",
"61 630 LINE",
"50 630 LINE"
);
}
);
width = 111;
}
);
leftKerningGroup = b;
leftMetricsKey = n;
note = l;
rightKerningGroup = d;
rightMetricsKey = d;
unicode = 006C;
},
{
glyphname = lslash;
lastChange = "2021-12-01 13:37:24 +0000";
layers = (
{
layerId = "5E1A2ACF-25BB-4872-A226-5327BC7330DB";
paths = (
{
closed = 1;
nodes = (
"47 0 LINE",
"58 0 LINE",
"58 200 LINE",
"138 237 LINE",
"138 247 LINE",
"58 211 LINE",
"58 630 LINE",
"47 630 LINE",
"47 206 LINE",
"-30 171 LINE",
"-30 160 LINE",
"47 195 LINE"
);
}
);
width = 109;
}
);
leftKerningGroup = b;
note = lslash;
unicode = 0142;
},
{
glyphname = m;
lastChange = "2021-12-01 09:12:49 +0000";
layers = (
{
layerId = "5E1A2ACF-25BB-4872-A226-5327BC7330DB";
paths = (
{
closed = 1;
nodes = (
"62 0 LINE",
"62 417 LINE",
"67 452 OFFCURVE",
"98 493 OFFCURVE",
"171 493 CURVE SMOOTH",
"274 493 OFFCURVE",
"275 428 OFFCURVE",
"275 369 CURVE SMOOTH",
"275 0 LINE",
"287 0 LINE",
"287 421 LINE",
"306 469 OFFCURVE",
"342 493 OFFCURVE",
"396 493 CURVE SMOOTH",
"499 493 OFFCURVE",
"500 428 OFFCURVE",
"500 369 CURVE SMOOTH",
"500 0 LINE",
"512 0 LINE",
"512 372 LINE SMOOTH",
"512 433 OFFCURVE",
"509 503 OFFCURVE",
"396 503 CURVE SMOOTH",
"348 503 OFFCURVE",
"305 485 OFFCURVE",
"282 438 CURVE",
"271 474 OFFCURVE",
"244 503 OFFCURVE",
"171 503 CURVE SMOOTH",
"108 503 OFFCURVE",
"77 476 OFFCURVE",
"62 445 CURVE",
"59 495 LINE",
"50 495 LINE",
"50 0 LINE"
);
}
);
width = 559;
}
);
leftKerningGroup = n;
leftMetricsKey = n;
note = m;
rightKerningGroup = n;
rightMetricsKey = n;
unicode = 006D;
},
{
glyphname = n;
lastChange = "2021-12-01 09:12:49 +0000";
layers = (
{
anchors = (
{
name = bottom;
position = "{169, 0}";
},
{
name = top;
position = "{169, 495}";
}
);
layerId = "5E1A2ACF-25BB-4872-A226-5327BC7330DB";
paths = (
{
closed = 1;
nodes = (
"62 0 LINE",
"62 417 LINE",
"67 452 OFFCURVE",
"98 493 OFFCURVE",
"171 493 CURVE SMOOTH",
"275 493 OFFCURVE",
"278 428 OFFCURVE",
"278 369 CURVE SMOOTH",
"278 0 LINE",
"290 0 LINE",
"290 372 LINE SMOOTH",
"290 433 OFFCURVE",
"284 503 OFFCURVE",
"171 503 CURVE SMOOTH",
"108 503 OFFCURVE",
"77 476 OFFCURVE",
"62 445 CURVE",
"59 495 LINE",
"50 495 LINE",
"50 0 LINE"
);
}
);
width = 337;
}
);
leftKerningGroup = n;
note = n;
rightKerningGroup = n;
unicode = 006E;
},
{
glyphname = eng;
lastChange = "2021-12-01 09:12:49 +0000";
layers = (
{
layerId = "5E1A2ACF-25BB-4872-A226-5327BC7330DB";
paths = (
{
closed = 1;
nodes = (
"206 -115 LINE SMOOTH",
"255 -112 OFFCURVE",
"290 -91 OFFCURVE",
"290 -31 CURVE SMOOTH",
"290 372 LINE SMOOTH",
"290 433 OFFCURVE",
"284 503 OFFCURVE",
"171 503 CURVE SMOOTH",
"108 503 OFFCURVE",
"77 476 OFFCURVE",
"62 445 CURVE",
"59 495 LINE",
"50 495 LINE",
"50 0 LINE",
"62 0 LINE",
"62 417 LINE",
"67 452 OFFCURVE",
"98 493 OFFCURVE",
"171 493 CURVE SMOOTH",
"275 493 OFFCURVE",
"278 428 OFFCURVE",
"278 369 CURVE SMOOTH",
"278 -32 LINE SMOOTH",
"278 -85 OFFCURVE",
"243 -106 OFFCURVE",
"191 -106 CURVE SMOOTH",
"184 -106 OFFCURVE",
"177 -105 OFFCURVE",
"170 -104 CURVE",
"170 -114 LINE",
"178 -115 OFFCURVE",
"187 -115 OFFCURVE",
"196 -115 CURVE SMOOTH"
);
}
);
width = 340;
}
);
leftKerningGroup = n;
note = eng;
rightKerningGroup = n;
unicode = 014B;
},
{
glyphname = o;
lastChange = "2021-12-01 10:09:35 +0000";
layers = (
{
anchors = (
{
name = bottom;
position = "{165, 0}";
},
{
name = center;
position = "{165, 248}";
},
{
name = ogonek;
position = "{188, 0}";
},
{
name = top;
position = "{165, 495}";
},
{
name = topright;
position = "{199, 495}";
}
);
layerId = "5E1A2ACF-25BB-4872-A226-5327BC7330DB";
paths = (
{
closed = 1;
nodes = (
"278 -7 OFFCURVE",
"284 62 OFFCURVE",
"284 124 CURVE SMOOTH",
"284 372 LINE SMOOTH",
"284 433 OFFCURVE",
"278 503 OFFCURVE",
"165 503 CURVE SMOOTH",
"50 503 OFFCURVE",
"45 433 OFFCURVE",
"45 372 CURVE SMOOTH",
"45 124 LINE SMOOTH",
"45 62 OFFCURVE",
"50 -7 OFFCURVE",
"165 -7 CURVE SMOOTH"
);
},
{
closed = 1;
nodes = (
"61 3 OFFCURVE",
"56 68 OFFCURVE",
"56 127 CURVE SMOOTH",
"56 369 LINE SMOOTH",
"56 428 OFFCURVE",
"61 493 OFFCURVE",
"165 493 CURVE SMOOTH",
"268 493 OFFCURVE",
"273 428 OFFCURVE",
"273 369 CURVE SMOOTH",
"273 127 LINE SMOOTH",
"273 68 OFFCURVE",
"268 3 OFFCURVE",
"165 3 CURVE SMOOTH"
);
}
);
width = 329;
}
);
leftKerningGroup = o;
note = o;
rightKerningGroup = o;
unicode = 006F;
},
{
glyphname = oslash;
lastChange = "2021-12-01 11:03:25 +0000";
layers = (
{
anchors = (
{
name = top;
position = "{164, 495}";
}
);
layerId = "5E1A2ACF-25BB-4872-A226-5327BC7330DB";
paths = (
{
closed = 1;
nodes = (
"12 -46 LINE",
"57 42 LINE",
"72 13 OFFCURVE",
"100 -7 OFFCURVE",
"164 -7 CURVE SMOOTH",
"277 -7 OFFCURVE",
"283 62 OFFCURVE",
"283 124 CURVE SMOOTH",
"283 372 LINE SMOOTH",
"283 401 OFFCURVE",
"282 433 OFFCURVE",
"267 457 CURVE",
"314 548 LINE",
"302 548 LINE",
"261 467 LINE",
"244 488 OFFCURVE",
"215 503 OFFCURVE",
"164 503 CURVE SMOOTH",
"49 503 OFFCURVE",
"44 433 OFFCURVE",
"44 372 CURVE SMOOTH",
"44 124 LINE SMOOTH",
"44 101 OFFCURVE",
"45 77 OFFCURVE",
"52 56 CURVE",
"0 -46 LINE"
);
},
{
closed = 1;
nodes = (
"103 3 OFFCURVE",
"76 25 OFFCURVE",
"64 56 CURVE",
"131 187 OFFCURVE",
"193 313 OFFCURVE",
"261 444 CURVE",
"272 421 OFFCURVE",
"272 396 OFFCURVE",
"272 369 CURVE SMOOTH",
"272 127 LINE SMOOTH",
"272 68 OFFCURVE",
"267 3 OFFCURVE",
"164 3 CURVE SMOOTH"
);
},
{
closed = 1;
nodes = (
"55 88 OFFCURVE",
"55 108 OFFCURVE",
"55 127 CURVE SMOOTH",
"55 369 LINE SMOOTH",
"55 428 OFFCURVE",
"60 493 OFFCURVE",
"164 493 CURVE SMOOTH",
"213 493 OFFCURVE",
"240 478 OFFCURVE",
"255 455 CURVE",
"59 71 LINE"
);
}
);
width = 331;
}
);
leftKerningGroup = o;
note = oslash;
rightKerningGroup = o;
unicode = 00F8;
},
{
glyphname = oe;
lastChange = "2021-12-01 09:12:49 +0000";
layers = (
{
layerId = "5E1A2ACF-25BB-4872-A226-5327BC7330DB";
paths = (
{
closed = 1;
nodes = (
"244 -7 OFFCURVE",
"270 24 OFFCURVE",
"281 64 CURVE",
"292 24 OFFCURVE",
"319 -7 OFFCURVE",
"396 -7 CURVE SMOOTH",
"509 -7 OFFCURVE",
"515 62 OFFCURVE",
"515 124 CURVE SMOOTH",
"515 167 LINE",
"504 167 LINE",
"504 127 LINE SMOOTH",
"504 68 OFFCURVE",
"499 3 OFFCURVE",
"396 3 CURVE SMOOTH",
"303 3 OFFCURVE",
"287 56 OFFCURVE",
"287 110 CURVE SMOOTH",
"287 263 LINE",
"515 263 LINE",
"515 372 LINE SMOOTH",
"515 433 OFFCURVE",
"509 503 OFFCURVE",
"396 503 CURVE SMOOTH",
"319 503 OFFCURVE",
"291 471 OFFCURVE",
"281 432 CURVE",
"271 471 OFFCURVE",
"243 503 OFFCURVE",
"168 503 CURVE SMOOTH",
"53 503 OFFCURVE",
"48 433 OFFCURVE",
"48 372 CURVE SMOOTH",
"48 124 LINE SMOOTH",
"48 62 OFFCURVE",
"53 -7 OFFCURVE",
"168 -7 CURVE SMOOTH"
);
},
{
closed = 1;
nodes = (
"64 3 OFFCURVE",
"59 68 OFFCURVE",
"59 127 CURVE SMOOTH",
"59 369 LINE SMOOTH",
"59 428 OFFCURVE",
"64 493 OFFCURVE",
"168 493 CURVE SMOOTH",
"260 493 OFFCURVE",
"276 440 OFFCURVE",
"276 386 CURVE SMOOTH",
"276 127 LINE SMOOTH",
"276 68 OFFCURVE",
"271 3 OFFCURVE",
"168 3 CURVE SMOOTH"
);
},
{
closed = 1;
nodes = (
"287 273 LINE",
"287 386 LINE SMOOTH",
"287 440 OFFCURVE",
"303 493 OFFCURVE",
"396 493 CURVE SMOOTH",
"499 493 OFFCURVE",
"504 428 OFFCURVE",
"504 369 CURVE SMOOTH",
"504 273 LINE"
);
}
);
width = 552;
}
);
leftKerningGroup = o;
note = oe;
rightKerningGroup = e;
unicode = 0153;
},
{
glyphname = p;
lastChange = "2021-12-01 09:12:49 +0000";
layers = (
{
layerId = "5E1A2ACF-25BB-4872-A226-5327BC7330DB";
paths = (
{
closed = 1;
nodes = (
"61 -116 LINE",
"61 47 LINE",
"74 16 OFFCURVE",
"103 -7 OFFCURVE",
"170 -7 CURVE SMOOTH",
"283 -7 OFFCURVE",
"289 62 OFFCURVE",
"289 124 CURVE SMOOTH",
"289 372 LINE SMOOTH",
"289 433 OFFCURVE",
"283 503 OFFCURVE",
"170 503 CURVE SMOOTH",
"101 503 OFFCURVE",
"72 472 OFFCURVE",
"61 436 CURVE",
"58 495 LINE",
"50 495 LINE",
"50 -116 LINE"
);
},
{
closed = 1;
nodes = (
"66 3 OFFCURVE",
"61 68 OFFCURVE",
"61 127 CURVE SMOOTH",
"61 363 LINE SMOOTH",
"61 428 OFFCURVE",
"74 493 OFFCURVE",
"170 493 CURVE SMOOTH",
"273 493 OFFCURVE",
"278 428 OFFCURVE",
"278 369 CURVE SMOOTH",
"278 127 LINE SMOOTH",
"278 68 OFFCURVE",
"273 3 OFFCURVE",
"170 3 CURVE SMOOTH"
);
}
);
width = 334;
}
);
leftKerningGroup = n;
leftMetricsKey = n;
note = p;
rightKerningGroup = o;
rightMetricsKey = o;
unicode = 0070;
},
{
glyphname = thorn;
lastChange = "2021-12-01 11:04:07 +0000";
layers = (
{
layerId = "5E1A2ACF-25BB-4872-A226-5327BC7330DB";
paths = (
{
closed = 1;
nodes = (
"61 -116 LINE",
"61 47 LINE",
"74 16 OFFCURVE",
"103 -7 OFFCURVE",
"170 -7 CURVE SMOOTH",
"283 -7 OFFCURVE",
"289 62 OFFCURVE",
"289 124 CURVE SMOOTH",
"289 372 LINE SMOOTH",
"289 433 OFFCURVE",
"283 503 OFFCURVE",
"170 503 CURVE SMOOTH",
"103 503 OFFCURVE",
"74 480 OFFCURVE",
"61 449 CURVE",
"61 630 LINE",
"50 630 LINE",
"50 -116 LINE"
);
},
{
closed = 1;
nodes = (
"66 3 OFFCURVE",
"61 68 OFFCURVE",
"61 127 CURVE SMOOTH",
"61 387 LINE SMOOTH",
"61 440 OFFCURVE",
"77 493 OFFCURVE",
"170 493 CURVE SMOOTH",
"273 493 OFFCURVE",
"278 428 OFFCURVE",
"278 369 CURVE SMOOTH",
"278 127 LINE SMOOTH",
"278 68 OFFCURVE",
"273 3 OFFCURVE",
"170 3 CURVE SMOOTH"
);
}
);
width = 334;
}
);
note = thorn;
rightMetricsKey = o;
unicode = 00FE;
},
{
glyphname = q;
lastChange = "2021-12-01 09:12:49 +0000";
layers = (
{
layerId = "5E1A2ACF-25BB-4872-A226-5327BC7330DB";
paths = (
{
closed = 1;
nodes = (
"284 -116 LINE",
"284 495 LINE",
"277 495 LINE",
"273 449 LINE",
"260 480 OFFCURVE",
"231 503 OFFCURVE",
"164 503 CURVE SMOOTH",
"51 503 OFFCURVE",
"45 433 OFFCURVE",
"45 372 CURVE SMOOTH",
"45 124 LINE SMOOTH",
"45 62 OFFCURVE",
"51 -7 OFFCURVE",
"164 -7 CURVE SMOOTH",
"231 -7 OFFCURVE",
"260 16 OFFCURVE",
"273 47 CURVE",
"273 -116 LINE"
);
},
{
closed = 1;
nodes = (
"61 3 OFFCURVE",
"56 68 OFFCURVE",
"56 127 CURVE SMOOTH",
"56 369 LINE SMOOTH",
"56 428 OFFCURVE",
"61 493 OFFCURVE",
"164 493 CURVE SMOOTH",
"257 493 OFFCURVE",
"273 440 OFFCURVE",
"273 387 CURVE SMOOTH",
"273 127 LINE SMOOTH",
"273 68 OFFCURVE",
"268 3 OFFCURVE",
"164 3 CURVE SMOOTH"
);
}
);
width = 334;
}
);
leftKerningGroup = o;
leftMetricsKey = o;
note = q;
rightKerningGroup = d;
rightMetricsKey = d;
unicode = 0071;
},
{
glyphname = r;
lastChange = "2021-12-01 09:12:49 +0000";
layers = (
{
anchors = (
{
name = bottom;
position = "{56, 0}";
},
{
name = top;
position = "{119, 495}";
}
);
layerId = "5E1A2ACF-25BB-4872-A226-5327BC7330DB";
paths = (
{
closed = 1;
nodes = (
"62 0 LINE",
"62 425 LINE",
"67 446 OFFCURVE",
"98 492 OFFCURVE",
"170 492 CURVE SMOOTH",
"185 492 OFFCURVE",
"197 491 OFFCURVE",
"208 490 CURVE",
"208 500 LINE",
"197 501 OFFCURVE",
"185 502 OFFCURVE",
"170 502 CURVE SMOOTH",
"127 502 OFFCURVE",
"81 488 OFFCURVE",
"62 449 CURVE",
"60 495 LINE",
"50 495 LINE",
"50 0 LINE"
);
}
);
width = 211;
}
);
leftKerningGroup = n;
leftMetricsKey = n;
note = r;
rightKerningGroup = r;
unicode = 0072;
},
{
glyphname = s;
lastChange = "2021-12-01 11:04:24 +0000";
layers = (
{
anchors = (
{
name = bottom;
position = "{156, 0}";
},
{
name = top;
position = "{159, 495}";
}
);
layerId = "5E1A2ACF-25BB-4872-A226-5327BC7330DB";
paths = (
{
closed = 1;
nodes = (
"215 -6 OFFCURVE",
"272 19 OFFCURVE",
"272 96 CURVE SMOOTH",
"272 134 LINE SMOOTH",
"272 217 OFFCURVE",
"206 238 OFFCURVE",
"147 265 CURVE SMOOTH",
"95 287 OFFCURVE",
"50 311 OFFCURVE",
"50 372 CURVE SMOOTH",
"50 404 LINE SMOOTH",
"50 455 OFFCURVE",
"88 492 OFFCURVE",
"154 492 CURVE SMOOTH",
"220 492 OFFCURVE",
"261 465 OFFCURVE",
"261 401 CURVE SMOOTH",
"261 336 LINE",
"273 336 LINE",
"273 401 LINE SMOOTH",
"273 473 OFFCURVE",
"223 502 OFFCURVE",
"154 502 CURVE SMOOTH",
"83 502 OFFCURVE",
"38 460 OFFCURVE",
"38 404 CURVE SMOOTH",
"38 370 LINE SMOOTH",
"38 304 OFFCURVE",
"94 275 OFFCURVE",
"145 254 CURVE SMOOTH",
"200 230 OFFCURVE",
"260 209 OFFCURVE",
"260 134 CURVE SMOOTH",
"260 96 LINE SMOOTH",
"260 28 OFFCURVE",
"214 4 OFFCURVE",
"152 4 CURVE SMOOTH",
"88 4 OFFCURVE",
"46 34 OFFCURVE",
"46 99 CURVE SMOOTH",
"46 166 LINE",
"34 166 LINE",
"34 99 LINE SMOOTH",
"34 26 OFFCURVE",
"83 -6 OFFCURVE",
"152 -6 CURVE SMOOTH"
);
}
);
width = 311;
}
);
leftKerningGroup = s;
note = s;
rightKerningGroup = s;
unicode = 0073;
},
{
glyphname = germandbls;
lastChange = "2021-12-01 09:12:49 +0000";
layers = (
{
layerId = "5E1A2ACF-25BB-4872-A226-5327BC7330DB";
paths = (
{
closed = 1;
nodes = (
"60 -146 OFFCURVE",
"79 -115 OFFCURVE",
"79 -60 CURVE SMOOTH",
"79 534 LINE SMOOTH",
"79 581 OFFCURVE",
"88 623 OFFCURVE",
"183 623 CURVE SMOOTH",
"255 623 OFFCURVE",
"288 598 OFFCURVE",
"288 537 CURVE SMOOTH",
"288 448 LINE SMOOTH",
"288 385 OFFCURVE",
"268 346 OFFCURVE",
"197 346 CURVE SMOOTH",
"143 346 LINE",
"143 336 LINE",
"186 336 LINE SMOOTH",
"246 336 OFFCURVE",
"300 315 OFFCURVE",
"300 239 CURVE SMOOTH",
"300 123 LINE SMOOTH",
"300 24 OFFCURVE",
"259 9 OFFCURVE",
"200 9 CURVE SMOOTH",
"123 9 LINE",
"123 0 LINE",
"200 0 LINE SMOOTH",
"265 0 OFFCURVE",
"310 15 OFFCURVE",
"310 119 CURVE SMOOTH",
"310 244 LINE SMOOTH",
"310 300 OFFCURVE",
"275 334 OFFCURVE",
"229 340 CURVE",
"229 343 LINE",
"272 347 OFFCURVE",
"299 385 OFFCURVE",
"299 441 CURVE SMOOTH",
"299 538 LINE SMOOTH",
"299 610 OFFCURVE",
"258 633 OFFCURVE",
"183 633 CURVE SMOOTH",
"86 633 OFFCURVE",
"67 599 OFFCURVE",
"67 527 CURVE SMOOTH",
"67 457 LINE",
"36 457 LINE",
"36 447 LINE",
"67 447 LINE",
"67 -55 LINE SMOOTH",
"67 -104 OFFCURVE",
"53 -136 OFFCURVE",
"1 -136 CURVE SMOOTH",
"-11 -136 OFFCURVE",
"-26 -136 OFFCURVE",
"-39 -135 CURVE SMOOTH",
"-61 -133 LINE",
"-61 -143 LINE",
"-45 -146 OFFCURVE",
"-17 -146 OFFCURVE",
"7 -146 CURVE SMOOTH"
);
}
);
width = 350;
}
);
note = germandbls;
unicode = 00DF;
},
{
glyphname = longs;
lastChange = "2021-12-01 09:12:49 +0000";
layers = (
{
layerId = "5E1A2ACF-25BB-4872-A226-5327BC7330DB";
paths = (
{
closed = 1;
nodes = (
"161 -147 OFFCURVE",
"179 -114 OFFCURVE",
"179 -58 CURVE SMOOTH",
"179 552 LINE SMOOTH",
"179 587 OFFCURVE",
"190 627 OFFCURVE",
"237 627 CURVE SMOOTH",
"254 627 OFFCURVE",
"269 626 OFFCURVE",
"280 625 CURVE SMOOTH",
"297 623 LINE",
"297 632 LINE",
"284 635 OFFCURVE",
"263 636 OFFCURVE",
"238 636 CURVE SMOOTH",
"186 636 OFFCURVE",
"168 603 OFFCURVE",
"168 547 CURVE SMOOTH",
"168 438 LINE",
"137 438 LINE",
"137 428 LINE",
"168 428 LINE",
"168 -63 LINE SMOOTH",
"168 -98 OFFCURVE",
"157 -138 OFFCURVE",
"110 -138 CURVE SMOOTH",
"93 -138 OFFCURVE",
"78 -137 OFFCURVE",
"67 -136 CURVE SMOOTH",
"50 -134 LINE",
"50 -143 LINE",
"63 -146 OFFCURVE",
"84 -147 OFFCURVE",
"109 -147 CURVE SMOOTH"
);
}
);
width = 371;
}
);
note = longs;
unicode = 017F;
},
{
glyphname = t;
lastChange = "2021-12-01 09:12:49 +0000";
layers = (
{
anchors = (
{
name = bottom;
position = "{122, 0}";
},
{
name = center;
position = "{95, 378}";
},
{
name = top;
position = "{95, 495}";
},
{
name = topright;
position = "{126, 528}";
}
);
layerId = "5E1A2ACF-25BB-4872-A226-5327BC7330DB";
paths = (
{
closed = 1;
nodes = (
"141 -1 OFFCURVE",
"154 0 OFFCURVE",
"165 2 CURVE SMOOTH",
"183 5 LINE",
"183 14 LINE",
"165 11 LINE SMOOTH",
"154 9 OFFCURVE",
"139 9 OFFCURVE",
"126 9 CURVE SMOOTH",
"73 9 OFFCURVE",
"65 54 OFFCURVE",
"65 104 CURVE SMOOTH",
"65 485 LINE",
"183 485 LINE",
"183 495 LINE",
"65 495 LINE",
"65 591 LINE",
"57 591 LINE",
"54 495 LINE",
"13 493 LINE",
"13 485 LINE",
"54 485 LINE",
"54 100 LINE SMOOTH",
"54 48 OFFCURVE",
"63 -1 OFFCURVE",
"126 -1 CURVE SMOOTH"
);
}
);
width = 190;
}
);
leftKerningGroup = t;
note = t;
rightKerningGroup = t;
unicode = 0074;
},
{
glyphname = u;
lastChange = "2021-12-01 09:12:49 +0000";
layers = (
{
anchors = (
{
name = bottom;
position = "{170, 0}";
},
{
name = ogonek;
position = "{301, 0}";
},
{
name = top;
position = "{170, 495}";
},
{
name = topright;
position = "{258, 495}";
}
);
layerId = "5E1A2ACF-25BB-4872-A226-5327BC7330DB";
paths = (
{
closed = 1;
nodes = (
"232 -8 OFFCURVE",
"263 19 OFFCURVE",
"278 50 CURVE",
"281 0 LINE",
"290 0 LINE",
"290 495 LINE",
"278 495 LINE",
"278 78 LINE",
"273 43 OFFCURVE",
"242 2 OFFCURVE",
"169 2 CURVE SMOOTH",
"65 2 OFFCURVE",
"62 67 OFFCURVE",
"62 126 CURVE SMOOTH",
"62 495 LINE",
"50 495 LINE",
"50 123 LINE SMOOTH",
"50 61 OFFCURVE",
"56 -8 OFFCURVE",
"169 -8 CURVE SMOOTH"
);
}
);
width = 340;
}
);
leftKerningGroup = u;
leftMetricsKey = n;
note = u;
rightKerningGroup = u;
rightMetricsKey = d;
unicode = 0075;
},
{
glyphname = v;
lastChange = "2021-12-01 09:12:49 +0000";
layers = (
{
layerId = "5E1A2ACF-25BB-4872-A226-5327BC7330DB";
paths = (
{
closed = 1;
nodes = (
"146 0 LINE",
"268 495 LINE",
"256 495 LINE",
"138 14 LINE",
"22 495 LINE",
"9 495 LINE",
"130 0 LINE"
);
}
);
width = 277;
}
);
leftKerningGroup = v;
note = v;
rightKerningGroup = v;
unicode = 0076;
},
{
glyphname = w;
lastChange = "2021-12-01 09:12:49 +0000";
layers = (
{
anchors = (
{
name = bottom;
position = "{261, 0}";
},
{
name = top;
position = "{261, 495}";
}
);
layerId = "5E1A2ACF-25BB-4872-A226-5327BC7330DB";
paths = (
{
closed = 1;
nodes = (
"146 0 LINE",
"261 466 LINE",
"375 0 LINE",
"391 0 LINE",
"513 495 LINE",
"501 495 LINE",
"383 14 LINE",
"266 495 LINE",
"256 495 LINE",
"138 14 LINE",
"22 495 LINE",
"9 495 LINE",
"130 0 LINE"
);
}
);
width = 522;
}
);
leftKerningGroup = w;
leftMetricsKey = v;
note = w;
rightKerningGroup = w;
rightMetricsKey = v;
unicode = 0077;
},
{
glyphname = x;
lastChange = "2021-12-01 09:12:49 +0000";
layers = (
{
layerId = "5E1A2ACF-25BB-4872-A226-5327BC7330DB";
paths = (
{
closed = 1;
nodes = (
"23 0 LINE",
"52 88 OFFCURVE",
"92 173 OFFCURVE",
"120 257 CURVE",
"138 257 LINE",
"237 0 LINE",
"252 0 LINE",
"149 263 LINE",
"242 495 LINE",
"228 495 LINE",
"138 268 LINE",
"120 268 LINE",
"38 495 LINE",
"24 495 LINE",
"110 263 LINE",
"8 0 LINE"
);
}
);
width = 260;
}
);
note = x;
unicode = 0078;
},
{
glyphname = y;
lastChange = "2021-12-01 09:12:49 +0000";
layers = (
{
anchors = (
{
name = bottom;
position = "{195, 0}";
},
{
name = top;
position = "{140, 495}";
}
);
layerId = "5E1A2ACF-25BB-4872-A226-5327BC7330DB";
paths = (
{
closed = 1;
nodes = (
"104 -115 OFFCURVE",
"131 -69 OFFCURVE",
"148 0 CURVE SMOOTH",
"270 495 LINE",
"258 495 LINE",
"140 14 LINE",
"24 495 LINE",
"11 495 LINE",
"134 -9 LINE",
"120 -82 OFFCURVE",
"75 -106 OFFCURVE",
"44 -106 CURVE SMOOTH",
"21 -106 OFFCURVE",
"-2 -101 OFFCURVE",
"-5 -100 CURVE",
"-5 -109 LINE",
"-2 -110 OFFCURVE",
"24 -115 OFFCURVE",
"44 -115 CURVE SMOOTH"
);
}
);
width = 279;
}
);
leftKerningGroup = y;
note = y;
rightKerningGroup = v;
rightMetricsKey = v;
unicode = 0079;
},
{
glyphname = z;
lastChange = "2021-12-01 09:12:49 +0000";
layers = (
{
anchors = (
{
name = bottom;
position = "{115, 0}";
},
{
name = center;
position = "{115, 248}";
},
{
name = top;
position = "{115, 495}";
}
);
layerId = "5E1A2ACF-25BB-4872-A226-5327BC7330DB";
paths = (
{
closed = 1;
nodes = (
"14 0 LINE",
"215 0 LINE",
"215 10 LINE",
"28 10 LINE",
"215 489 LINE",
"215 495 LINE",
"22 495 LINE",
"22 485 LINE",
"201 485 LINE",
"14 6 LINE"
);
}
);
width = 230;
}
);
leftKerningGroup = z;
note = z;
rightKerningGroup = z;
unicode = 007A;
},
{
color = 6;
glyphname = f_f;
lastChange = "2021-11-24 17:22:35 +0000";
layers = (
{
layerId = "5E1A2ACF-25BB-4872-A226-5327BC7330DB";
paths = (
{
closed = 1;
nodes = (
"92 0 LINE",
"92 461 LINE",
"288 461 LINE",
"288 0 LINE",
"299 0 LINE",
"299 461 LINE",
"417 461 LINE",
"417 471 LINE",
"299 471 LINE",
"299 552 LINE SMOOTH",
"299 587 OFFCURVE",
"310 627 OFFCURVE",
"357 627 CURVE SMOOTH",
"374 627 OFFCURVE",
"389 626 OFFCURVE",
"400 625 CURVE SMOOTH",
"417 623 LINE",
"417 632 LINE",
"404 635 OFFCURVE",
"383 636 OFFCURVE",
"358 636 CURVE SMOOTH",
"306 636 OFFCURVE",
"288 603 OFFCURVE",
"288 547 CURVE SMOOTH",
"288 471 LINE",
"92 471 LINE",
"92 552 LINE SMOOTH",
"92 587 OFFCURVE",
"103 627 OFFCURVE",
"150 627 CURVE SMOOTH",
"197 627 OFFCURVE",
"235 625 OFFCURVE",
"272 617 CURVE",
"276 625 LINE",
"244 632 OFFCURVE",
"194 636 OFFCURVE",
"151 636 CURVE SMOOTH",
"99 636 OFFCURVE",
"81 603 OFFCURVE",
"81 547 CURVE SMOOTH",
"81 471 LINE",
"50 471 LINE",
"50 461 LINE",
"81 461 LINE",
"81 0 LINE"
);
}
);
width = 489;
}
);
note = f_f;
},
{
color = 6;
glyphname = f_f_i;
lastChange = "2021-11-24 17:22:35 +0000";
layers = (
{
layerId = "5E1A2ACF-25BB-4872-A226-5327BC7330DB";
paths = (
{
closed = 1;
nodes = (
"92 0 LINE",
"92 461 LINE",
"292 461 LINE",
"292 0 LINE",
"303 0 LINE",
"303 461 LINE",
"499 461 LINE",
"499 0 LINE",
"510 0 LINE",
"510 471 LINE",
"303 471 LINE",
"303 552 LINE SMOOTH",
"303 587 OFFCURVE",
"314 627 OFFCURVE",
"361 627 CURVE SMOOTH",
"414 627 OFFCURVE",
"469 618 OFFCURVE",
"506 610 CURVE",
"511 617 LINE",
"485 625 OFFCURVE",
"411 636 OFFCURVE",
"362 636 CURVE SMOOTH",
"310 636 OFFCURVE",
"292 603 OFFCURVE",
"292 547 CURVE SMOOTH",
"292 471 LINE",
"92 471 LINE",
"92 552 LINE SMOOTH",
"92 587 OFFCURVE",
"103 627 OFFCURVE",
"150 627 CURVE SMOOTH",
"197 627 OFFCURVE",
"235 625 OFFCURVE",
"272 617 CURVE",
"276 625 LINE",
"244 632 OFFCURVE",
"194 636 OFFCURVE",
"151 636 CURVE SMOOTH",
"99 636 OFFCURVE",
"81 603 OFFCURVE",
"81 547 CURVE SMOOTH",
"81 471 LINE",
"50 471 LINE",
"50 461 LINE",
"81 461 LINE",
"81 0 LINE"
);
}
);
width = 576;
}
);
note = f_f_i;
},
{
color = 6;
glyphname = f_f_l;
lastChange = "2021-11-24 17:22:35 +0000";
layers = (
{
layerId = "5E1A2ACF-25BB-4872-A226-5327BC7330DB";
paths = (
{
closed = 1;
nodes = (
"92 0 LINE",
"92 461 LINE",
"292 461 LINE",
"292 0 LINE",
"303 0 LINE",
"303 461 LINE",
"421 461 LINE",
"421 471 LINE",
"303 471 LINE",
"303 552 LINE SMOOTH",
"303 587 OFFCURVE",
"314 627 OFFCURVE",
"361 627 CURVE SMOOTH",
"410 627 OFFCURVE",
"483 619 OFFCURVE",
"521 611 CURVE",
"521 0 LINE",
"532 0 LINE",
"532 617 LINE",
"505 625 OFFCURVE",
"410 636 OFFCURVE",
"362 636 CURVE SMOOTH",
"310 636 OFFCURVE",
"292 603 OFFCURVE",
"292 547 CURVE SMOOTH",
"292 471 LINE",
"92 471 LINE",
"92 552 LINE SMOOTH",
"92 587 OFFCURVE",
"103 627 OFFCURVE",
"150 627 CURVE SMOOTH",
"197 627 OFFCURVE",
"235 625 OFFCURVE",
"272 617 CURVE",
"276 625 LINE",
"244 632 OFFCURVE",
"194 636 OFFCURVE",
"151 636 CURVE SMOOTH",
"99 636 OFFCURVE",
"81 603 OFFCURVE",
"81 547 CURVE SMOOTH",
"81 471 LINE",
"50 471 LINE",
"50 461 LINE",
"81 461 LINE",
"81 0 LINE"
);
}
);
width = 595;
}
);
note = f_f_l;
},
{
color = 6;
glyphname = fi;
lastChange = "2021-11-24 17:22:35 +0000";
layers = (
{
layerId = "5E1A2ACF-25BB-4872-A226-5327BC7330DB";
paths = (
{
closed = 1;
nodes = (
"92 0 LINE",
"92 461 LINE",
"288 461 LINE",
"288 0 LINE",
"299 0 LINE",
"299 471 LINE",
"92 471 LINE",
"92 552 LINE SMOOTH",
"92 587 OFFCURVE",
"103 627 OFFCURVE",
"150 627 CURVE SMOOTH",
"203 627 OFFCURVE",
"258 618 OFFCURVE",
"295 610 CURVE",
"300 617 LINE",
"274 625 OFFCURVE",
"200 636 OFFCURVE",
"151 636 CURVE SMOOTH",
"99 636 OFFCURVE",
"81 603 OFFCURVE",
"81 547 CURVE SMOOTH",
"81 471 LINE",
"50 471 LINE",
"50 461 LINE",
"81 461 LINE",
"81 0 LINE"
);
}
);
width = 363;
}
);
note = fi;
unicode = FB01;
},
{
color = 6;
glyphname = fl;
lastChange = "2021-11-24 17:22:35 +0000";
layers = (
{
layerId = "5E1A2ACF-25BB-4872-A226-5327BC7330DB";
paths = (
{
closed = 1;
nodes = (
"92 0 LINE",
"92 461 LINE",
"232 461 LINE",
"232 471 LINE",
"92 471 LINE",
"92 552 LINE SMOOTH",
"92 587 OFFCURVE",
"103 627 OFFCURVE",
"150 627 CURVE SMOOTH",
"199 627 OFFCURVE",
"272 619 OFFCURVE",
"310 611 CURVE",
"310 0 LINE",
"321 0 LINE",
"321 617 LINE",
"294 625 OFFCURVE",
"199 636 OFFCURVE",
"151 636 CURVE SMOOTH",
"99 636 OFFCURVE",
"81 603 OFFCURVE",
"81 547 CURVE SMOOTH",
"81 471 LINE",
"50 471 LINE",
"50 461 LINE",
"81 461 LINE",
"81 0 LINE"
);
}
);
width = 371;
}
);
note = fl;
unicode = FB02;
},
{
color = 6;
glyphname = longs_t;
lastChange = "2021-11-24 17:22:35 +0000";
layers = (
{
layerId = "5E1A2ACF-25BB-4872-A226-5327BC7330DB";
paths = (
{
closed = 1;
nodes = (
"161 -147 OFFCURVE",
"179 -114 OFFCURVE",
"179 -58 CURVE SMOOTH",
"179 552 LINE SMOOTH",
"179 587 OFFCURVE",
"190 627 OFFCURVE",
"237 627 CURVE SMOOTH",
"267 627 OFFCURVE",
"344 622 OFFCURVE",
"360 619 CURVE",
"357 495 LINE",
"326 493 LINE",
"326 485 LINE",
"357 485 LINE",
"357 89 LINE SMOOTH",
"357 33 OFFCURVE",
"375 0 OFFCURVE",
"427 0 CURVE SMOOTH",
"452 0 OFFCURVE",
"473 1 OFFCURVE",
"486 4 CURVE",
"486 14 LINE",
"469 11 LINE SMOOTH",
"458 10 OFFCURVE",
"443 9 OFFCURVE",
"426 9 CURVE SMOOTH",
"386 9 OFFCURVE",
"368 49 OFFCURVE",
"368 84 CURVE SMOOTH",
"368 485 LINE",
"486 485 LINE",
"486 495 LINE",
"368 495 LINE",
"368 624 LINE",
"346 627 OFFCURVE",
"262 636 OFFCURVE",
"238 636 CURVE SMOOTH",
"186 636 OFFCURVE",
"168 603 OFFCURVE",
"168 547 CURVE SMOOTH",
"168 438 LINE",
"137 438 LINE",
"137 428 LINE",
"168 428 LINE",
"168 -63 LINE SMOOTH",
"168 -98 OFFCURVE",
"157 -138 OFFCURVE",
"110 -138 CURVE SMOOTH",
"93 -138 OFFCURVE",
"78 -137 OFFCURVE",
"67 -136 CURVE SMOOTH",
"50 -134 LINE",
"50 -143 LINE",
"63 -146 OFFCURVE",
"84 -147 OFFCURVE",
"109 -147 CURVE SMOOTH"
);
}
);
width = 536;
}
);
note = longs_t;
},
{
color = 6;
glyphname = s_t;
lastChange = "2021-11-24 17:22:35 +0000";
layers = (
{
layerId = "5E1A2ACF-25BB-4872-A226-5327BC7330DB";
paths = (
{
closed = 1;
nodes = (
"226 -6 OFFCURVE",
"283 19 OFFCURVE",
"283 96 CURVE SMOOTH",
"283 134 LINE SMOOTH",
"283 217 OFFCURVE",
"217 238 OFFCURVE",
"158 265 CURVE SMOOTH",
"106 287 OFFCURVE",
"60 311 OFFCURVE",
"60 372 CURVE SMOOTH",
"60 404 LINE SMOOTH",
"60 455 OFFCURVE",
"98 492 OFFCURVE",
"165 492 CURVE SMOOTH",
"232 492 OFFCURVE",
"273 465 OFFCURVE",
"273 401 CURVE SMOOTH",
"273 394 LINE",
"284 394 LINE",
"284 543 LINE SMOOTH",
"284 603 OFFCURVE",
"305 622 OFFCURVE",
"340 622 CURVE SMOOTH",
"367 622 OFFCURVE",
"405 606 OFFCURVE",
"416 600 CURVE",
"413 495 LINE",
"372 493 LINE",
"372 485 LINE",
"413 485 LINE",
"413 100 LINE SMOOTH",
"413 48 OFFCURVE",
"422 -1 OFFCURVE",
"485 -1 CURVE SMOOTH",
"500 -1 OFFCURVE",
"513 0 OFFCURVE",
"524 2 CURVE SMOOTH",
"542 5 LINE",
"542 14 LINE",
"524 11 LINE SMOOTH",
"513 10 OFFCURVE",
"498 9 OFFCURVE",
"485 9 CURVE SMOOTH",
"432 9 OFFCURVE",
"424 54 OFFCURVE",
"424 104 CURVE SMOOTH",
"424 485 LINE",
"542 485 LINE",
"542 495 LINE",
"424 495 LINE",
"424 606 LINE",
"408 614 OFFCURVE",
"370 630 OFFCURVE",
"341 630 CURVE SMOOTH",
"309 630 OFFCURVE",
"273 618 OFFCURVE",
"273 541 CURVE SMOOTH",
"273 451 LINE",
"254 486 OFFCURVE",
"214 502 OFFCURVE",
"165 502 CURVE SMOOTH",
"94 502 OFFCURVE",
"49 460 OFFCURVE",
"49 404 CURVE SMOOTH",
"49 370 LINE SMOOTH",
"49 304 OFFCURVE",
"105 275 OFFCURVE",
"156 254 CURVE SMOOTH",
"211 230 OFFCURVE",
"272 209 OFFCURVE",
"272 134 CURVE SMOOTH",
"272 96 LINE SMOOTH",
"272 28 OFFCURVE",
"226 4 OFFCURVE",
"163 4 CURVE SMOOTH",
"98 4 OFFCURVE",
"56 34 OFFCURVE",
"56 99 CURVE SMOOTH",
"56 166 LINE",
"45 166 LINE",
"45 99 LINE SMOOTH",
"45 26 OFFCURVE",
"94 -6 OFFCURVE",
"163 -6 CURVE SMOOTH"
);
}
);
width = 607;
}
);
note = s_t;
},
{
color = 6;
glyphname = t_i;
lastChange = "2021-11-24 17:22:35 +0000";
layers = (
{
layerId = "5E1A2ACF-25BB-4872-A226-5327BC7330DB";
paths = (
{
closed = 1;
nodes = (
"178 -1 OFFCURVE",
"191 0 OFFCURVE",
"202 2 CURVE SMOOTH",
"220 5 LINE",
"220 14 LINE",
"202 11 LINE SMOOTH",
"191 10 OFFCURVE",
"176 9 OFFCURVE",
"163 9 CURVE SMOOTH",
"110 9 OFFCURVE",
"102 54 OFFCURVE",
"102 104 CURVE SMOOTH",
"102 485 LINE",
"315 485 LINE",
"315 0 LINE",
"326 0 LINE",
"326 495 LINE",
"102 495 LINE",
"102 591 LINE",
"94 591 LINE",
"91 495 LINE",
"50 493 LINE",
"50 485 LINE",
"91 485 LINE",
"91 100 LINE SMOOTH",
"91 48 OFFCURVE",
"100 -1 OFFCURVE",
"163 -1 CURVE SMOOTH"
);
},
{
closed = 1;
nodes = (
"330 619 OFFCURVE",
"334 623 OFFCURVE",
"334 631 CURVE SMOOTH",
"334 639 OFFCURVE",
"330 643 OFFCURVE",
"321 643 CURVE SMOOTH",
"312 643 OFFCURVE",
"308 639 OFFCURVE",
"308 631 CURVE SMOOTH",
"308 623 OFFCURVE",
"312 619 OFFCURVE",
"321 619 CURVE SMOOTH"
);
}
);
width = 396;
}
);
note = t_i;
rightKerningGroup = lslash;
},
{
color = 6;
glyphname = t_u;
lastChange = "2021-11-24 17:22:35 +0000";
layers = (
{
layerId = "5E1A2ACF-25BB-4872-A226-5327BC7330DB";
paths = (
{
closed = 1;
nodes = (
"485 -8 OFFCURVE",
"516 19 OFFCURVE",
"531 50 CURVE",
"534 0 LINE",
"543 0 LINE",
"543 495 LINE",
"531 495 LINE",
"531 78 LINE",
"526 43 OFFCURVE",
"495 2 OFFCURVE",
"422 2 CURVE SMOOTH",
"318 2 OFFCURVE",
"315 67 OFFCURVE",
"315 126 CURVE SMOOTH",
"315 495 LINE",
"102 495 LINE",
"102 591 LINE",
"94 591 LINE",
"91 495 LINE",
"50 493 LINE",
"50 485 LINE",
"91 485 LINE",
"91 100 LINE SMOOTH",
"91 48 OFFCURVE",
"100 -1 OFFCURVE",
"163 -1 CURVE SMOOTH",
"178 -1 OFFCURVE",
"191 0 OFFCURVE",
"202 2 CURVE SMOOTH",
"220 5 LINE",
"220 14 LINE",
"202 11 LINE SMOOTH",
"191 10 OFFCURVE",
"176 9 OFFCURVE",
"163 9 CURVE SMOOTH",
"110 9 OFFCURVE",
"102 54 OFFCURVE",
"102 104 CURVE SMOOTH",
"102 485 LINE",
"303 485 LINE",
"303 123 LINE SMOOTH",
"303 61 OFFCURVE",
"309 -8 OFFCURVE",
"422 -8 CURVE SMOOTH"
);
}
);
width = 593;
}
);
note = t_u;
rightKerningGroup = lslash;
},
{
color = 6;
glyphname = ordfeminine;
lastChange = "2021-11-24 17:22:35 +0000";
layers = (
{
layerId = "5E1A2ACF-25BB-4872-A226-5327BC7330DB";
paths = (
{
closed = 1;
nodes = (
"137 287 OFFCURVE",
"160 297 OFFCURVE",
"175 328 CURVE",
"181 344 LINE",
"181 292 LINE",
"191 292 LINE",
"191 509 LINE SMOOTH",
"191 569 OFFCURVE",
"188 595 OFFCURVE",
"127 595 CURVE SMOOTH",
"56 595 OFFCURVE",
"56 557 OFFCURVE",
"56 513 CURVE SMOOTH",
"56 493 LINE",
"68 493 LINE",
"68 514 LINE SMOOTH",
"68 571 OFFCURVE",
"83 585 OFFCURVE",
"127 585 CURVE SMOOTH",
"183 585 OFFCURVE",
"181 551 OFFCURVE",
"181 530 CURVE SMOOTH",
"181 524 LINE SMOOTH",
"181 496 OFFCURVE",
"158 479 OFFCURVE",
"127 466 CURVE SMOOTH",
"88 450 OFFCURVE",
"50 439 OFFCURVE",
"50 386 CURVE SMOOTH",
"50 358 LINE SMOOTH",
"50 290 OFFCURVE",
"86 287 OFFCURVE",
"110 287 CURVE SMOOTH"
);
},
{
closed = 1;
nodes = (
"79 298 OFFCURVE",
"62 311 OFFCURVE",
"62 368 CURVE SMOOTH",
"62 387 LINE SMOOTH",
"62 437 OFFCURVE",
"106 446 OFFCURVE",
"128 454 CURVE SMOOTH",
"161 467 OFFCURVE",
"174 481 OFFCURVE",
"181 493 CURVE",
"181 383 LINE SMOOTH",
"181 346 OFFCURVE",
"156 298 OFFCURVE",
"110 298 CURVE SMOOTH"
);
}
);
width = 242;
}
);
note = ordfeminine;
unicode = 00AA;
},
{
color = 6;
glyphname = ordmasculine;
lastChange = "2021-11-24 17:22:35 +0000";
layers = (
{
layerId = "5E1A2ACF-25BB-4872-A226-5327BC7330DB";
paths = (
{
closed = 1;
nodes = (
"177 293 OFFCURVE",
"193 310 OFFCURVE",
"193 370 CURVE SMOOTH",
"193 529 LINE SMOOTH",
"193 585 OFFCURVE",
"175 601 OFFCURVE",
"122 601 CURVE SMOOTH",
"67 601 OFFCURVE",
"50 585 OFFCURVE",
"50 529 CURVE SMOOTH",
"50 370 LINE SMOOTH",
"50 310 OFFCURVE",
"67 293 OFFCURVE",
"122 293 CURVE SMOOTH"
);
},
{
closed = 1;
nodes = (
"73 304 OFFCURVE",
"62 321 OFFCURVE",
"62 370 CURVE SMOOTH",
"62 529 LINE SMOOTH",
"62 572 OFFCURVE",
"74 592 OFFCURVE",
"122 592 CURVE SMOOTH",
"170 592 OFFCURVE",
"181 572 OFFCURVE",
"181 529 CURVE SMOOTH",
"181 370 LINE SMOOTH",
"181 321 OFFCURVE",
"169 304 OFFCURVE",
"121 304 CURVE SMOOTH"
);
}
);
width = 240;
}
);
note = ordmasculine;
unicode = 00BA;
},
{
color = 6;
glyphname = "A-cy";
lastChange = "2021-11-24 17:22:35 +0000";
layers = (
{
layerId = "5E1A2ACF-25BB-4872-A226-5327BC7330DB";
paths = (
{
closed = 1;
nodes = (
"62 0 LINE",
"103 162 LINE",
"311 162 LINE",
"353 0 LINE",
"365 0 LINE",
"214 591 LINE",
"201 591 LINE",
"50 0 LINE"
);
},
{
closed = 1;
nodes = (
"106 173 LINE",
"199 534 LINE",
"207 572 LINE",
"217 532 LINE",
"308 173 LINE"
);
}
);
width = 419;
}
);
note = uni0410;
unicode = 0410;
},
{
color = 6;
glyphname = "Be-cy";
lastChange = "2021-11-24 17:22:35 +0000";
layers = (
{
layerId = "5E1A2ACF-25BB-4872-A226-5327BC7330DB";
paths = (
{
closed = 1;
nodes = (
"170 0 LINE SMOOTH",
"283 0 OFFCURVE",
"289 69 OFFCURVE",
"289 131 CURVE SMOOTH",
"289 304 LINE SMOOTH",
"289 365 OFFCURVE",
"283 435 OFFCURVE",
"170 435 CURVE SMOOTH",
"61 435 LINE",
"61 580 LINE",
"291 580 LINE",
"291 591 LINE",
"50 591 LINE",
"50 0 LINE"
);
},
{
closed = 1;
nodes = (
"61 425 LINE",
"170 425 LINE SMOOTH",
"273 425 OFFCURVE",
"278 360 OFFCURVE",
"278 301 CURVE SMOOTH",
"278 134 LINE SMOOTH",
"278 75 OFFCURVE",
"273 10 OFFCURVE",
"170 10 CURVE SMOOTH",
"61 10 LINE"
);
}
);
width = 352;
}
);
note = uni0411;
unicode = 0411;
},
{
color = 6;
glyphname = "Ve-cy";
lastChange = "2021-11-24 17:22:35 +0000";
layers = (
{
layerId = "5E1A2ACF-25BB-4872-A226-5327BC7330DB";
paths = (
{
closed = 1;
nodes = (
"202 0 LINE SMOOTH",
"275 0 OFFCURVE",
"323 16 OFFCURVE",
"323 120 CURVE SMOOTH",
"323 209 LINE SMOOTH",
"323 269 OFFCURVE",
"290 312 OFFCURVE",
"230 312 CURVE",
"286 321 OFFCURVE",
"318 363 OFFCURVE",
"318 419 CURVE SMOOTH",
"318 494 LINE SMOOTH",
"318 566 OFFCURVE",
"270 591 OFFCURVE",
"211 591 CURVE SMOOTH",
"50 591 LINE",
"50 0 LINE"
);
},
{
closed = 1;
nodes = (
"62 306 LINE",
"195 306 LINE SMOOTH",
"259 306 OFFCURVE",
"311 287 OFFCURVE",
"311 214 CURVE SMOOTH",
"311 125 LINE SMOOTH",
"311 26 OFFCURVE",
"269 11 OFFCURVE",
"199 11 CURVE SMOOTH",
"62 11 LINE"
);
},
{
closed = 1;
nodes = (
"62 580 LINE",
"211 580 LINE SMOOTH",
"266 580 OFFCURVE",
"306 553 OFFCURVE",
"306 496 CURVE SMOOTH",
"306 420 LINE SMOOTH",
"306 355 OFFCURVE",
"267 317 OFFCURVE",
"190 317 CURVE SMOOTH",
"62 317 LINE"
);
}
);
width = 376;
}
);
note = uni0412;
unicode = 0412;
},
{
color = 6;
glyphname = "Ge-cy";
lastChange = "2021-11-24 17:22:35 +0000";
layers = (
{
layerId = "5E1A2ACF-25BB-4872-A226-5327BC7330DB";
paths = (
{
closed = 1;
nodes = (
"62 0 LINE",
"62 580 LINE",
"291 580 LINE",
"291 591 LINE",
"50 591 LINE",
"50 0 LINE"
);
}
);
width = 314;
}
);
note = uni0413;
unicode = 0413;
},
{
color = 6;
glyphname = "Gje-cy";
lastChange = "2021-11-24 17:22:35 +0000";
layers = (
{
layerId = "5E1A2ACF-25BB-4872-A226-5327BC7330DB";
paths = (
{
closed = 1;
nodes = (
"62 0 LINE",
"62 580 LINE",
"281 580 LINE",
"281 591 LINE",
"50 591 LINE",
"50 0 LINE"
);
},
{
closed = 1;
nodes = (
"136 651 LINE",
"209 737 LINE",
"187 737 LINE",
"125 651 LINE"
);
}
);
width = 338;
}
);
note = uni0403;
unicode = 0403;
},
{
color = 6;
glyphname = "De-cy";
lastChange = "2021-11-24 17:22:35 +0000";
layers = (
{
layerId = "5E1A2ACF-25BB-4872-A226-5327BC7330DB";
paths = (
{
closed = 1;
nodes = (
"21 -99 LINE",
"21 0 LINE",
"403 0 LINE",
"403 -99 LINE",
"414 -99 LINE",
"414 11 LINE",
"341 11 LINE",
"341 591 LINE",
"141 591 LINE",
"106 92 LINE SMOOTH",
"102 40 OFFCURVE",
"88 13 OFFCURVE",
"65 11 CURVE",
"10 11 LINE",
"10 -99 LINE"
);
},
{
closed = 1;
nodes = (
"114 32 OFFCURVE",
"118 80 OFFCURVE",
"118 92 CURVE SMOOTH",
"153 580 LINE",
"329 580 LINE",
"329 11 LINE",
"90 11 LINE"
);
}
);
width = 479;
}
);
note = uni0414;
unicode = 0414;
},
{
color = 6;
glyphname = "Ie-cy";
lastChange = "2021-12-01 09:24:32 +0000";
layers = (
{
anchors = (
{
name = top;
position = "{172, 591}";
}
);
layerId = "5E1A2ACF-25BB-4872-A226-5327BC7330DB";
paths = (
{
closed = 1;
nodes = (
"291 0 LINE",
"291 11 LINE",
"62 11 LINE",
"62 306 LINE",
"240 306 LINE",
"240 317 LINE",
"62 317 LINE",
"62 580 LINE",
"291 580 LINE",
"291 591 LINE",
"50 591 LINE",
"50 0 LINE"
);
}
);
width = 344;
}
);
note = uni0415;
unicode = 0415;
},
{
color = 6;
glyphname = "Io-cy";
lastChange = "2021-11-24 17:22:35 +0000";
layers = (
{
layerId = "5E1A2ACF-25BB-4872-A226-5327BC7330DB";
paths = (
{
closed = 1;
nodes = (
"291 0 LINE",
"291 11 LINE",
"62 11 LINE",
"62 306 LINE",
"240 306 LINE",
"240 317 LINE",
"62 317 LINE",
"62 580 LINE",
"291 580 LINE",
"291 591 LINE",
"50 591 LINE",
"50 0 LINE"
);
},
{
closed = 1;
nodes = (
"130 676 OFFCURVE",
"135 681 OFFCURVE",
"135 692 CURVE SMOOTH",
"135 703 OFFCURVE",
"130 708 OFFCURVE",
"119 708 CURVE SMOOTH",
"108 708 OFFCURVE",
"103 703 OFFCURVE",
"103 692 CURVE SMOOTH",
"103 681 OFFCURVE",
"108 676 OFFCURVE",
"119 676 CURVE SMOOTH"
);
},
{
closed = 1;
nodes = (
"226 676 OFFCURVE",
"231 681 OFFCURVE",
"231 692 CURVE SMOOTH",
"231 703 OFFCURVE",
"226 708 OFFCURVE",
"215 708 CURVE SMOOTH",
"204 708 OFFCURVE",
"199 703 OFFCURVE",
"199 692 CURVE SMOOTH",
"199 681 OFFCURVE",
"204 676 OFFCURVE",
"215 676 CURVE SMOOTH"
);
}
);
width = 344;
}
);
note = uni0401;
unicode = 0401;
},
{
color = 6;
glyphname = "Zhe-cy";
lastChange = "2021-11-24 17:22:35 +0000";
layers = (
{
layerId = "5E1A2ACF-25BB-4872-A226-5327BC7330DB";
paths = (
{
closed = 1;
nodes = (
"65 0 LINE",
"246 299 LINE",
"279 299 LINE",
"279 0 LINE",
"291 0 LINE",
"291 299 LINE",
"324 299 LINE",
"505 0 LINE",
"520 0 LINE",
"334 306 LINE",
"515 591 LINE",
"501 591 LINE",
"322 310 LINE",
"291 310 LINE",
"291 591 LINE",
"279 591 LINE",
"279 310 LINE",
"247 310 LINE",
"69 591 LINE",
"55 591 LINE",
"236 306 LINE",
"50 0 LINE"
);
}
);
width = 584;
}
);
note = uni0416;
unicode = 0416;
},
{
color = 6;
glyphname = "Ze-cy";
lastChange = "2021-11-24 17:22:35 +0000";
layers = (
{
layerId = "5E1A2ACF-25BB-4872-A226-5327BC7330DB";
paths = (
{
closed = 1;
nodes = (
"232 -8 OFFCURVE",
"260 3 OFFCURVE",
"283 19 CURVE SMOOTH",
"319 46 OFFCURVE",
"332 88 OFFCURVE",
"332 137 CURVE SMOOTH",
"332 163 LINE SMOOTH",
"332 232 OFFCURVE",
"301 298 OFFCURVE",
"221 309 CURVE",
"285 321 OFFCURVE",
"326 373 OFFCURVE",
"326 442 CURVE SMOOTH",
"326 460 LINE SMOOTH",
"326 543 OFFCURVE",
"280 595 OFFCURVE",
"191 595 CURVE SMOOTH",
"102 595 OFFCURVE",
"56 543 OFFCURVE",
"56 460 CURVE SMOOTH",
"56 429 LINE",
"69 429 LINE",
"69 459 LINE SMOOTH",
"69 534 OFFCURVE",
"107 584 OFFCURVE",
"191 584 CURVE SMOOTH",
"275 584 OFFCURVE",
"313 534 OFFCURVE",
"313 459 CURVE SMOOTH",
"313 440 LINE SMOOTH",
"313 370 OFFCURVE",
"263 315 OFFCURVE",
"191 315 CURVE SMOOTH",
"127 315 LINE",
"127 303 LINE",
"191 303 LINE SMOOTH",
"274 303 OFFCURVE",
"320 247 OFFCURVE",
"320 163 CURVE SMOOTH",
"320 137 LINE SMOOTH",
"320 86 OFFCURVE",
"305 49 OFFCURVE",
"275 27 CURVE SMOOTH",
"254 12 OFFCURVE",
"226 3 OFFCURVE",
"191 2 CURVE SMOOTH",
"156 3 OFFCURVE",
"128 12 OFFCURVE",
"107 27 CURVE SMOOTH",
"77 49 OFFCURVE",
"62 86 OFFCURVE",
"62 137 CURVE SMOOTH",
"62 183 LINE",
"50 183 LINE",
"50 137 LINE SMOOTH",
"50 88 OFFCURVE",
"63 46 OFFCURVE",
"99 19 CURVE SMOOTH",
"122 3 OFFCURVE",
"150 -8 OFFCURVE",
"191 -8 CURVE SMOOTH"
);
}
);
width = 387;
}
);
note = uni0417;
unicode = 0417;
},
{
color = 6;
glyphname = "Ii-cy";
lastChange = "2021-11-24 17:22:35 +0000";
layers = (
{
layerId = "5E1A2ACF-25BB-4872-A226-5327BC7330DB";
paths = (
{
closed = 1;
nodes = (
"66 0 LINE",
"311 564 LINE",
"311 0 LINE",
"323 0 LINE",
"323 591 LINE",
"309 591 LINE",
"61 17 LINE",
"61 591 LINE",
"50 591 LINE",
"50 0 LINE"
);
}
);
width = 377;
}
);
note = uni0418;
unicode = 0418;
},
{
color = 6;
glyphname = "Iishort-cy";
lastChange = "2021-11-24 17:22:35 +0000";
layers = (
{
layerId = "5E1A2ACF-25BB-4872-A226-5327BC7330DB";
paths = (
{
closed = 1;
nodes = (
"66 0 LINE",
"311 564 LINE",
"311 0 LINE",
"323 0 LINE",
"323 591 LINE",
"309 591 LINE",
"61 17 LINE",
"61 591 LINE",
"50 591 LINE",
"50 0 LINE"
);
},
{
closed = 1;
nodes = (
"255 645 OFFCURVE",
"272 689 OFFCURVE",
"278 722 CURVE",
"267 722 LINE",
"260 674 OFFCURVE",
"229 653 OFFCURVE",
"189 653 CURVE SMOOTH",
"149 653 OFFCURVE",
"118 674 OFFCURVE",
"111 722 CURVE",
"100 722 LINE",
"106 689 OFFCURVE",
"125 645 OFFCURVE",
"189 645 CURVE SMOOTH"
);
}
);
width = 376;
}
);
note = uni0419;
unicode = 0419;
},
{
glyphname = "Iigrave-cy";
lastChange = "2021-11-24 01:11:57 +0000";
layers = (
{
associatedMasterId = "5E1A2ACF-25BB-4872-A226-5327BC7330DB";
background = {
components = (
{
name = breve;
transform = "{1, 0, 0, 1, 3, 0}";
}
);
paths = (
{
closed = 1;
nodes = (
"149 0 LINE",
"177 85 OFFCURVE",
"204 170 OFFCURVE",
"232 255 CURVE",
"232 0 LINE",
"368 0 LINE",
"368 495 LINE",
"233 495 LINE",
"161 278 LINE",
"161 495 LINE",
"25 495 LINE",
"25 0 LINE"
);
}
);
};
components = (
{
name = "Ii-cy";
},
{
name = gravecomb.case;
transform = "{1, 0, 0, 1, 52, 0}";
}
);
layerId = "8A3706BD-364F-4FE3-9C2E-7E87DF0DB4CC";
name = Black;
width = 377;
},
{
components = (
{
name = gravecomb.case;
transform = "{1, 0, 0, 1, 113, 0}";
},
{
name = N;
}
);
layerId = "5E1A2ACF-25BB-4872-A226-5327BC7330DB";
width = 378;
}
);
leftKerningGroup = uni0431;
note = uni0439;
unicode = 040D;
},
{
color = 6;
glyphname = "Ka-cy";
lastChange = "2021-11-24 17:22:35 +0000";
layers = (
{
layerId = "5E1A2ACF-25BB-4872-A226-5327BC7330DB";
paths = (
{
closed = 1;
nodes = (
"62 0 LINE",
"62 299 LINE",
"95 299 LINE",
"276 0 LINE",
"291 0 LINE",
"105 306 LINE",
"286 591 LINE",
"272 591 LINE",
"93 310 LINE",
"62 310 LINE",
"62 591 LINE",
"50 591 LINE",
"50 0 LINE"
);
}
);
width = 317;
}
);
note = uni041A;
unicode = 041A;
},
{
color = 6;
glyphname = "Kje-cy";
lastChange = "2021-11-24 17:22:35 +0000";
layers = (
{
layerId = "5E1A2ACF-25BB-4872-A226-5327BC7330DB";
paths = (
{
closed = 1;
nodes = (
"291 0 LINE",
"105 306 LINE",
"286 591 LINE",
"272 591 LINE",
"91 306 LINE",
"276 0 LINE"
);
},
{
closed = 1;
nodes = (
"62 0 LINE",
"62 591 LINE",
"50 591 LINE",
"50 0 LINE"
);
},
{
closed = 1;
nodes = (
"136 648 LINE",
"209 734 LINE",
"187 734 LINE",
"125 648 LINE"
);
}
);
width = 350;
}
);
note = uni040C;
unicode = 040C;
},
{
color = 6;
glyphname = "El-cy";
lastChange = "2021-11-24 17:22:35 +0000";
layers = (
{
layerId = "5E1A2ACF-25BB-4872-A226-5327BC7330DB";
paths = (
{
closed = 1;
nodes = (
"61 0 OFFCURVE",
"67 77 OFFCURVE",
"67 92 CURVE",
"102 580 LINE",
"278 580 LINE",
"278 1 LINE",
"290 1 LINE",
"290 591 LINE",
"90 591 LINE",
"55 92 LINE SMOOTH",
"51 36 OFFCURVE",
"37 11 OFFCURVE",
"10 11 CURVE",
"10 0 LINE"
);
}
);
width = 346;
}
);
note = uni041B;
unicode = 041B;
},
{
color = 6;
glyphname = "Em-cy";
lastChange = "2021-11-24 17:22:35 +0000";
layers = (
{
layerId = "5E1A2ACF-25BB-4872-A226-5327BC7330DB";
paths = (
{
closed = 1;
nodes = (
"62 0 LINE",
"62 537 LINE",
"226 0 LINE",
"240 0 LINE",
"283 148 OFFCURVE",
"340 324 OFFCURVE",
"404 537 CURVE",
"404 0 LINE",
"416 0 LINE",
"416 591 LINE",
"408 591 LINE",
"233 16 LINE",
"59 591 LINE",
"50 591 LINE",
"50 0 LINE"
);
}
);
width = 468;
}
);
note = uni041C;
unicode = 041C;
},
{
color = 6;
glyphname = "En-cy";
lastChange = "2021-11-24 17:22:35 +0000";
layers = (
{
layerId = "5E1A2ACF-25BB-4872-A226-5327BC7330DB";
paths = (
{
closed = 1;
nodes = (
"62 0 LINE",
"62 306 LINE",
"311 306 LINE",
"311 0 LINE",
"323 0 LINE",
"323 591 LINE",
"311 591 LINE",
"311 317 LINE",
"62 317 LINE",
"62 591 LINE",
"50 591 LINE",
"50 0 LINE"
);
}
);
width = 376;
}
);
note = uni041D;
unicode = 041D;
},
{
color = 6;
glyphname = "O-cy";
lastChange = "2021-11-24 17:22:35 +0000";
layers = (
{
layerId = "5E1A2ACF-25BB-4872-A226-5327BC7330DB";
paths = (
{
closed = 1;
nodes = (
"265 -12 OFFCURVE",
"323 2 OFFCURVE",
"323 118 CURVE SMOOTH",
"323 469 LINE SMOOTH",
"323 583 OFFCURVE",
"264 599 OFFCURVE",
"187 599 CURVE SMOOTH",
"110 599 OFFCURVE",
"50 585 OFFCURVE",
"50 469 CURVE SMOOTH",
"50 118 LINE SMOOTH",
"50 4 OFFCURVE",
"109 -12 OFFCURVE",
"185 -12 CURVE SMOOTH"
);
},
{
closed = 1;
nodes = (
"117 -2 OFFCURVE",
"62 11 OFFCURVE",
"62 115 CURVE SMOOTH",
"62 472 LINE SMOOTH",
"62 576 OFFCURVE",
"117 589 OFFCURVE",
"186 589 CURVE SMOOTH",
"254 589 OFFCURVE",
"311 576 OFFCURVE",
"311 472 CURVE SMOOTH",
"311 115 LINE SMOOTH",
"311 11 OFFCURVE",
"256 -2 OFFCURVE",
"186 -2 CURVE SMOOTH"
);
}
);
width = 377;
}
);
note = uni041E;
unicode = 041E;
},
{
color = 6;
glyphname = "Pe-cy";
lastChange = "2021-11-24 17:22:35 +0000";
layers = (
{
layerId = "5E1A2ACF-25BB-4872-A226-5327BC7330DB";
paths = (
{
closed = 1;
nodes = (
"62 0 LINE",
"62 580 LINE",
"279 580 LINE",
"279 0 LINE",
"291 0 LINE",
"291 591 LINE",
"50 591 LINE",
"50 0 LINE"
);
}
);
width = 355;
}
);
note = uni041F;
unicode = 041F;
},
{
color = 6;
glyphname = "Er-cy";
lastChange = "2021-11-24 17:22:35 +0000";
layers = (
{
layerId = "5E1A2ACF-25BB-4872-A226-5327BC7330DB";
paths = (
{
closed = 1;
nodes = (
"62 0 LINE",
"62 271 LINE",
"173 271 LINE SMOOTH",
"295 271 OFFCURVE",
"318 313 OFFCURVE",
"318 418 CURVE SMOOTH",
"318 494 LINE SMOOTH",
"318 569 OFFCURVE",
"278 591 OFFCURVE",
"198 591 CURVE SMOOTH",
"50 591 LINE",
"50 0 LINE"
);
},
{
closed = 1;
nodes = (
"62 282 LINE",
"62 580 LINE",
"197 580 LINE SMOOTH",
"282 580 OFFCURVE",
"306 556 OFFCURVE",
"306 476 CURVE SMOOTH",
"306 417 LINE SMOOTH",
"306 315 OFFCURVE",
"282 282 OFFCURVE",
"173 282 CURVE SMOOTH"
);
}
);
width = 372;
}
);
note = uni0420;
unicode = 0420;
},
{
color = 6;
glyphname = "Es-cy";
lastChange = "2021-11-24 17:22:35 +0000";
layers = (
{
layerId = "5E1A2ACF-25BB-4872-A226-5327BC7330DB";
paths = (
{
closed = 1;
nodes = (
"265 -12 OFFCURVE",
"323 2 OFFCURVE",
"323 118 CURVE SMOOTH",
"323 189 LINE",
"311 189 LINE",
"311 116 LINE SMOOTH",
"311 12 OFFCURVE",
"256 -3 OFFCURVE",
"186 -3 CURVE SMOOTH",
"117 -3 OFFCURVE",
"62 12 OFFCURVE",
"62 116 CURVE SMOOTH",
"62 467 LINE SMOOTH",
"62 572 OFFCURVE",
"111 589 OFFCURVE",
"186 589 CURVE SMOOTH",
"261 589 OFFCURVE",
"311 574 OFFCURVE",
"311 473 CURVE SMOOTH",
"311 381 LINE",
"323 381 LINE",
"323 469 LINE SMOOTH",
"323 583 OFFCURVE",
"264 599 OFFCURVE",
"187 599 CURVE SMOOTH",
"110 599 OFFCURVE",
"50 585 OFFCURVE",
"50 469 CURVE SMOOTH",
"50 118 LINE SMOOTH",
"50 4 OFFCURVE",
"109 -12 OFFCURVE",
"185 -12 CURVE SMOOTH"
);
}
);
width = 377;
}
);
note = uni0421;
unicode = 0421;
},
{
color = 6;
glyphname = "Te-cy";
lastChange = "2021-11-24 17:22:35 +0000";
layers = (
{
layerId = "5E1A2ACF-25BB-4872-A226-5327BC7330DB";
paths = (
{
closed = 1;
nodes = (
"155 0 LINE",
"155 580 LINE",
"269 580 LINE",
"269 591 LINE",
"30 591 LINE",
"30 580 LINE",
"143 580 LINE",
"143 0 LINE"
);
}
);
width = 311;
}
);
note = uni0422;
unicode = 0422;
},
{
color = 6;
glyphname = "U-cy";
lastChange = "2021-11-24 17:22:35 +0000";
layers = (
{
layerId = "5E1A2ACF-25BB-4872-A226-5327BC7330DB";
paths = (
{
closed = 1;
nodes = (
"103 -3 OFFCURVE",
"130 43 OFFCURVE",
"147 112 CURVE SMOOTH",
"269 591 LINE",
"257 591 LINE",
"139 126 LINE",
"23 591 LINE",
"10 591 LINE",
"133 103 LINE",
"119 30 OFFCURVE",
"74 6 OFFCURVE",
"43 6 CURVE SMOOTH",
"31 6 OFFCURVE",
"20 8 OFFCURVE",
"11 9 CURVE",
"11 0 LINE",
"22 -1 OFFCURVE",
"32 -3 OFFCURVE",
"43 -3 CURVE SMOOTH"
);
}
);
width = 285;
}
);
note = uni0423;
unicode = 0423;
},
{
color = 6;
glyphname = "Ushort-cy";
lastChange = "2021-11-24 17:22:35 +0000";
layers = (
{
layerId = "5E1A2ACF-25BB-4872-A226-5327BC7330DB";
paths = (
{
closed = 1;
nodes = (
"143 -3 OFFCURVE",
"170 43 OFFCURVE",
"187 112 CURVE SMOOTH",
"309 591 LINE",
"297 591 LINE",
"179 126 LINE",
"63 591 LINE",
"50 591 LINE",
"173 103 LINE",
"159 30 OFFCURVE",
"114 6 OFFCURVE",
"83 6 CURVE SMOOTH",
"71 6 OFFCURVE",
"60 8 OFFCURVE",
"51 9 CURVE",
"51 0 LINE",
"62 -1 OFFCURVE",
"72 -3 OFFCURVE",
"83 -3 CURVE SMOOTH"
);
},
{
closed = 1;
nodes = (
"234 632 OFFCURVE",
"251 676 OFFCURVE",
"257 709 CURVE",
"246 709 LINE",
"239 661 OFFCURVE",
"208 640 OFFCURVE",
"168 640 CURVE SMOOTH",
"128 640 OFFCURVE",
"97 661 OFFCURVE",
"90 709 CURVE",
"79 709 LINE",
"85 676 OFFCURVE",
"104 632 OFFCURVE",
"168 632 CURVE SMOOTH"
);
}
);
width = 366;
}
);
note = uni040E;
unicode = 040E;
},
{
color = 6;
glyphname = "Ef-cy";
lastChange = "2021-11-24 17:22:35 +0000";
layers = (
{
layerId = "5E1A2ACF-25BB-4872-A226-5327BC7330DB";
paths = (
{
closed = 1;
nodes = (
"211 0 LINE",
"211 59 LINE",
"222 59 LINE SMOOTH",
"302 59 OFFCURVE",
"359 73 OFFCURVE",
"359 189 CURVE SMOOTH",
"359 403 LINE SMOOTH",
"359 517 OFFCURVE",
"300 533 OFFCURVE",
"223 533 CURVE SMOOTH",
"211 533 LINE",
"211 591 LINE",
"199 591 LINE",
"199 533 LINE",
"186 533 LINE SMOOTH",
"109 533 OFFCURVE",
"50 519 OFFCURVE",
"50 403 CURVE SMOOTH",
"50 189 LINE SMOOTH",
"50 75 OFFCURVE",
"109 59 OFFCURVE",
"185 59 CURVE SMOOTH",
"199 59 LINE",
"199 0 LINE"
);
},
{
closed = 1;
nodes = (
"116 69 OFFCURVE",
"62 83 OFFCURVE",
"62 186 CURVE SMOOTH",
"62 406 LINE SMOOTH",
"62 510 OFFCURVE",
"117 523 OFFCURVE",
"186 523 CURVE SMOOTH",
"199 523 LINE",
"199 69 LINE",
"184 69 LINE SMOOTH"
);
},
{
closed = 1;
nodes = (
"211 523 LINE",
"223 523 LINE SMOOTH",
"290 523 OFFCURVE",
"347 509 OFFCURVE",
"347 406 CURVE SMOOTH",
"347 186 LINE SMOOTH",
"347 82 OFFCURVE",
"292 69 OFFCURVE",
"222 69 CURVE SMOOTH",
"211 69 LINE"
);
}
);
width = 434;
}
);
note = uni0424;
unicode = 0424;
},
{
color = 6;
glyphname = "Ha-cy";
lastChange = "2021-11-24 17:22:35 +0000";
layers = (
{
layerId = "5E1A2ACF-25BB-4872-A226-5327BC7330DB";
paths = (
{
closed = 1;
nodes = (
"40 0 LINE",
"138 292 LINE",
"156 292 LINE",
"252 0 LINE",
"267 0 LINE",
"167 298 LINE",
"269 591 LINE",
"255 591 LINE",
"156 303 LINE",
"138 303 LINE",
"50 591 LINE",
"36 591 LINE",
"128 298 LINE",
"25 0 LINE"
);
}
);
width = 288;
}
);
note = uni0425;
unicode = 0425;
},
{
color = 6;
glyphname = "Che-cy";
lastChange = "2021-11-24 17:22:35 +0000";
layers = (
{
layerId = "5E1A2ACF-25BB-4872-A226-5327BC7330DB";
paths = (
{
closed = 1;
nodes = (
"253 0 LINE",
"265 0 LINE",
"265 591 LINE",
"253 591 LINE",
"253 187 LINE",
"242 176 OFFCURVE",
"216 146 OFFCURVE",
"144 146 CURVE SMOOTH",
"40 146 OFFCURVE",
"37 211 OFFCURVE",
"37 270 CURVE SMOOTH",
"37 591 LINE",
"25 591 LINE",
"25 267 LINE SMOOTH",
"25 205 OFFCURVE",
"31 136 OFFCURVE",
"144 136 CURVE SMOOTH",
"207 136 OFFCURVE",
"244 159 OFFCURVE",
"253 174 CURVE"
);
}
);
width = 326;
}
);
note = uni0427;
unicode = 0427;
},
{
color = 6;
glyphname = "Tse-cy";
lastChange = "2021-11-24 17:22:35 +0000";
layers = (
{
layerId = "5E1A2ACF-25BB-4872-A226-5327BC7330DB";
paths = (
{
closed = 1;
nodes = (
"302 -74 LINE",
"302 11 LINE",
"291 11 LINE",
"291 591 LINE",
"279 591 LINE",
"279 11 LINE",
"62 11 LINE",
"62 591 LINE",
"50 591 LINE",
"50 0 LINE",
"291 0 LINE",
"291 -74 LINE"
);
}
);
width = 367;
}
);
note = uni0426;
unicode = 0426;
},
{
color = 6;
glyphname = "Sha-cy";
lastChange = "2021-11-24 17:22:35 +0000";
layers = (
{
layerId = "5E1A2ACF-25BB-4872-A226-5327BC7330DB";
paths = (
{
closed = 1;
nodes = (
"520 0 LINE",
"520 591 LINE",
"508 591 LINE",
"508 11 LINE",
"291 11 LINE",
"291 591 LINE",
"279 591 LINE",
"279 11 LINE",
"62 11 LINE",
"62 591 LINE",
"50 591 LINE",
"50 0 LINE"
);
}
);
width = 582;
}
);
note = uni0428;
unicode = 0428;
},
{
color = 6;
glyphname = "Shcha-cy";
lastChange = "2021-11-24 17:22:35 +0000";
layers = (
{
layerId = "5E1A2ACF-25BB-4872-A226-5327BC7330DB";
paths = (
{
closed = 1;
nodes = (
"531 -74 LINE",
"531 11 LINE",
"520 11 LINE",
"520 591 LINE",
"508 591 LINE",
"508 11 LINE",
"291 11 LINE",
"291 591 LINE",
"279 591 LINE",
"279 11 LINE",
"62 11 LINE",
"62 591 LINE",
"50 591 LINE",
"50 0 LINE",
"520 0 LINE",
"520 -74 LINE"
);
}
);
width = 594;
}
);
note = uni0429;
unicode = 0429;
},
{
color = 6;
glyphname = "Dzhe-cy";
lastChange = "2021-11-24 17:22:35 +0000";
layers = (
{
layerId = "5E1A2ACF-25BB-4872-A226-5327BC7330DB";
paths = (
{
closed = 1;
nodes = (
"176 -99 LINE",
"176 0 LINE",
"291 0 LINE",
"291 591 LINE",
"279 591 LINE",
"279 11 LINE",
"62 11 LINE",
"62 591 LINE",
"50 591 LINE",
"50 0 LINE",
"165 0 LINE",
"165 -99 LINE"
);
}
);
width = 299;
}
);
note = uni040F;
unicode = 040F;
},
{
color = 6;
glyphname = "Softsign-cy";
lastChange = "2021-11-24 17:22:35 +0000";
layers = (
{
layerId = "5E1A2ACF-25BB-4872-A226-5327BC7330DB";
paths = (
{
closed = 1;
nodes = (
"170 0 LINE SMOOTH",
"283 0 OFFCURVE",
"289 69 OFFCURVE",
"289 131 CURVE SMOOTH",
"289 304 LINE SMOOTH",
"289 365 OFFCURVE",
"283 435 OFFCURVE",
"170 435 CURVE SMOOTH",
"61 435 LINE",
"61 588 LINE",
"50 588 LINE",
"50 0 LINE"
);
},
{
closed = 1;
nodes = (
"61 425 LINE",
"170 425 LINE SMOOTH",
"273 425 OFFCURVE",
"278 360 OFFCURVE",
"278 301 CURVE SMOOTH",
"278 134 LINE SMOOTH",
"278 75 OFFCURVE",
"273 10 OFFCURVE",
"170 10 CURVE SMOOTH",
"61 10 LINE"
);
}
);
width = 352;
}
);
note = uni042C;
unicode = 042C;
},
{
color = 6;
glyphname = "Hardsign-cy";
lastChange = "2021-11-24 17:22:35 +0000";
layers = (
{
layerId = "5E1A2ACF-25BB-4872-A226-5327BC7330DB";
paths = (
{
closed = 1;
nodes = (
"236 0 LINE SMOOTH",
"349 0 OFFCURVE",
"355 69 OFFCURVE",
"355 131 CURVE SMOOTH",
"355 304 LINE SMOOTH",
"355 365 OFFCURVE",
"349 435 OFFCURVE",
"236 435 CURVE SMOOTH",
"127 435 LINE",
"127 591 LINE",
"50 591 LINE",
"50 580 LINE",
"116 580 LINE",
"116 0 LINE"
);
},
{
closed = 1;
nodes = (
"127 425 LINE",
"236 425 LINE SMOOTH",
"339 425 OFFCURVE",
"344 360 OFFCURVE",
"344 301 CURVE SMOOTH",
"344 134 LINE SMOOTH",
"344 75 OFFCURVE",
"339 10 OFFCURVE",
"236 10 CURVE SMOOTH",
"127 10 LINE"
);
}
);
width = 423;
}
);
note = uni042A;
unicode = 042A;
},
{
color = 6;
glyphname = "Yeru-cy";
lastChange = "2021-11-24 17:22:35 +0000";
layers = (
{
layerId = "5E1A2ACF-25BB-4872-A226-5327BC7330DB";
paths = (
{
closed = 1;
nodes = (
"170 0 LINE SMOOTH",
"283 0 OFFCURVE",
"289 69 OFFCURVE",
"289 131 CURVE SMOOTH",
"289 304 LINE SMOOTH",
"289 365 OFFCURVE",
"283 435 OFFCURVE",
"170 435 CURVE SMOOTH",
"61 435 LINE",
"61 588 LINE",
"50 588 LINE",
"50 0 LINE"
);
},
{
closed = 1;
nodes = (
"61 425 LINE",
"170 425 LINE SMOOTH",
"273 425 OFFCURVE",
"278 360 OFFCURVE",
"278 301 CURVE SMOOTH",
"278 134 LINE SMOOTH",
"278 75 OFFCURVE",
"273 10 OFFCURVE",
"170 10 CURVE SMOOTH",
"61 10 LINE"
);
},
{
closed = 1;
nodes = (
"373 0 LINE",
"373 591 LINE",
"361 591 LINE",
"361 0 LINE"
);
}
);
width = 449;
}
);
note = uni042B;
unicode = 042B;
},
{
color = 6;
glyphname = "Lje-cy";
lastChange = "2021-11-24 17:22:35 +0000";
layers = (
{
layerId = "5E1A2ACF-25BB-4872-A226-5327BC7330DB";
paths = (
{
closed = 1;
nodes = (
"101 0 OFFCURVE",
"107 77 OFFCURVE",
"107 92 CURVE",
"142 580 LINE",
"319 580 LINE",
"319 0 LINE",
"439 0 LINE SMOOTH",
"552 0 OFFCURVE",
"558 69 OFFCURVE",
"558 131 CURVE SMOOTH",
"558 304 LINE SMOOTH",
"558 365 OFFCURVE",
"552 435 OFFCURVE",
"439 435 CURVE SMOOTH",
"330 435 LINE",
"330 591 LINE",
"130 591 LINE",
"95 92 LINE SMOOTH",
"91 36 OFFCURVE",
"77 11 OFFCURVE",
"50 11 CURVE",
"50 0 LINE"
);
},
{
closed = 1;
nodes = (
"330 425 LINE",
"439 425 LINE SMOOTH",
"542 425 OFFCURVE",
"547 360 OFFCURVE",
"547 301 CURVE SMOOTH",
"547 134 LINE SMOOTH",
"547 75 OFFCURVE",
"542 10 OFFCURVE",
"439 10 CURVE SMOOTH",
"330 10 LINE"
);
}
);
width = 617;
}
);
note = uni0409;
unicode = 0409;
},
{
color = 6;
glyphname = "Nje-cy";
lastChange = "2021-11-24 17:22:35 +0000";
layers = (
{
layerId = "5E1A2ACF-25BB-4872-A226-5327BC7330DB";
paths = (
{
closed = 1;
nodes = (
"62 0 LINE",
"62 306 LINE",
"225 306 LINE",
"225 0 LINE",
"345 0 LINE SMOOTH",
"458 0 OFFCURVE",
"464 69 OFFCURVE",
"464 131 CURVE SMOOTH",
"464 304 LINE SMOOTH",
"464 365 OFFCURVE",
"458 435 OFFCURVE",
"345 435 CURVE SMOOTH",
"237 435 LINE",
"237 591 LINE",
"225 591 LINE",
"225 317 LINE",
"62 317 LINE",
"62 591 LINE",
"50 591 LINE",
"50 0 LINE"
);
},
{
closed = 1;
nodes = (
"237 425 LINE",
"345 425 LINE SMOOTH",
"448 425 OFFCURVE",
"453 360 OFFCURVE",
"453 301 CURVE SMOOTH",
"453 134 LINE SMOOTH",
"453 75 OFFCURVE",
"448 10 OFFCURVE",
"345 10 CURVE SMOOTH",
"237 10 LINE"
);
}
);
width = 557;
}
);
note = uni040A;
unicode = 040A;
},
{
color = 6;
glyphname = "Dze-cy";
lastChange = "2021-11-24 17:22:35 +0000";
layers = (
{
layerId = "5E1A2ACF-25BB-4872-A226-5327BC7330DB";
paths = (
{
closed = 1;
nodes = (
"254 -9 OFFCURVE",
"313 31 OFFCURVE",
"313 146 CURVE SMOOTH",
"313 202 OFFCURVE",
"300 237 OFFCURVE",
"273 260 CURVE SMOOTH",
"201 324 OFFCURVE",
"65 304 OFFCURVE",
"65 448 CURVE SMOOTH",
"65 540 OFFCURVE",
"98 583 OFFCURVE",
"181 583 CURVE SMOOTH",
"253 583 OFFCURVE",
"295 541 OFFCURVE",
"295 469 CURVE SMOOTH",
"295 429 LINE",
"307 429 LINE",
"307 469 LINE SMOOTH",
"307 549 OFFCURVE",
"261 595 OFFCURVE",
"181 595 CURVE SMOOTH",
"89 595 OFFCURVE",
"53 544 OFFCURVE",
"53 448 CURVE SMOOTH",
"53 354 OFFCURVE",
"111 322 OFFCURVE",
"171 298 CURVE SMOOTH",
"251 269 OFFCURVE",
"301 250 OFFCURVE",
"301 146 CURVE SMOOTH",
"301 38 OFFCURVE",
"247 3 OFFCURVE",
"177 3 CURVE SMOOTH",
"109 3 OFFCURVE",
"62 38 OFFCURVE",
"62 163 CURVE SMOOTH",
"62 175 LINE",
"50 175 LINE",
"50 163 LINE SMOOTH",
"50 32 OFFCURVE",
"100 -9 OFFCURVE",
"177 -9 CURVE SMOOTH"
);
}
);
width = 366;
}
);
note = uni0405;
unicode = 0405;
},
{
color = 6;
glyphname = "E-cy";
lastChange = "2021-11-24 17:22:35 +0000";
layers = (
{
layerId = "5E1A2ACF-25BB-4872-A226-5327BC7330DB";
paths = (
{
closed = 1;
nodes = (
"265 -12 OFFCURVE",
"323 2 OFFCURVE",
"323 118 CURVE SMOOTH",
"323 189 LINE",
"311 189 LINE",
"311 116 LINE SMOOTH",
"311 12 OFFCURVE",
"256 -3 OFFCURVE",
"186 -3 CURVE SMOOTH",
"117 -3 OFFCURVE",
"62 12 OFFCURVE",
"62 116 CURVE SMOOTH",
"62 295 LINE",
"234 295 LINE",
"234 306 LINE",
"62 306 LINE",
"62 467 LINE SMOOTH",
"62 572 OFFCURVE",
"111 589 OFFCURVE",
"186 589 CURVE SMOOTH",
"261 589 OFFCURVE",
"311 574 OFFCURVE",
"311 473 CURVE SMOOTH",
"311 381 LINE",
"323 381 LINE",
"323 469 LINE SMOOTH",
"323 583 OFFCURVE",
"264 599 OFFCURVE",
"187 599 CURVE SMOOTH",
"110 599 OFFCURVE",
"50 585 OFFCURVE",
"50 469 CURVE SMOOTH",
"50 118 LINE SMOOTH",
"50 4 OFFCURVE",
"109 -12 OFFCURVE",
"185 -12 CURVE SMOOTH"
);
}
);
width = 376;
}
);
note = uni0404;
unicode = 0404;
},
{
color = 6;
glyphname = "Ereversed-cy";
lastChange = "2021-11-24 17:22:35 +0000";
layers = (
{
layerId = "5E1A2ACF-25BB-4872-A226-5327BC7330DB";
paths = (
{
closed = 1;
nodes = (
"264 -12 OFFCURVE",
"323 4 OFFCURVE",
"323 118 CURVE SMOOTH",
"323 469 LINE SMOOTH",
"323 585 OFFCURVE",
"263 599 OFFCURVE",
"186 599 CURVE SMOOTH",
"109 599 OFFCURVE",
"50 583 OFFCURVE",
"50 469 CURVE SMOOTH",
"50 381 LINE",
"62 381 LINE",
"62 473 LINE SMOOTH",
"62 574 OFFCURVE",
"112 589 OFFCURVE",
"187 589 CURVE SMOOTH",
"262 589 OFFCURVE",
"311 572 OFFCURVE",
"311 467 CURVE SMOOTH",
"311 306 LINE",
"139 306 LINE",
"139 295 LINE",
"311 295 LINE",
"311 116 LINE SMOOTH",
"311 12 OFFCURVE",
"256 -3 OFFCURVE",
"187 -3 CURVE SMOOTH",
"117 -3 OFFCURVE",
"62 12 OFFCURVE",
"62 116 CURVE SMOOTH",
"62 189 LINE",
"50 189 LINE",
"50 118 LINE SMOOTH",
"50 2 OFFCURVE",
"108 -12 OFFCURVE",
"188 -12 CURVE SMOOTH"
);
}
);
width = 376;
}
);
note = uni042D;
unicode = 042D;
},
{
color = 6;
glyphname = "I-cy";
lastChange = "2021-11-24 17:22:35 +0000";
layers = (
{
layerId = "5E1A2ACF-25BB-4872-A226-5327BC7330DB";
paths = (
{
closed = 1;
nodes = (
"62 0 LINE",
"62 591 LINE",
"50 591 LINE",
"50 0 LINE"
);
}
);
width = 121;
}
);
note = uni0406;
unicode = 0406;
},
{
color = 6;
glyphname = "Yi-cy";
lastChange = "2021-11-24 17:22:35 +0000";
layers = (
{
layerId = "5E1A2ACF-25BB-4872-A226-5327BC7330DB";
paths = (
{
closed = 1;
nodes = (
"119 0 LINE",
"119 591 LINE",
"107 591 LINE",
"107 0 LINE"
);
},
{
closed = 1;
nodes = (
"77 651 OFFCURVE",
"82 656 OFFCURVE",
"82 667 CURVE SMOOTH",
"82 678 OFFCURVE",
"77 683 OFFCURVE",
"66 683 CURVE SMOOTH",
"55 683 OFFCURVE",
"50 678 OFFCURVE",
"50 667 CURVE SMOOTH",
"50 656 OFFCURVE",
"55 651 OFFCURVE",
"66 651 CURVE SMOOTH"
);
},
{
closed = 1;
nodes = (
"173 651 OFFCURVE",
"178 656 OFFCURVE",
"178 667 CURVE SMOOTH",
"178 678 OFFCURVE",
"173 683 OFFCURVE",
"162 683 CURVE SMOOTH",
"151 683 OFFCURVE",
"146 678 OFFCURVE",
"146 667 CURVE SMOOTH",
"146 656 OFFCURVE",
"151 651 OFFCURVE",
"162 651 CURVE SMOOTH"
);
}
);
width = 244;
}
);
note = uni0407;
unicode = 0407;
},
{
color = 6;
glyphname = "Je-cy";
lastChange = "2021-11-24 17:22:35 +0000";
layers = (
{
layerId = "5E1A2ACF-25BB-4872-A226-5327BC7330DB";
paths = (
{
closed = 1;
nodes = (
"57 -1 OFFCURVE",
"65 0 OFFCURVE",
"72 0 CURVE SMOOTH",
"84 0 LINE SMOOTH",
"161 0 OFFCURVE",
"167 33 OFFCURVE",
"167 117 CURVE SMOOTH",
"167 591 LINE",
"155 591 LINE",
"155 86 LINE SMOOTH",
"155 29 OFFCURVE",
"132 10 OFFCURVE",
"84 10 CURVE SMOOTH",
"50 10 LINE",
"50 0 LINE"
);
}
);
width = 222;
}
);
note = uni0408;
unicode = 0408;
},
{
color = 6;
glyphname = "Tshe-cy";
lastChange = "2021-11-24 17:22:35 +0000";
layers = (
{
layerId = "5E1A2ACF-25BB-4872-A226-5327BC7330DB";
paths = (
{
closed = 1;
nodes = (
"175 0 LINE",
"175 347 LINE",
"180 382 OFFCURVE",
"211 423 OFFCURVE",
"284 423 CURVE SMOOTH",
"388 423 OFFCURVE",
"391 358 OFFCURVE",
"391 299 CURVE SMOOTH",
"391 0 LINE",
"403 0 LINE",
"403 302 LINE SMOOTH",
"403 363 OFFCURVE",
"397 433 OFFCURVE",
"284 433 CURVE SMOOTH",
"221 433 OFFCURVE",
"190 406 OFFCURVE",
"175 375 CURVE",
"175 580 LINE",
"289 580 LINE",
"289 591 LINE",
"50 591 LINE",
"50 580 LINE",
"163 580 LINE",
"163 0 LINE"
);
}
);
width = 494;
}
);
note = uni040B;
unicode = 040B;
},
{
color = 6;
glyphname = "Iu-cy";
lastChange = "2021-11-24 17:22:35 +0000";
layers = (
{
layerId = "5E1A2ACF-25BB-4872-A226-5327BC7330DB";
paths = (
{
closed = 1;
nodes = (
"426 -12 OFFCURVE",
"484 2 OFFCURVE",
"484 118 CURVE SMOOTH",
"484 469 LINE SMOOTH",
"484 583 OFFCURVE",
"425 599 OFFCURVE",
"348 599 CURVE SMOOTH",
"271 599 OFFCURVE",
"211 585 OFFCURVE",
"211 469 CURVE SMOOTH",
"211 317 LINE",
"62 317 LINE",
"62 591 LINE",
"50 591 LINE",
"50 0 LINE",
"62 0 LINE",
"62 306 LINE",
"211 306 LINE",
"211 118 LINE SMOOTH",
"211 4 OFFCURVE",
"270 -12 OFFCURVE",
"346 -12 CURVE SMOOTH"
);
},
{
closed = 1;
nodes = (
"278 -2 OFFCURVE",
"223 11 OFFCURVE",
"223 115 CURVE SMOOTH",
"223 472 LINE SMOOTH",
"223 576 OFFCURVE",
"278 589 OFFCURVE",
"347 589 CURVE SMOOTH",
"415 589 OFFCURVE",
"472 576 OFFCURVE",
"472 472 CURVE SMOOTH",
"472 115 LINE SMOOTH",
"472 11 OFFCURVE",
"417 -2 OFFCURVE",
"347 -2 CURVE SMOOTH"
);
}
);
width = 582;
}
);
note = uni042E;
unicode = 042E;
},
{
color = 6;
glyphname = "Ia-cy";
lastChange = "2021-11-24 17:22:35 +0000";
layers = (
{
layerId = "5E1A2ACF-25BB-4872-A226-5327BC7330DB";
paths = (
{
closed = 1;
nodes = (
"64 0 LINE",
"125 205 LINE SMOOTH",
"141 257 OFFCURVE",
"167 292 OFFCURVE",
"208 292 CURVE SMOOTH",
"327 292 LINE",
"327 0 LINE",
"339 0 LINE",
"339 591 LINE",
"177 591 LINE SMOOTH",
"120 591 OFFCURVE",
"71 566 OFFCURVE",
"71 494 CURVE SMOOTH",
"71 411 LINE SMOOTH",
"71 328 OFFCURVE",
"122 296 OFFCURVE",
"185 296 CURVE",
"153 293 OFFCURVE",
"128 256 OFFCURVE",
"119 224 CURVE SMOOTH",
"50 0 LINE"
);
},
{
closed = 1;
nodes = (
"134 303 OFFCURVE",
"83 331 OFFCURVE",
"83 409 CURVE SMOOTH",
"83 496 LINE SMOOTH",
"83 553 OFFCURVE",
"124 580 OFFCURVE",
"169 580 CURVE SMOOTH",
"327 580 LINE",
"327 303 LINE",
"202 303 LINE SMOOTH"
);
}
);
width = 394;
}
);
note = uni042F;
unicode = 042F;
},
{
color = 6;
glyphname = "Dje-cy";
lastChange = "2021-11-24 17:22:35 +0000";
layers = (
{
layerId = "5E1A2ACF-25BB-4872-A226-5327BC7330DB";
paths = (
{
closed = 1;
nodes = (
"175 0 LINE",
"175 347 LINE",
"180 382 OFFCURVE",
"211 423 OFFCURVE",
"284 423 CURVE SMOOTH",
"388 423 OFFCURVE",
"391 358 OFFCURVE",
"391 299 CURVE SMOOTH",
"391 179 LINE SMOOTH",
"391 82 OFFCURVE",
"374 11 OFFCURVE",
"281 11 CURVE SMOOTH",
"269 11 LINE",
"269 0 LINE",
"282 0 LINE SMOOTH",
"354 0 OFFCURVE",
"403 27 OFFCURVE",
"403 180 CURVE SMOOTH",
"403 302 LINE SMOOTH",
"403 363 OFFCURVE",
"397 433 OFFCURVE",
"284 433 CURVE SMOOTH",
"221 433 OFFCURVE",
"190 406 OFFCURVE",
"175 375 CURVE",
"175 580 LINE",
"289 580 LINE",
"289 591 LINE",
"50 591 LINE",
"50 580 LINE",
"163 580 LINE",
"163 0 LINE"
);
}
);
width = 466;
}
);
note = uni0402;
unicode = 0402;
},
{
glyphname = "Yat-cy";
lastChange = "2021-11-24 17:22:35 +0000";
layers = (
{
associatedMasterId = "5E1A2ACF-25BB-4872-A226-5327BC7330DB";
background = {
components = (
{
name = hyphen;
transform = "{1.53882, 0, 0, 0.70397, -30, 313}";
}
);
paths = (
{
closed = 1;
nodes = (
"293 0 LINE SMOOTH",
"369 0 OFFCURVE",
"429 10 OFFCURVE",
"429 161 CURVE SMOOTH",
"429 324 LINE SMOOTH",
"429 423 OFFCURVE",
"367 436 OFFCURVE",
"318 436 CURVE SMOOTH",
"239 436 LINE",
"239 591 LINE",
"83 591 LINE",
"83 0 LINE"
);
},
{
closed = 1;
nodes = (
"239 341 LINE",
"256 341 LINE SMOOTH",
"272 341 OFFCURVE",
"273 330 OFFCURVE",
"273 291 CURVE SMOOTH",
"273 166 LINE SMOOTH",
"273 87 OFFCURVE",
"271 80 OFFCURVE",
"257 80 CURVE SMOOTH",
"239 80 LINE"
);
}
);
};
components = (
{
name = hyphen;
transform = "{1.53882, 0, 0, 0.70397, -30, 313}";
}
);
layerId = "8A3706BD-364F-4FE3-9C2E-7E87DF0DB4CC";
name = Black;
paths = (
{
closed = 1;
nodes = (
"293 0 LINE SMOOTH",
"369 0 OFFCURVE",
"429 10 OFFCURVE",
"429 161 CURVE SMOOTH",
"429 324 LINE SMOOTH",
"429 423 OFFCURVE",
"367 436 OFFCURVE",
"318 436 CURVE SMOOTH",
"239 436 LINE",
"239 591 LINE",
"83 591 LINE",
"83 0 LINE"
);
},
{
closed = 1;
nodes = (
"239 341 LINE",
"256 341 LINE SMOOTH",
"272 341 OFFCURVE",
"273 330 OFFCURVE",
"273 291 CURVE SMOOTH",
"273 166 LINE SMOOTH",
"273 87 OFFCURVE",
"271 80 OFFCURVE",
"257 80 CURVE SMOOTH",
"239 80 LINE"
);
}
);
width = 454;
},
{
components = (
{
alignment = -1;
name = hyphen;
transform = "{1.39957, 0, 0, 0.99129, -54, 278}";
}
);
layerId = "5E1A2ACF-25BB-4872-A226-5327BC7330DB";
paths = (
{
closed = 1;
nodes = (
"220 0 LINE SMOOTH",
"333 0 OFFCURVE",
"339 69 OFFCURVE",
"339 131 CURVE SMOOTH",
"339 304 LINE SMOOTH",
"339 365 OFFCURVE",
"333 435 OFFCURVE",
"220 435 CURVE SMOOTH",
"111 435 LINE",
"111 588 LINE",
"100 588 LINE",
"100 0 LINE"
);
},
{
closed = 1;
nodes = (
"111 425 LINE",
"220 425 LINE SMOOTH",
"323 425 OFFCURVE",
"328 360 OFFCURVE",
"328 301 CURVE SMOOTH",
"328 134 LINE SMOOTH",
"328 75 OFFCURVE",
"323 10 OFFCURVE",
"220 10 CURVE SMOOTH",
"111 10 LINE"
);
}
);
width = 393;
}
);
unicode = 0462;
},
{
color = 4;
glyphname = "Yusbig-cy";
lastChange = "2021-11-24 17:22:35 +0000";
layers = (
{
associatedMasterId = "5E1A2ACF-25BB-4872-A226-5327BC7330DB";
background = {
paths = (
{
closed = 1;
nodes = (
"197 0 LINE",
"233 230 LINE SMOOTH",
"237 253 OFFCURVE",
"240 276 OFFCURVE",
"244 299 CURVE",
"246 299 LINE",
"247 0 LINE",
"414 0 LINE",
"414 299 LINE",
"416 299 LINE",
"420 274 OFFCURVE",
"423 249 OFFCURVE",
"427 224 CURVE SMOOTH",
"464 0 LINE",
"641 0 LINE",
"586 253 LINE SMOOTH",
"576 300 OFFCURVE",
"546 332 OFFCURVE",
"505 335 CURVE SMOOTH",
"456 339 LINE",
"632 484 LINE",
"632 591 LINE",
"22 591 LINE",
"22 484 LINE",
"199 338 LINE",
"157 336 LINE SMOOTH",
"113 334 OFFCURVE",
"85 298 OFFCURVE",
"75 253 CURVE SMOOTH",
"20 0 LINE"
);
},
{
closed = 1;
nodes = (
"204 484 LINE",
"450 484 LINE",
"327 395 LINE"
);
}
);
};
layerId = "8A3706BD-364F-4FE3-9C2E-7E87DF0DB4CC";
name = Black;
paths = (
{
closed = 1;
nodes = (
"197 0 LINE",
"233 230 LINE SMOOTH",
"237 253 OFFCURVE",
"240 276 OFFCURVE",
"244 299 CURVE",
"246 299 LINE",
"247 0 LINE",
"414 0 LINE",
"414 299 LINE",
"416 299 LINE",
"420 274 OFFCURVE",
"423 249 OFFCURVE",
"427 224 CURVE SMOOTH",
"464 0 LINE",
"641 0 LINE",
"586 253 LINE SMOOTH",
"576 300 OFFCURVE",
"546 332 OFFCURVE",
"505 335 CURVE SMOOTH",
"456 339 LINE",
"632 484 LINE",
"632 591 LINE",
"22 591 LINE",
"22 484 LINE",
"199 338 LINE",
"157 336 LINE SMOOTH",
"113 334 OFFCURVE",
"85 298 OFFCURVE",
"75 253 CURVE SMOOTH",
"20 0 LINE"
);
},
{
closed = 1;
nodes = (
"204 484 LINE",
"450 484 LINE",
"327 395 LINE"
);
}
);
width = 661;
},
{
layerId = "5E1A2ACF-25BB-4872-A226-5327BC7330DB";
paths = (
{
closed = 1;
nodes = (
"61 0 LINE",
"123 223 LINE SMOOTH",
"135 265 OFFCURVE",
"157 315 OFFCURVE",
"204 315 CURVE SMOOTH",
"318 315 LINE",
"318 0 LINE",
"330 0 LINE",
"330 315 LINE",
"445 315 LINE SMOOTH",
"505 314 OFFCURVE",
"523 265 OFFCURVE",
"535 223 CURVE SMOOTH",
"597 0 LINE",
"610 0 LINE",
"545 226 LINE SMOOTH",
"531 274 OFFCURVE",
"512 325 OFFCURVE",
"444 325 CURVE SMOOTH",
"339 325 LINE",
"632 576 LINE",
"632 591 LINE",
"25 591 LINE",
"25 576 LINE",
"310 325 LINE",
"210 325 LINE SMOOTH",
"147 325 OFFCURVE",
"126 274 OFFCURVE",
"112 226 CURVE SMOOTH",
"47 0 LINE"
);
},
{
closed = 1;
nodes = (
"37 581 LINE",
"621 581 LINE",
"325 327 LINE"
);
}
);
width = 657;
}
);
unicode = 046A;
},
{
color = 6;
glyphname = "a-cy";
lastChange = "2021-11-24 17:22:35 +0000";
layers = (
{
layerId = "5E1A2ACF-25BB-4872-A226-5327BC7330DB";
paths = (
{
closed = 1;
nodes = (
"187 -7 OFFCURVE",
"222 4 OFFCURVE",
"249 31 CURVE SMOOTH",
"262 46 OFFCURVE",
"272 62 OFFCURVE",
"278 79 CURVE",
"280 0 LINE",
"289 0 LINE",
"289 402 LINE SMOOTH",
"289 455 OFFCURVE",
"282 502 OFFCURVE",
"177 502 CURVE SMOOTH",
"81 502 OFFCURVE",
"61 452 OFFCURVE",
"61 377 CURVE SMOOTH",
"61 334 LINE",
"72 334 LINE",
"72 375 LINE SMOOTH",
"72 448 OFFCURVE",
"89 493 OFFCURVE",
"177 493 CURVE SMOOTH",
"227 493 OFFCURVE",
"278 481 OFFCURVE",
"278 414 CURVE SMOOTH",
"278 400 LINE SMOOTH",
"278 350 OFFCURVE",
"247 328 OFFCURVE",
"180 291 CURVE SMOOTH",
"143 270 OFFCURVE",
"50 237 OFFCURVE",
"50 146 CURVE SMOOTH",
"50 112 LINE SMOOTH",
"50 -3 OFFCURVE",
"110 -7 OFFCURVE",
"151 -7 CURVE SMOOTH"
);
},
{
closed = 1;
nodes = (
"116 3 OFFCURVE",
"61 5 OFFCURVE",
"61 112 CURVE SMOOTH",
"61 142 LINE SMOOTH",
"61 225 OFFCURVE",
"130 251 OFFCURVE",
"178 278 CURVE SMOOTH",
"222 303 OFFCURVE",
"264 323 OFFCURVE",
"278 357 CURVE",
"278 157 LINE SMOOTH",
"278 110 OFFCURVE",
"274 74 OFFCURVE",
"241 39 CURVE SMOOTH",
"217 14 OFFCURVE",
"186 3 OFFCURVE",
"153 3 CURVE SMOOTH"
);
}
);
width = 350;
}
);
note = uni0430;
unicode = 0430;
},
{
color = 6;
glyphname = "be-cy";
lastChange = "2021-11-24 17:22:35 +0000";
layers = (
{
layerId = "5E1A2ACF-25BB-4872-A226-5327BC7330DB";
paths = (
{
closed = 1;
nodes = (
"285 -7 OFFCURVE",
"289 62 OFFCURVE",
"289 124 CURVE SMOOTH",
"289 316 LINE SMOOTH",
"289 377 OFFCURVE",
"283 447 OFFCURVE",
"170 447 CURVE SMOOTH",
"103 447 OFFCURVE",
"74 424 OFFCURVE",
"61 393 CURVE",
"61 495 LINE SMOOTH",
"64 580 OFFCURVE",
"103 598 OFFCURVE",
"164 598 CURVE SMOOTH",
"190 598 LINE SMOOTH",
"225 598 OFFCURVE",
"249 603 OFFCURVE",
"249 618 CURVE SMOOTH",
"249 627 LINE",
"245 619 OFFCURVE",
"229 608 OFFCURVE",
"198 608 CURVE SMOOTH",
"161 608 LINE SMOOTH",
"98 608 OFFCURVE",
"50 592 OFFCURVE",
"50 495 CURVE SMOOTH",
"50 124 LINE SMOOTH",
"50 62 OFFCURVE",
"58 -7 OFFCURVE",
"170 -7 CURVE SMOOTH"
);
},
{
closed = 1;
nodes = (
"67 3 OFFCURVE",
"61 68 OFFCURVE",
"61 127 CURVE SMOOTH",
"61 331 LINE SMOOTH",
"61 384 OFFCURVE",
"77 437 OFFCURVE",
"170 437 CURVE SMOOTH",
"273 437 OFFCURVE",
"278 372 OFFCURVE",
"278 313 CURVE SMOOTH",
"278 127 LINE SMOOTH",
"278 68 OFFCURVE",
"273 3 OFFCURVE",
"170 3 CURVE SMOOTH"
);
}
);
width = 351;
}
);
leftKerningGroup = uni0431;
note = uni0431;
unicode = 0431;
},
{
color = 6;
glyphname = "ve-cy";
lastChange = "2021-11-24 17:22:35 +0000";
layers = (
{
layerId = "5E1A2ACF-25BB-4872-A226-5327BC7330DB";
paths = (
{
closed = 1;
nodes = (
"186 0 LINE SMOOTH",
"259 0 OFFCURVE",
"307 16 OFFCURVE",
"307 120 CURVE SMOOTH",
"307 161 LINE SMOOTH",
"307 221 OFFCURVE",
"270 264 OFFCURVE",
"214 264 CURVE",
"270 273 OFFCURVE",
"302 300 OFFCURVE",
"302 356 CURVE SMOOTH",
"302 398 LINE SMOOTH",
"302 470 OFFCURVE",
"254 495 OFFCURVE",
"195 495 CURVE SMOOTH",
"50 495 LINE",
"50 0 LINE"
);
},
{
closed = 1;
nodes = (
"62 258 LINE",
"175 258 LINE SMOOTH",
"238 258 OFFCURVE",
"295 241 OFFCURVE",
"295 156 CURVE SMOOTH",
"295 125 LINE SMOOTH",
"295 26 OFFCURVE",
"253 11 OFFCURVE",
"183 11 CURVE SMOOTH",
"62 11 LINE"
);
},
{
closed = 1;
nodes = (
"62 484 LINE",
"195 484 LINE SMOOTH",
"250 484 OFFCURVE",
"290 457 OFFCURVE",
"290 400 CURVE SMOOTH",
"290 357 LINE SMOOTH",
"290 292 OFFCURVE",
"251 269 OFFCURVE",
"174 269 CURVE SMOOTH",
"62 269 LINE"
);
}
);
width = 365;
}
);
leftKerningGroup = uni0431;
note = uni0432;
rightKerningGroup = uni0432;
unicode = 0432;
},
{
color = 6;
glyphname = "ge-cy";
lastChange = "2021-11-24 17:22:35 +0000";
layers = (
{
layerId = "5E1A2ACF-25BB-4872-A226-5327BC7330DB";
paths = (
{
closed = 1;
nodes = (
"62 0 LINE",
"62 484 LINE",
"263 484 LINE",
"263 495 LINE",
"50 495 LINE",
"50 0 LINE"
);
}
);
width = 273;
}
);
leftKerningGroup = uni0431;
note = uni0433;
unicode = 0433;
},
{
color = 6;
glyphname = "gje-cy";
lastChange = "2021-11-24 17:22:35 +0000";
layers = (
{
layerId = "5E1A2ACF-25BB-4872-A226-5327BC7330DB";
paths = (
{
closed = 1;
nodes = (
"62 0 LINE",
"62 484 LINE",
"263 484 LINE",
"263 495 LINE",
"50 495 LINE",
"50 0 LINE"
);
},
{
closed = 1;
nodes = (
"136 544 LINE",
"209 630 LINE",
"187 630 LINE",
"125 544 LINE"
);
}
);
width = 326;
}
);
leftKerningGroup = uni0431;
note = uni0453;
unicode = 0453;
},
{
color = 6;
glyphname = "de-cy";
lastChange = "2021-11-24 17:22:35 +0000";
layers = (
{
layerId = "5E1A2ACF-25BB-4872-A226-5327BC7330DB";
paths = (
{
closed = 1;
nodes = (
"21 -99 LINE",
"21 0 LINE",
"403 0 LINE",
"403 -99 LINE",
"414 -99 LINE",
"414 11 LINE",
"341 11 LINE",
"341 495 LINE",
"141 495 LINE",
"106 92 LINE SMOOTH",
"102 40 OFFCURVE",
"88 13 OFFCURVE",
"65 11 CURVE",
"10 11 LINE",
"10 -99 LINE"
);
},
{
closed = 1;
nodes = (
"114 32 OFFCURVE",
"118 80 OFFCURVE",
"118 92 CURVE",
"153 484 LINE",
"329 484 LINE",
"329 11 LINE",
"90 11 LINE"
);
}
);
width = 443;
}
);
note = uni0434;
rightKerningGroup = uni0432;
unicode = 0434;
},
{
color = 6;
glyphname = "ie-cy";
lastChange = "2021-11-24 17:22:35 +0000";
layers = (
{
layerId = "5E1A2ACF-25BB-4872-A226-5327BC7330DB";
paths = (
{
closed = 1;
nodes = (
"283 -7 OFFCURVE",
"289 62 OFFCURVE",
"289 124 CURVE SMOOTH",
"289 167 LINE",
"278 167 LINE",
"278 127 LINE SMOOTH",
"278 68 OFFCURVE",
"273 3 OFFCURVE",
"170 3 CURVE SMOOTH",
"66 3 OFFCURVE",
"61 68 OFFCURVE",
"61 127 CURVE SMOOTH",
"61 263 LINE",
"289 263 LINE",
"289 372 LINE SMOOTH",
"289 433 OFFCURVE",
"283 503 OFFCURVE",
"170 503 CURVE SMOOTH",
"55 503 OFFCURVE",
"50 433 OFFCURVE",
"50 372 CURVE SMOOTH",
"50 124 LINE SMOOTH",
"50 62 OFFCURVE",
"55 -7 OFFCURVE",
"170 -7 CURVE SMOOTH"
);
},
{
closed = 1;
nodes = (
"61 273 LINE",
"61 369 LINE SMOOTH",
"61 428 OFFCURVE",
"66 493 OFFCURVE",
"170 493 CURVE SMOOTH",
"273 493 OFFCURVE",
"278 428 OFFCURVE",
"278 369 CURVE SMOOTH",
"278 273 LINE"
);
}
);
width = 352;
}
);
leftKerningGroup = uni0431;
note = uni0435;
unicode = 0435;
},
{
color = 6;
glyphname = "io-cy";
lastChange = "2021-11-24 17:22:35 +0000";
layers = (
{
layerId = "5E1A2ACF-25BB-4872-A226-5327BC7330DB";
paths = (
{
closed = 1;
nodes = (
"283 -7 OFFCURVE",
"289 62 OFFCURVE",
"289 124 CURVE SMOOTH",
"289 167 LINE",
"278 167 LINE",
"278 127 LINE SMOOTH",
"278 68 OFFCURVE",
"273 3 OFFCURVE",
"170 3 CURVE SMOOTH",
"66 3 OFFCURVE",
"61 68 OFFCURVE",
"61 127 CURVE SMOOTH",
"61 263 LINE",
"289 263 LINE",
"289 372 LINE SMOOTH",
"289 433 OFFCURVE",
"283 503 OFFCURVE",
"170 503 CURVE SMOOTH",
"55 503 OFFCURVE",
"50 433 OFFCURVE",
"50 372 CURVE SMOOTH",
"50 124 LINE SMOOTH",
"50 62 OFFCURVE",
"55 -7 OFFCURVE",
"170 -7 CURVE SMOOTH"
);
},
{
closed = 1;
nodes = (
"61 273 LINE",
"61 369 LINE SMOOTH",
"61 428 OFFCURVE",
"66 493 OFFCURVE",
"170 493 CURVE SMOOTH",
"273 493 OFFCURVE",
"278 428 OFFCURVE",
"278 369 CURVE SMOOTH",
"278 273 LINE"
);
},
{
closed = 1;
nodes = (
"133 591 OFFCURVE",
"138 596 OFFCURVE",
"138 607 CURVE SMOOTH",
"138 618 OFFCURVE",
"133 623 OFFCURVE",
"122 623 CURVE SMOOTH",
"111 623 OFFCURVE",
"106 618 OFFCURVE",
"106 607 CURVE SMOOTH",
"106 596 OFFCURVE",
"111 591 OFFCURVE",
"122 591 CURVE SMOOTH"
);
},
{
closed = 1;
nodes = (
"229 591 OFFCURVE",
"234 596 OFFCURVE",
"234 607 CURVE SMOOTH",
"234 618 OFFCURVE",
"229 623 OFFCURVE",
"218 623 CURVE SMOOTH",
"207 623 OFFCURVE",
"202 618 OFFCURVE",
"202 607 CURVE SMOOTH",
"202 596 OFFCURVE",
"207 591 OFFCURVE",
"218 591 CURVE SMOOTH"
);
}
);
width = 352;
}
);
leftKerningGroup = uni0431;
note = uni0451;
unicode = 0451;
},
{
color = 6;
glyphname = "zhe-cy";
lastChange = "2021-11-24 17:22:35 +0000";
layers = (
{
layerId = "5E1A2ACF-25BB-4872-A226-5327BC7330DB";
paths = (
{
closed = 1;
nodes = (
"38 0 LINE",
"88 95 OFFCURVE",
"138 162 OFFCURVE",
"188 257 CURVE",
"223 257 LINE",
"223 0 LINE",
"234 0 LINE",
"234 257 LINE",
"269 257 LINE",
"319 162 OFFCURVE",
"369 95 OFFCURVE",
"419 0 CURVE",
"432 0 LINE",
"280 261 LINE",
"430 495 LINE",
"415 495 LINE",
"270 267 LINE",
"234 267 LINE",
"234 495 LINE",
"223 495 LINE",
"223 267 LINE",
"187 267 LINE",
"42 495 LINE",
"27 495 LINE",
"177 261 LINE",
"25 0 LINE"
);
}
);
width = 474;
}
);
leftKerningGroup = uni0431;
note = uni0436;
unicode = 0436;
},
{
color = 6;
glyphname = "ze-cy";
lastChange = "2021-11-24 17:22:35 +0000";
layers = (
{
layerId = "5E1A2ACF-25BB-4872-A226-5327BC7330DB";
paths = (
{
closed = 1;
nodes = (
"283 -8 OFFCURVE",
"332 50 OFFCURVE",
"332 139 CURVE SMOOTH",
"332 207 OFFCURVE",
"305 253 OFFCURVE",
"225 264 CURVE",
"288 277 OFFCURVE",
"317 320 OFFCURVE",
"317 375 CURVE SMOOTH",
"317 451 OFFCURVE",
"275 499 OFFCURVE",
"191 499 CURVE SMOOTH",
"107 499 OFFCURVE",
"65 451 OFFCURVE",
"65 375 CURVE SMOOTH",
"65 363 LINE",
"77 363 LINE",
"77 374 LINE SMOOTH",
"77 442 OFFCURVE",
"112 489 OFFCURVE",
"191 489 CURVE SMOOTH",
"270 489 OFFCURVE",
"305 442 OFFCURVE",
"305 374 CURVE SMOOTH",
"305 318 OFFCURVE",
"263 269 OFFCURVE",
"191 269 CURVE SMOOTH",
"148 269 LINE",
"148 257 LINE",
"191 257 LINE SMOOTH",
"274 257 OFFCURVE",
"320 222 OFFCURVE",
"320 138 CURVE SMOOTH",
"320 50 OFFCURVE",
"271 2 OFFCURVE",
"191 2 CURVE SMOOTH",
"156 3 OFFCURVE",
"128 12 OFFCURVE",
"107 27 CURVE SMOOTH",
"77 49 OFFCURVE",
"62 86 OFFCURVE",
"62 137 CURVE SMOOTH",
"62 158 LINE",
"50 158 LINE",
"50 137 LINE SMOOTH",
"50 88 OFFCURVE",
"63 46 OFFCURVE",
"99 19 CURVE SMOOTH",
"122 3 OFFCURVE",
"150 -8 OFFCURVE",
"191 -8 CURVE SMOOTH"
);
}
);
width = 386;
}
);
note = uni0437;
unicode = 0437;
},
{
color = 6;
glyphname = "ii-cy";
lastChange = "2021-11-24 17:22:35 +0000";
layers = (
{
layerId = "5E1A2ACF-25BB-4872-A226-5327BC7330DB";
paths = (
{
closed = 1;
nodes = (
"63 0 LINE",
"270 481 LINE",
"270 0 LINE",
"280 0 LINE",
"280 495 LINE",
"266 495 LINE",
"61 23 LINE",
"61 495 LINE",
"50 495 LINE",
"50 0 LINE"
);
}
);
width = 349;
}
);
leftKerningGroup = uni0431;
note = uni0438;
unicode = 0438;
},
{
color = 6;
glyphname = "iishort-cy";
lastChange = "2021-11-24 17:22:35 +0000";
layers = (
{
layerId = "5E1A2ACF-25BB-4872-A226-5327BC7330DB";
paths = (
{
closed = 1;
nodes = (
"63 0 LINE",
"270 481 LINE",
"270 0 LINE",
"280 0 LINE",
"280 495 LINE",
"266 495 LINE",
"61 23 LINE",
"61 495 LINE",
"50 495 LINE",
"50 0 LINE"
);
},
{
closed = 1;
nodes = (
"228 591 OFFCURVE",
"245 635 OFFCURVE",
"251 668 CURVE",
"240 668 LINE",
"233 620 OFFCURVE",
"202 599 OFFCURVE",
"162 599 CURVE SMOOTH",
"122 599 OFFCURVE",
"91 620 OFFCURVE",
"84 668 CURVE",
"73 668 LINE",
"79 635 OFFCURVE",
"98 591 OFFCURVE",
"162 591 CURVE SMOOTH"
);
}
);
width = 349;
}
);
leftKerningGroup = uni0431;
note = uni0439;
unicode = 0439;
},
{
color = 6;
glyphname = "ka-cy";
lastChange = "2021-11-24 17:22:35 +0000";
layers = (
{
layerId = "5E1A2ACF-25BB-4872-A226-5327BC7330DB";
paths = (
{
closed = 1;
nodes = (
"50 0 LINE",
"61 0 LINE",
"61 204 LINE",
"63 213 OFFCURVE",
"85 261 OFFCURVE",
"109 300 CURVE",
"257 0 LINE",
"269 0 LINE",
"115 311 LINE",
"158 378 OFFCURVE",
"216 447 OFFCURVE",
"277 468 CURVE",
"277 475 LINE",
"225 462 OFFCURVE",
"125 376 OFFCURVE",
"61 224 CURVE",
"61 496 LINE",
"50 496 LINE"
);
}
);
width = 311;
}
);
leftKerningGroup = uni0431;
note = uni043A;
unicode = 043A;
},
{
color = 6;
glyphname = "kje-cy";
lastChange = "2021-11-24 17:22:35 +0000";
layers = (
{
layerId = "5E1A2ACF-25BB-4872-A226-5327BC7330DB";
paths = (
{
closed = 1;
nodes = (
"50 0 LINE",
"61 0 LINE",
"61 204 LINE",
"63 213 OFFCURVE",
"85 261 OFFCURVE",
"109 300 CURVE",
"257 0 LINE",
"269 0 LINE",
"115 311 LINE",
"158 378 OFFCURVE",
"216 447 OFFCURVE",
"277 468 CURVE",
"277 475 LINE",
"225 462 OFFCURVE",
"125 376 OFFCURVE",
"61 224 CURVE",
"61 496 LINE",
"50 496 LINE"
);
},
{
closed = 1;
nodes = (
"136 544 LINE",
"209 630 LINE",
"187 630 LINE",
"125 544 LINE"
);
}
);
width = 281;
}
);
leftKerningGroup = uni0431;
note = uni045C;
unicode = 045C;
},
{
color = 6;
glyphname = "el-cy";
lastChange = "2021-11-24 17:22:35 +0000";
layers = (
{
layerId = "5E1A2ACF-25BB-4872-A226-5327BC7330DB";
paths = (
{
closed = 1;
nodes = (
"71 0 OFFCURVE",
"77 77 OFFCURVE",
"77 92 CURVE",
"112 484 LINE",
"288 484 LINE",
"288 1 LINE",
"300 1 LINE",
"300 495 LINE",
"100 495 LINE",
"65 92 LINE SMOOTH",
"61 36 OFFCURVE",
"47 11 OFFCURVE",
"20 11 CURVE",
"20 0 LINE"
);
}
);
width = 356;
}
);
leftKerningGroup = uni043B;
note = uni043B;
unicode = 043B;
},
{
color = 6;
glyphname = "em-cy";
lastChange = "2021-11-24 17:22:35 +0000";
layers = (
{
layerId = "5E1A2ACF-25BB-4872-A226-5327BC7330DB";
paths = (
{
closed = 1;
nodes = (
"62 0 LINE",
"62 445 LINE",
"213 0 LINE",
"227 0 LINE",
"377 445 LINE",
"377 0 LINE",
"389 0 LINE",
"389 495 LINE",
"381 495 LINE",
"220 15 LINE",
"59 495 LINE",
"50 495 LINE",
"50 0 LINE"
);
}
);
width = 450;
}
);
leftKerningGroup = uni0431;
note = uni043C;
unicode = 043C;
},
{
color = 6;
glyphname = "en-cy";
lastChange = "2021-11-24 17:22:35 +0000";
layers = (
{
layerId = "5E1A2ACF-25BB-4872-A226-5327BC7330DB";
paths = (
{
closed = 1;
nodes = (
"62 0 LINE",
"62 257 LINE",
"275 257 LINE",
"275 0 LINE",
"287 0 LINE",
"287 495 LINE",
"275 495 LINE",
"275 268 LINE",
"62 268 LINE",
"62 495 LINE",
"50 495 LINE",
"50 0 LINE"
);
}
);
width = 351;
}
);
leftKerningGroup = uni0431;
note = uni043D;
unicode = 043D;
},
{
color = 6;
glyphname = "o-cy";
lastChange = "2021-11-24 17:22:35 +0000";
layers = (
{
layerId = "5E1A2ACF-25BB-4872-A226-5327BC7330DB";
paths = (
{
closed = 1;
nodes = (
"283 -7 OFFCURVE",
"289 62 OFFCURVE",
"289 124 CURVE SMOOTH",
"289 372 LINE SMOOTH",
"289 433 OFFCURVE",
"283 503 OFFCURVE",
"170 503 CURVE SMOOTH",
"55 503 OFFCURVE",
"50 433 OFFCURVE",
"50 372 CURVE SMOOTH",
"50 124 LINE SMOOTH",
"50 62 OFFCURVE",
"55 -7 OFFCURVE",
"170 -7 CURVE SMOOTH"
);
},
{
closed = 1;
nodes = (
"66 3 OFFCURVE",
"61 68 OFFCURVE",
"61 127 CURVE SMOOTH",
"61 369 LINE SMOOTH",
"61 428 OFFCURVE",
"66 493 OFFCURVE",
"170 493 CURVE SMOOTH",
"273 493 OFFCURVE",
"278 428 OFFCURVE",
"278 369 CURVE SMOOTH",
"278 127 LINE SMOOTH",
"278 68 OFFCURVE",
"273 3 OFFCURVE",
"170 3 CURVE SMOOTH"
);
}
);
width = 351;
}
);
leftKerningGroup = uni0431;
note = uni043E;
unicode = 043E;
},
{
color = 6;
glyphname = "pe-cy";
lastChange = "2021-11-24 17:22:35 +0000";
layers = (
{
layerId = "5E1A2ACF-25BB-4872-A226-5327BC7330DB";
paths = (
{
closed = 1;
nodes = (
"62 0 LINE",
"62 484 LINE",
"279 484 LINE",
"279 0 LINE",
"291 0 LINE",
"291 495 LINE",
"50 495 LINE",
"50 0 LINE"
);
}
);
width = 354;
}
);
leftKerningGroup = uni0431;
note = uni043F;
unicode = 043F;
},
{
color = 6;
glyphname = "er-cy";
lastChange = "2021-11-24 17:22:35 +0000";
layers = (
{
layerId = "5E1A2ACF-25BB-4872-A226-5327BC7330DB";
paths = (
{
closed = 1;
nodes = (
"61 -116 LINE",
"61 47 LINE",
"74 16 OFFCURVE",
"103 -7 OFFCURVE",
"170 -7 CURVE SMOOTH",
"283 -7 OFFCURVE",
"289 62 OFFCURVE",
"289 124 CURVE SMOOTH",
"289 372 LINE SMOOTH",
"289 433 OFFCURVE",
"283 503 OFFCURVE",
"170 503 CURVE SMOOTH",
"101 503 OFFCURVE",
"72 472 OFFCURVE",
"61 436 CURVE",
"58 495 LINE",
"50 495 LINE",
"50 -116 LINE"
);
},
{
closed = 1;
nodes = (
"66 3 OFFCURVE",
"61 68 OFFCURVE",
"61 127 CURVE SMOOTH",
"61 363 LINE SMOOTH",
"61 428 OFFCURVE",
"74 493 OFFCURVE",
"170 493 CURVE SMOOTH",
"273 493 OFFCURVE",
"278 428 OFFCURVE",
"278 369 CURVE SMOOTH",
"278 127 LINE SMOOTH",
"278 68 OFFCURVE",
"273 3 OFFCURVE",
"170 3 CURVE SMOOTH"
);
}
);
width = 351;
}
);
leftKerningGroup = uni0431;
note = uni0440;
unicode = 0440;
},
{
color = 6;
glyphname = "es-cy";
lastChange = "2021-11-24 17:22:35 +0000";
layers = (
{
layerId = "5E1A2ACF-25BB-4872-A226-5327BC7330DB";
paths = (
{
closed = 1;
nodes = (
"283 -7 OFFCURVE",
"289 62 OFFCURVE",
"289 124 CURVE SMOOTH",
"289 167 LINE",
"278 167 LINE",
"278 127 LINE SMOOTH",
"278 68 OFFCURVE",
"273 3 OFFCURVE",
"170 3 CURVE SMOOTH",
"66 3 OFFCURVE",
"61 68 OFFCURVE",
"61 127 CURVE SMOOTH",
"61 369 LINE SMOOTH",
"61 428 OFFCURVE",
"66 493 OFFCURVE",
"170 493 CURVE SMOOTH",
"273 493 OFFCURVE",
"278 428 OFFCURVE",
"278 369 CURVE SMOOTH",
"278 328 LINE",
"289 328 LINE",
"289 372 LINE SMOOTH",
"289 433 OFFCURVE",
"283 503 OFFCURVE",
"170 503 CURVE SMOOTH",
"55 503 OFFCURVE",
"50 433 OFFCURVE",
"50 372 CURVE SMOOTH",
"50 124 LINE SMOOTH",
"50 62 OFFCURVE",
"55 -7 OFFCURVE",
"170 -7 CURVE SMOOTH"
);
}
);
width = 352;
}
);
leftKerningGroup = uni0431;
note = uni0441;
unicode = 0441;
},
{
color = 6;
glyphname = "te-cy";
lastChange = "2021-11-24 17:22:35 +0000";
layers = (
{
layerId = "5E1A2ACF-25BB-4872-A226-5327BC7330DB";
paths = (
{
closed = 1;
nodes = (
"145 0 LINE",
"145 484 LINE",
"259 484 LINE",
"259 495 LINE",
"20 495 LINE",
"20 484 LINE",
"133 484 LINE",
"133 0 LINE"
);
}
);
width = 291;
}
);
leftKerningGroup = uni0431;
note = uni0442;
unicode = 0442;
},
{
color = 6;
glyphname = "u-cy";
lastChange = "2021-11-24 17:22:35 +0000";
layers = (
{
layerId = "5E1A2ACF-25BB-4872-A226-5327BC7330DB";
paths = (
{
closed = 1;
nodes = (
"119 -115 OFFCURVE",
"146 -69 OFFCURVE",
"163 0 CURVE SMOOTH",
"285 495 LINE",
"273 495 LINE",
"155 14 LINE",
"39 495 LINE",
"26 495 LINE",
"149 -9 LINE",
"135 -82 OFFCURVE",
"90 -106 OFFCURVE",
"59 -106 CURVE SMOOTH",
"36 -106 OFFCURVE",
"13 -101 OFFCURVE",
"10 -100 CURVE",
"10 -109 LINE",
"13 -110 OFFCURVE",
"39 -115 OFFCURVE",
"59 -115 CURVE SMOOTH"
);
}
);
width = 310;
}
);
leftKerningGroup = uni0431;
note = uni0443;
unicode = 0443;
},
{
color = 6;
glyphname = "ushort-cy";
lastChange = "2021-11-24 17:22:35 +0000";
layers = (
{
layerId = "5E1A2ACF-25BB-4872-A226-5327BC7330DB";
paths = (
{
closed = 1;
nodes = (
"159 -115 OFFCURVE",
"186 -69 OFFCURVE",
"203 0 CURVE SMOOTH",
"325 495 LINE",
"313 495 LINE",
"195 14 LINE",
"79 495 LINE",
"66 495 LINE",
"189 -9 LINE",
"175 -82 OFFCURVE",
"130 -106 OFFCURVE",
"99 -106 CURVE SMOOTH",
"76 -106 OFFCURVE",
"53 -101 OFFCURVE",
"50 -100 CURVE",
"50 -109 LINE",
"53 -110 OFFCURVE",
"79 -115 OFFCURVE",
"99 -115 CURVE SMOOTH"
);
},
{
closed = 1;
nodes = (
"275 553 OFFCURVE",
"292 597 OFFCURVE",
"298 630 CURVE",
"287 630 LINE",
"280 582 OFFCURVE",
"249 561 OFFCURVE",
"209 561 CURVE SMOOTH",
"169 561 OFFCURVE",
"138 582 OFFCURVE",
"131 630 CURVE",
"120 630 LINE",
"126 597 OFFCURVE",
"145 553 OFFCURVE",
"209 553 CURVE SMOOTH"
);
}
);
width = 390;
}
);
leftKerningGroup = uni0431;
note = uni045E;
unicode = 045E;
},
{
color = 6;
glyphname = "ef-cy";
lastChange = "2021-11-24 17:22:35 +0000";
layers = (
{
layerId = "5E1A2ACF-25BB-4872-A226-5327BC7330DB";
paths = (
{
closed = 1;
nodes = (
"289 -116 LINE",
"289 48 LINE",
"302 16 OFFCURVE",
"331 -7 OFFCURVE",
"398 -7 CURVE SMOOTH",
"513 -7 OFFCURVE",
"517 62 OFFCURVE",
"517 124 CURVE SMOOTH",
"517 316 LINE SMOOTH",
"517 377 OFFCURVE",
"511 447 OFFCURVE",
"398 447 CURVE SMOOTH",
"331 447 OFFCURVE",
"302 424 OFFCURVE",
"289 393 CURVE",
"289 591 LINE",
"278 591 LINE",
"278 391 LINE",
"263 423 OFFCURVE",
"236 447 OFFCURVE",
"169 447 CURVE SMOOTH",
"54 447 OFFCURVE",
"50 377 OFFCURVE",
"50 316 CURVE SMOOTH",
"50 124 LINE SMOOTH",
"50 62 OFFCURVE",
"56 -7 OFFCURVE",
"169 -7 CURVE SMOOTH",
"236 -7 OFFCURVE",
"265 16 OFFCURVE",
"278 47 CURVE",
"278 -116 LINE"
);
},
{
closed = 1;
nodes = (
"66 3 OFFCURVE",
"61 68 OFFCURVE",
"61 127 CURVE SMOOTH",
"61 313 LINE SMOOTH",
"61 372 OFFCURVE",
"66 437 OFFCURVE",
"169 437 CURVE SMOOTH",
"272 437 OFFCURVE",
"278 372 OFFCURVE",
"278 313 CURVE SMOOTH",
"278 109 LINE SMOOTH",
"278 56 OFFCURVE",
"262 3 OFFCURVE",
"169 3 CURVE SMOOTH"
);
},
{
closed = 1;
nodes = (
"303 3 OFFCURVE",
"289 58 OFFCURVE",
"289 113 CURVE SMOOTH",
"289 331 LINE SMOOTH",
"289 384 OFFCURVE",
"305 437 OFFCURVE",
"398 437 CURVE SMOOTH",
"501 437 OFFCURVE",
"506 372 OFFCURVE",
"506 313 CURVE SMOOTH",
"506 127 LINE SMOOTH",
"506 68 OFFCURVE",
"501 3 OFFCURVE",
"398 3 CURVE SMOOTH"
);
}
);
width = 583;
}
);
note = uni0444;
unicode = 0444;
},
{
color = 6;
glyphname = "ha-cy";
lastChange = "2021-11-24 17:22:35 +0000";
layers = (
{
layerId = "5E1A2ACF-25BB-4872-A226-5327BC7330DB";
paths = (
{
closed = 1;
nodes = (
"37 0 LINE",
"66 88 OFFCURVE",
"106 173 OFFCURVE",
"134 257 CURVE",
"152 257 LINE",
"251 0 LINE",
"266 0 LINE",
"163 263 LINE",
"256 495 LINE",
"242 495 LINE",
"152 268 LINE",
"134 268 LINE",
"52 495 LINE",
"38 495 LINE",
"124 263 LINE",
"22 0 LINE"
);
}
);
width = 309;
}
);
leftKerningGroup = uni0431;
note = uni0445;
unicode = 0445;
},
{
color = 6;
glyphname = "che-cy";
lastChange = "2021-11-24 17:22:35 +0000";
layers = (
{
layerId = "5E1A2ACF-25BB-4872-A226-5327BC7330DB";
paths = (
{
closed = 1;
nodes = (
"224 0 LINE",
"236 0 LINE",
"236 495 LINE",
"224 495 LINE",
"224 239 LINE",
"219 204 OFFCURVE",
"193 163 OFFCURVE",
"132 163 CURVE SMOOTH",
"47 163 OFFCURVE",
"42 228 OFFCURVE",
"42 287 CURVE SMOOTH",
"42 495 LINE",
"30 495 LINE",
"30 284 LINE SMOOTH",
"30 222 OFFCURVE",
"37 153 OFFCURVE",
"132 153 CURVE SMOOTH",
"184 153 OFFCURVE",
"212 180 OFFCURVE",
"224 211 CURVE"
);
}
);
width = 309;
}
);
note = uni0447;
unicode = 0447;
},
{
color = 6;
glyphname = "tse-cy";
lastChange = "2021-11-24 17:22:35 +0000";
layers = (
{
layerId = "5E1A2ACF-25BB-4872-A226-5327BC7330DB";
paths = (
{
closed = 1;
nodes = (
"314 -65 LINE",
"314 11 LINE",
"290 11 LINE",
"290 495 LINE",
"278 495 LINE",
"278 11 LINE",
"62 11 LINE",
"62 495 LINE",
"50 495 LINE",
"50 0 LINE",
"303 0 LINE",
"303 -65 LINE"
);
}
);
width = 385;
}
);
leftKerningGroup = uni0431;
note = uni0446;
rightKerningGroup = uni0432;
unicode = 0446;
},
{
color = 6;
glyphname = "sha-cy";
lastChange = "2021-11-24 17:22:35 +0000";
layers = (
{
layerId = "5E1A2ACF-25BB-4872-A226-5327BC7330DB";
paths = (
{
closed = 1;
nodes = (
"454 0 LINE",
"454 495 LINE",
"442 495 LINE",
"442 11 LINE",
"258 11 LINE",
"258 495 LINE",
"246 495 LINE",
"246 11 LINE",
"62 11 LINE",
"62 495 LINE",
"50 495 LINE",
"50 0 LINE"
);
}
);
width = 500;
}
);
leftKerningGroup = uni0431;
note = uni0448;
unicode = 0448;
},
{
color = 6;
glyphname = "shcha-cy";
lastChange = "2021-11-24 17:22:35 +0000";
layers = (
{
layerId = "5E1A2ACF-25BB-4872-A226-5327BC7330DB";
paths = (
{
closed = 1;
nodes = (
"478 -65 LINE",
"478 11 LINE",
"454 11 LINE",
"454 495 LINE",
"442 495 LINE",
"442 11 LINE",
"258 11 LINE",
"258 495 LINE",
"246 495 LINE",
"246 11 LINE",
"62 11 LINE",
"62 495 LINE",
"50 495 LINE",
"50 0 LINE",
"467 0 LINE",
"467 -65 LINE"
);
}
);
width = 534;
}
);
leftKerningGroup = uni0431;
note = uni0449;
rightKerningGroup = uni0432;
unicode = 0449;
},
{
color = 6;
glyphname = "dzhe-cy";
lastChange = "2021-11-24 17:22:35 +0000";
layers = (
{
layerId = "5E1A2ACF-25BB-4872-A226-5327BC7330DB";
paths = (
{
closed = 1;
nodes = (
"177 -113 LINE",
"177 0 LINE",
"290 0 LINE",
"290 495 LINE",
"278 495 LINE",
"278 11 LINE",
"62 11 LINE",
"62 495 LINE",
"50 495 LINE",
"50 0 LINE",
"166 0 LINE",
"166 -113 LINE"
);
}
);
width = 354;
}
);
leftKerningGroup = uni0431;
note = uni045F;
unicode = 045F;
},
{
color = 6;
glyphname = "softsign-cy";
lastChange = "2021-11-24 17:22:35 +0000";
layers = (
{
layerId = "5E1A2ACF-25BB-4872-A226-5327BC7330DB";
paths = (
{
closed = 1;
nodes = (
"170 0 LINE SMOOTH",
"283 0 OFFCURVE",
"289 69 OFFCURVE",
"289 131 CURVE SMOOTH",
"289 208 LINE SMOOTH",
"289 269 OFFCURVE",
"283 339 OFFCURVE",
"170 339 CURVE SMOOTH",
"61 339 LINE",
"61 492 LINE",
"50 492 LINE",
"50 0 LINE"
);
},
{
closed = 1;
nodes = (
"61 329 LINE",
"170 329 LINE SMOOTH",
"273 329 OFFCURVE",
"278 264 OFFCURVE",
"278 205 CURVE SMOOTH",
"278 134 LINE SMOOTH",
"278 75 OFFCURVE",
"273 10 OFFCURVE",
"170 10 CURVE SMOOTH",
"61 10 LINE"
);
}
);
width = 351;
}
);
leftKerningGroup = uni0431;
note = uni044C;
unicode = 044C;
},
{
color = 6;
glyphname = "hardsign-cy";
lastChange = "2021-11-24 17:22:35 +0000";
layers = (
{
layerId = "5E1A2ACF-25BB-4872-A226-5327BC7330DB";
paths = (
{
closed = 1;
nodes = (
"236 0 LINE SMOOTH",
"349 0 OFFCURVE",
"355 69 OFFCURVE",
"355 131 CURVE SMOOTH",
"355 208 LINE SMOOTH",
"355 269 OFFCURVE",
"349 339 OFFCURVE",
"236 339 CURVE SMOOTH",
"127 339 LINE",
"127 495 LINE",
"50 495 LINE",
"50 484 LINE",
"116 484 LINE",
"116 0 LINE"
);
},
{
closed = 1;
nodes = (
"127 329 LINE",
"236 329 LINE SMOOTH",
"339 329 OFFCURVE",
"344 264 OFFCURVE",
"344 205 CURVE SMOOTH",
"344 134 LINE SMOOTH",
"344 75 OFFCURVE",
"339 10 OFFCURVE",
"236 10 CURVE SMOOTH",
"127 10 LINE"
);
}
);
width = 423;
}
);
leftKerningGroup = uni0431;
note = uni044A;
unicode = 044A;
},
{
color = 6;
glyphname = "yeru-cy";
lastChange = "2021-11-24 17:22:35 +0000";
layers = (
{
layerId = "5E1A2ACF-25BB-4872-A226-5327BC7330DB";
paths = (
{
closed = 1;
nodes = (
"216 0 LINE SMOOTH",
"329 0 OFFCURVE",
"335 69 OFFCURVE",
"335 131 CURVE SMOOTH",
"335 208 LINE SMOOTH",
"335 269 OFFCURVE",
"329 339 OFFCURVE",
"216 339 CURVE SMOOTH",
"107 339 LINE",
"107 495 LINE",
"30 495 LINE",
"30 484 LINE",
"96 484 LINE",
"96 0 LINE"
);
},
{
closed = 1;
nodes = (
"107 329 LINE",
"216 329 LINE SMOOTH",
"319 329 OFFCURVE",
"324 264 OFFCURVE",
"324 205 CURVE SMOOTH",
"324 134 LINE SMOOTH",
"324 75 OFFCURVE",
"319 10 OFFCURVE",
"216 10 CURVE SMOOTH",
"107 10 LINE"
);
},
{
closed = 1;
nodes = (
"388 0 LINE",
"399 0 LINE",
"399 495 LINE",
"388 495 LINE"
);
}
);
width = 478;
}
);
leftKerningGroup = uni0431;
note = uni044B;
unicode = 044B;
},
{
color = 6;
glyphname = "lje-cy";
lastChange = "2021-11-24 17:22:35 +0000";
layers = (
{
layerId = "5E1A2ACF-25BB-4872-A226-5327BC7330DB";
paths = (
{
closed = 1;
nodes = (
"101 0 OFFCURVE",
"107 77 OFFCURVE",
"107 92 CURVE",
"142 484 LINE",
"298 484 LINE",
"298 0 LINE",
"418 0 LINE SMOOTH",
"531 0 OFFCURVE",
"537 69 OFFCURVE",
"537 131 CURVE SMOOTH",
"537 208 LINE SMOOTH",
"537 269 OFFCURVE",
"531 339 OFFCURVE",
"418 339 CURVE SMOOTH",
"310 339 LINE",
"310 495 LINE",
"130 495 LINE",
"95 92 LINE SMOOTH",
"91 36 OFFCURVE",
"77 11 OFFCURVE",
"50 11 CURVE",
"50 0 LINE"
);
},
{
closed = 1;
nodes = (
"310 329 LINE",
"418 329 LINE SMOOTH",
"521 329 OFFCURVE",
"526 264 OFFCURVE",
"526 205 CURVE SMOOTH",
"526 134 LINE SMOOTH",
"526 75 OFFCURVE",
"521 10 OFFCURVE",
"418 10 CURVE SMOOTH",
"310 10 LINE"
);
}
);
width = 603;
}
);
leftKerningGroup = uni043B;
note = uni0459;
unicode = 0459;
},
{
color = 6;
glyphname = "nje-cy";
lastChange = "2021-11-24 17:22:35 +0000";
layers = (
{
layerId = "5E1A2ACF-25BB-4872-A226-5327BC7330DB";
paths = (
{
closed = 1;
nodes = (
"61 0 LINE",
"61 246 LINE",
"148 246 LINE",
"148 0 LINE",
"268 0 LINE SMOOTH",
"381 0 OFFCURVE",
"387 69 OFFCURVE",
"387 131 CURVE SMOOTH",
"387 208 LINE SMOOTH",
"387 269 OFFCURVE",
"381 339 OFFCURVE",
"268 339 CURVE SMOOTH",
"159 339 LINE",
"159 492 LINE",
"148 492 LINE",
"148 255 LINE",
"61 255 LINE",
"61 495 LINE",
"50 495 LINE",
"50 0 LINE"
);
},
{
closed = 1;
nodes = (
"159 329 LINE",
"268 329 LINE SMOOTH",
"371 329 OFFCURVE",
"376 264 OFFCURVE",
"376 205 CURVE SMOOTH",
"376 134 LINE SMOOTH",
"376 75 OFFCURVE",
"371 10 OFFCURVE",
"268 10 CURVE SMOOTH",
"159 10 LINE"
);
}
);
width = 470;
}
);
leftKerningGroup = uni0431;
note = uni045A;
unicode = 045A;
},
{
color = 6;
glyphname = "dze-cy";
lastChange = "2021-11-24 17:22:35 +0000";
layers = (
{
layerId = "5E1A2ACF-25BB-4872-A226-5327BC7330DB";
paths = (
{
closed = 1;
nodes = (
"231 -6 OFFCURVE",
"288 19 OFFCURVE",
"288 96 CURVE SMOOTH",
"288 134 LINE SMOOTH",
"288 217 OFFCURVE",
"222 238 OFFCURVE",
"163 265 CURVE SMOOTH",
"111 287 OFFCURVE",
"65 311 OFFCURVE",
"65 372 CURVE SMOOTH",
"65 404 LINE SMOOTH",
"65 455 OFFCURVE",
"103 492 OFFCURVE",
"170 492 CURVE SMOOTH",
"237 492 OFFCURVE",
"278 465 OFFCURVE",
"278 401 CURVE SMOOTH",
"278 336 LINE",
"289 336 LINE",
"289 401 LINE SMOOTH",
"289 473 OFFCURVE",
"239 502 OFFCURVE",
"170 502 CURVE SMOOTH",
"99 502 OFFCURVE",
"54 460 OFFCURVE",
"54 404 CURVE SMOOTH",
"54 370 LINE SMOOTH",
"54 304 OFFCURVE",
"110 275 OFFCURVE",
"161 254 CURVE SMOOTH",
"216 230 OFFCURVE",
"277 209 OFFCURVE",
"277 134 CURVE SMOOTH",
"277 96 LINE SMOOTH",
"277 28 OFFCURVE",
"231 4 OFFCURVE",
"168 4 CURVE SMOOTH",
"103 4 OFFCURVE",
"61 34 OFFCURVE",
"61 99 CURVE SMOOTH",
"61 166 LINE",
"50 166 LINE",
"50 99 LINE SMOOTH",
"50 26 OFFCURVE",
"99 -6 OFFCURVE",
"168 -6 CURVE SMOOTH"
);
}
);
width = 352;
}
);
note = uni0455;
unicode = 0455;
},
{
color = 6;
glyphname = "e-cy";
lastChange = "2021-11-24 17:22:35 +0000";
layers = (
{
layerId = "5E1A2ACF-25BB-4872-A226-5327BC7330DB";
paths = (
{
closed = 1;
nodes = (
"281 -7 OFFCURVE",
"287 62 OFFCURVE",
"287 124 CURVE SMOOTH",
"287 167 LINE",
"276 167 LINE",
"276 127 LINE SMOOTH",
"276 68 OFFCURVE",
"271 3 OFFCURVE",
"168 3 CURVE SMOOTH",
"64 3 OFFCURVE",
"59 68 OFFCURVE",
"59 127 CURVE SMOOTH",
"59 246 LINE",
"220 246 LINE",
"220 255 LINE",
"59 255 LINE",
"59 369 LINE SMOOTH",
"59 428 OFFCURVE",
"64 493 OFFCURVE",
"168 493 CURVE SMOOTH",
"271 493 OFFCURVE",
"276 428 OFFCURVE",
"276 369 CURVE SMOOTH",
"276 328 LINE",
"287 328 LINE",
"287 372 LINE SMOOTH",
"287 433 OFFCURVE",
"281 503 OFFCURVE",
"168 503 CURVE SMOOTH",
"53 503 OFFCURVE",
"48 433 OFFCURVE",
"48 372 CURVE SMOOTH",
"48 124 LINE SMOOTH",
"48 62 OFFCURVE",
"53 -7 OFFCURVE",
"168 -7 CURVE SMOOTH"
);
}
);
width = 350;
}
);
leftKerningGroup = uni0431;
note = uni0454;
unicode = 0454;
},
{
color = 6;
glyphname = "ereversed-cy";
lastChange = "2021-11-24 17:22:35 +0000";
layers = (
{
layerId = "5E1A2ACF-25BB-4872-A226-5327BC7330DB";
paths = (
{
closed = 1;
nodes = (
"284 -7 OFFCURVE",
"289 62 OFFCURVE",
"289 124 CURVE SMOOTH",
"289 372 LINE SMOOTH",
"289 433 OFFCURVE",
"284 503 OFFCURVE",
"169 503 CURVE SMOOTH",
"56 503 OFFCURVE",
"50 433 OFFCURVE",
"50 372 CURVE SMOOTH",
"50 328 LINE",
"61 328 LINE",
"61 369 LINE SMOOTH",
"61 428 OFFCURVE",
"66 493 OFFCURVE",
"169 493 CURVE SMOOTH",
"273 493 OFFCURVE",
"278 428 OFFCURVE",
"278 369 CURVE SMOOTH",
"278 255 LINE",
"135 255 LINE",
"135 246 LINE",
"278 246 LINE",
"278 127 LINE SMOOTH",
"278 68 OFFCURVE",
"273 3 OFFCURVE",
"169 3 CURVE SMOOTH",
"66 3 OFFCURVE",
"61 68 OFFCURVE",
"61 127 CURVE SMOOTH",
"61 167 LINE",
"50 167 LINE",
"50 124 LINE SMOOTH",
"50 62 OFFCURVE",
"56 -7 OFFCURVE",
"169 -7 CURVE SMOOTH"
);
}
);
width = 351;
}
);
note = uni044D;
unicode = 044D;
},
{
color = 6;
glyphname = "i-cy";
lastChange = "2021-11-24 17:22:35 +0000";
layers = (
{
layerId = "5E1A2ACF-25BB-4872-A226-5327BC7330DB";
paths = (
{
closed = 1;
nodes = (
"57 0 LINE",
"68 0 LINE",
"68 495 LINE",
"57 495 LINE"
);
},
{
closed = 1;
nodes = (
"72 619 OFFCURVE",
"76 623 OFFCURVE",
"76 631 CURVE SMOOTH",
"76 639 OFFCURVE",
"72 643 OFFCURVE",
"63 643 CURVE SMOOTH",
"54 643 OFFCURVE",
"50 639 OFFCURVE",
"50 631 CURVE SMOOTH",
"50 623 OFFCURVE",
"54 619 OFFCURVE",
"63 619 CURVE SMOOTH"
);
}
);
width = 136;
}
);
leftKerningGroup = uni0431;
note = uni0456;
unicode = 0456;
},
{
color = 6;
glyphname = "yi-cy";
lastChange = "2021-11-24 17:22:35 +0000";
layers = (
{
layerId = "5E1A2ACF-25BB-4872-A226-5327BC7330DB";
paths = (
{
closed = 1;
nodes = (
"108 0 LINE",
"119 0 LINE",
"119 495 LINE",
"108 495 LINE"
);
},
{
closed = 1;
nodes = (
"77 591 OFFCURVE",
"82 596 OFFCURVE",
"82 607 CURVE SMOOTH",
"82 618 OFFCURVE",
"77 623 OFFCURVE",
"66 623 CURVE SMOOTH",
"55 623 OFFCURVE",
"50 618 OFFCURVE",
"50 607 CURVE SMOOTH",
"50 596 OFFCURVE",
"55 591 OFFCURVE",
"66 591 CURVE SMOOTH"
);
},
{
closed = 1;
nodes = (
"173 591 OFFCURVE",
"178 596 OFFCURVE",
"178 607 CURVE SMOOTH",
"178 618 OFFCURVE",
"173 623 OFFCURVE",
"162 623 CURVE SMOOTH",
"151 623 OFFCURVE",
"146 618 OFFCURVE",
"146 607 CURVE SMOOTH",
"146 596 OFFCURVE",
"151 591 OFFCURVE",
"162 591 CURVE SMOOTH"
);
}
);
width = 244;
}
);
leftKerningGroup = uni0431;
note = uni0457;
unicode = 0457;
},
{
color = 6;
glyphname = "je-cy";
lastChange = "2021-11-24 17:22:37 +0000";
layers = (
{
layerId = "5E1A2ACF-25BB-4872-A226-5327BC7330DB";
paths = (
{
closed = 1;
nodes = (
"86 -115 LINE SMOOTH",
"135 -112 OFFCURVE",
"170 -91 OFFCURVE",
"170 -31 CURVE SMOOTH",
"170 495 LINE",
"159 495 LINE",
"159 -32 LINE SMOOTH",
"159 -85 OFFCURVE",
"123 -106 OFFCURVE",
"71 -106 CURVE SMOOTH",
"64 -106 OFFCURVE",
"57 -105 OFFCURVE",
"50 -104 CURVE",
"50 -114 LINE",
"58 -115 OFFCURVE",
"67 -115 OFFCURVE",
"76 -115 CURVE SMOOTH"
);
},
{
closed = 1;
nodes = (
"174 619 OFFCURVE",
"178 623 OFFCURVE",
"178 631 CURVE SMOOTH",
"178 639 OFFCURVE",
"174 643 OFFCURVE",
"165 643 CURVE SMOOTH",
"156 643 OFFCURVE",
"152 639 OFFCURVE",
"152 631 CURVE SMOOTH",
"152 623 OFFCURVE",
"156 619 OFFCURVE",
"165 619 CURVE SMOOTH"
);
}
);
width = 238;
}
);
leftKerningGroup = uni0431;
note = uni0458;
unicode = 0458;
},
{
color = 6;
glyphname = "tshe-cy";
lastChange = "2021-11-24 17:22:35 +0000";
layers = (
{
layerId = "5E1A2ACF-25BB-4872-A226-5327BC7330DB";
paths = (
{
closed = 1;
nodes = (
"107 0 LINE",
"107 359 LINE",
"112 394 OFFCURVE",
"143 435 OFFCURVE",
"216 435 CURVE SMOOTH",
"320 435 OFFCURVE",
"323 370 OFFCURVE",
"323 311 CURVE SMOOTH",
"323 0 LINE",
"335 0 LINE",
"335 314 LINE SMOOTH",
"335 375 OFFCURVE",
"329 445 OFFCURVE",
"216 445 CURVE SMOOTH",
"153 445 OFFCURVE",
"122 418 OFFCURVE",
"107 387 CURVE",
"107 537 LINE",
"223 537 LINE",
"223 548 LINE",
"107 548 LINE",
"107 630 LINE",
"95 630 LINE",
"95 548 LINE",
"50 548 LINE",
"50 537 LINE",
"95 537 LINE",
"95 0 LINE"
);
}
);
width = 352;
}
);
leftKerningGroup = uni0431;
note = uni045B;
unicode = 045B;
},
{
color = 6;
glyphname = "iu-cy";
lastChange = "2021-11-24 17:22:35 +0000";
layers = (
{
layerId = "5E1A2ACF-25BB-4872-A226-5327BC7330DB";
paths = (
{
closed = 1;
nodes = (
"472 -7 OFFCURVE",
"478 62 OFFCURVE",
"478 124 CURVE SMOOTH",
"478 372 LINE SMOOTH",
"478 433 OFFCURVE",
"472 503 OFFCURVE",
"359 503 CURVE SMOOTH",
"244 503 OFFCURVE",
"239 433 OFFCURVE",
"239 372 CURVE SMOOTH",
"239 255 LINE",
"61 255 LINE",
"61 495 LINE",
"50 495 LINE",
"50 0 LINE",
"61 0 LINE",
"61 246 LINE",
"239 246 LINE",
"239 124 LINE SMOOTH",
"239 62 OFFCURVE",
"244 -7 OFFCURVE",
"359 -7 CURVE SMOOTH"
);
},
{
closed = 1;
nodes = (
"255 3 OFFCURVE",
"250 68 OFFCURVE",
"250 127 CURVE SMOOTH",
"250 369 LINE SMOOTH",
"250 428 OFFCURVE",
"255 493 OFFCURVE",
"359 493 CURVE SMOOTH",
"462 493 OFFCURVE",
"467 428 OFFCURVE",
"467 369 CURVE SMOOTH",
"467 127 LINE SMOOTH",
"467 68 OFFCURVE",
"462 3 OFFCURVE",
"359 3 CURVE SMOOTH"
);
}
);
width = 548;
}
);
leftKerningGroup = uni0431;
note = uni044E;
unicode = 044E;
},
{
color = 6;
glyphname = "ia-cy";
lastChange = "2021-11-24 17:22:35 +0000";
layers = (
{
layerId = "5E1A2ACF-25BB-4872-A226-5327BC7330DB";
paths = (
{
closed = 1;
nodes = (
"64 0 LINE",
"125 156 LINE SMOOTH",
"145 207 OFFCURVE",
"167 243 OFFCURVE",
"208 243 CURVE SMOOTH",
"295 243 LINE",
"295 0 LINE",
"307 0 LINE",
"307 495 LINE",
"177 495 LINE SMOOTH",
"120 495 OFFCURVE",
"71 470 OFFCURVE",
"71 398 CURVE SMOOTH",
"71 362 LINE SMOOTH",
"71 279 OFFCURVE",
"122 247 OFFCURVE",
"185 247 CURVE",
"154 244 OFFCURVE",
"129 206 OFFCURVE",
"119 175 CURVE",
"50 0 LINE"
);
},
{
closed = 1;
nodes = (
"134 254 OFFCURVE",
"83 282 OFFCURVE",
"83 360 CURVE SMOOTH",
"83 400 LINE SMOOTH",
"83 457 OFFCURVE",
"124 484 OFFCURVE",
"169 484 CURVE SMOOTH",
"295 484 LINE",
"295 254 LINE",
"202 254 LINE SMOOTH"
);
}
);
width = 369;
}
);
leftKerningGroup = uni043B;
note = uni044F;
unicode = 044F;
},
{
color = 6;
glyphname = "dje-cy";
lastChange = "2021-11-24 17:22:35 +0000";
layers = (
{
layerId = "5E1A2ACF-25BB-4872-A226-5327BC7330DB";
paths = (
{
closed = 1;
nodes = (
"296 -94 OFFCURVE",
"348 -86 OFFCURVE",
"348 61 CURVE SMOOTH",
"348 302 LINE SMOOTH",
"348 363 OFFCURVE",
"342 433 OFFCURVE",
"229 433 CURVE SMOOTH",
"166 433 OFFCURVE",
"135 406 OFFCURVE",
"120 375 CURVE",
"120 537 LINE",
"223 537 LINE",
"223 548 LINE",
"120 548 LINE",
"120 630 LINE",
"108 630 LINE",
"108 548 LINE",
"50 548 LINE",
"50 537 LINE",
"108 537 LINE",
"108 0 LINE",
"120 0 LINE",
"120 347 LINE",
"125 382 OFFCURVE",
"156 423 OFFCURVE",
"229 423 CURVE SMOOTH",
"333 423 OFFCURVE",
"336 358 OFFCURVE",
"336 299 CURVE SMOOTH",
"336 66 LINE SMOOTH",
"336 -26 OFFCURVE",
"324 -84 OFFCURVE",
"247 -84 CURVE SMOOTH",
"224 -84 OFFCURVE",
"208 -78 OFFCURVE",
"199 -73 CURVE",
"194 -82 LINE",
"205 -89 OFFCURVE",
"223 -94 OFFCURVE",
"246 -94 CURVE SMOOTH"
);
}
);
width = 406;
}
);
leftKerningGroup = uni0431;
note = uni0452;
unicode = 0452;
},
{
glyphname = "yat-cy";
lastChange = "2021-11-24 01:03:11 +0000";
layers = (
{
associatedMasterId = "5E1A2ACF-25BB-4872-A226-5327BC7330DB";
background = {
components = (
{
name = hyphen;
transform = "{1.49953, 0, 0, 0.66803, -40, 220}";
}
);
paths = (
{
closed = 1;
nodes = (
"272 0 LINE SMOOTH",
"348 0 OFFCURVE",
"408 10 OFFCURVE",
"408 161 CURVE SMOOTH",
"408 228 LINE SMOOTH",
"408 327 OFFCURVE",
"346 340 OFFCURVE",
"297 340 CURVE SMOOTH",
"218 340 LINE",
"218 495 LINE",
"62 495 LINE",
"62 0 LINE"
);
},
{
closed = 1;
nodes = (
"218 245 LINE",
"235 245 LINE SMOOTH",
"251 245 OFFCURVE",
"252 238 OFFCURVE",
"252 206 CURVE SMOOTH",
"252 110 LINE SMOOTH",
"252 87 OFFCURVE",
"250 79 OFFCURVE",
"235 79 CURVE SMOOTH",
"218 79 LINE"
);
}
);
};
components = (
{
name = hyphen;
transform = "{1.49953, 0, 0, 0.66803, -40, 220}";
}
);
layerId = "8A3706BD-364F-4FE3-9C2E-7E87DF0DB4CC";
name = Black;
paths = (
{
closed = 1;
nodes = (
"272 0 LINE SMOOTH",
"348 0 OFFCURVE",
"408 10 OFFCURVE",
"408 161 CURVE SMOOTH",
"408 228 LINE SMOOTH",
"408 327 OFFCURVE",
"346 340 OFFCURVE",
"297 340 CURVE SMOOTH",
"218 340 LINE",
"218 495 LINE",
"62 495 LINE",
"62 0 LINE"
);
},
{
closed = 1;
nodes = (
"218 245 LINE",
"235 245 LINE SMOOTH",
"251 245 OFFCURVE",
"252 238 OFFCURVE",
"252 206 CURVE SMOOTH",
"252 110 LINE SMOOTH",
"252 87 OFFCURVE",
"250 79 OFFCURVE",
"235 79 CURVE SMOOTH",
"218 79 LINE"
);
}
);
width = 433;
},
{
components = (
{
name = "softsign-cy";
},
{
alignment = -1;
name = hyphen;
transform = "{1.01469, 0, 0, 0.99024, -38, 159}";
}
);
layerId = "5E1A2ACF-25BB-4872-A226-5327BC7330DB";
width = 351;
}
);
unicode = 0463;
},
{
glyphname = "yusbig-cy";
lastChange = "2021-11-24 17:22:35 +0000";
layers = (
{
associatedMasterId = "5E1A2ACF-25BB-4872-A226-5327BC7330DB";
background = {
paths = (
{
closed = 1;
nodes = (
"168 0 LINE",
"200 193 LINE SMOOTH",
"202 201 OFFCURVE",
"203 210 OFFCURVE",
"204 219 CURVE SMOOTH",
"209 250 LINE",
"210 0 LINE",
"350 0 LINE",
"350 251 LINE",
"358 209 LINE",
"358 202 OFFCURVE",
"360 194 OFFCURVE",
"361 188 CURVE SMOOTH",
"392 0 LINE",
"540 0 LINE",
"494 212 LINE",
"478 255 OFFCURVE",
"453 279 OFFCURVE",
"430 281 CURVE SMOOTH",
"385 284 LINE",
"533 405 LINE",
"533 495 LINE",
"22 495 LINE",
"22 405 LINE",
"170 283 LINE",
"130 281 LINE SMOOTH",
"107 279 OFFCURVE",
"82 255 OFFCURVE",
"66 212 CURVE",
"20 0 LINE"
);
},
{
closed = 1;
nodes = (
"174 405 LINE",
"380 405 LINE",
"277 331 LINE"
);
}
);
};
layerId = "8A3706BD-364F-4FE3-9C2E-7E87DF0DB4CC";
name = Black;
paths = (
{
closed = 1;
nodes = (
"168 0 LINE",
"200 193 LINE SMOOTH",
"202 201 OFFCURVE",
"203 210 OFFCURVE",
"204 219 CURVE SMOOTH",
"209 250 LINE",
"210 0 LINE",
"350 0 LINE",
"350 251 LINE",
"358 209 LINE",
"358 202 OFFCURVE",
"360 194 OFFCURVE",
"361 188 CURVE SMOOTH",
"392 0 LINE",
"540 0 LINE",
"494 212 LINE",
"478 255 OFFCURVE",
"453 279 OFFCURVE",
"430 281 CURVE SMOOTH",
"385 284 LINE",
"533 405 LINE",
"533 495 LINE",
"22 495 LINE",
"22 405 LINE",
"170 283 LINE",
"130 281 LINE SMOOTH",
"107 279 OFFCURVE",
"82 255 OFFCURVE",
"66 212 CURVE",
"20 0 LINE"
);
},
{
closed = 1;
nodes = (
"174 405 LINE",
"380 405 LINE",
"277 331 LINE"
);
}
);
width = 661;
},
{
layerId = "5E1A2ACF-25BB-4872-A226-5327BC7330DB";
paths = (
{
closed = 1;
nodes = (
"55 0 LINE",
"108 187 LINE SMOOTH",
"118 221 OFFCURVE",
"129 262 OFFCURVE",
"185 262 CURVE SMOOTH",
"273 262 LINE",
"273 0 LINE",
"285 0 LINE",
"285 262 LINE",
"365 262 LINE SMOOTH",
"420 262 OFFCURVE",
"441 226 OFFCURVE",
"452 187 CURVE SMOOTH",
"503 0 LINE",
"515 0 LINE",
"461 189 LINE SMOOTH",
"449 230 OFFCURVE",
"436 272 OFFCURVE",
"357 272 CURVE SMOOTH",
"292 272 LINE",
"533 483 LINE",
"533 495 LINE",
"25 495 LINE",
"25 483 LINE",
"267 272 LINE",
"187 272 LINE SMOOTH",
"127 272 OFFCURVE",
"109 230 OFFCURVE",
"98 189 CURVE SMOOTH",
"43 0 LINE"
);
},
{
closed = 1;
nodes = (
"43 484 LINE",
"516 484 LINE",
"280 275 LINE"
);
}
);
width = 558;
}
);
unicode = 046B;
},
{
color = 6;
glyphname = Omega;
lastChange = "2021-11-24 17:22:35 +0000";
layers = (
{
layerId = "5E1A2ACF-25BB-4872-A226-5327BC7330DB";
paths = (
{
closed = 1;
nodes = (
"257 0 LINE",
"257 6 LINE",
"111 109 OFFCURVE",
"104 226 OFFCURVE",
"104 322 CURVE SMOOTH",
"104 458 OFFCURVE",
"169 554 OFFCURVE",
"299 554 CURVE SMOOTH",
"430 554 OFFCURVE",
"493 459 OFFCURVE",
"493 347 CURVE SMOOTH",
"493 227 OFFCURVE",
"488 113 OFFCURVE",
"339 6 CURVE",
"339 0 LINE",
"548 0 LINE",
"548 11 LINE",
"367 11 LINE",
"508 128 OFFCURVE",
"508 234 OFFCURVE",
"508 337 CURVE SMOOTH",
"508 465 OFFCURVE",
"437 564 OFFCURVE",
"299 564 CURVE SMOOTH",
"160 564 OFFCURVE",
"89 466 OFFCURVE",
"89 331 CURVE SMOOTH",
"89 231 OFFCURVE",
"89 129 OFFCURVE",
"231 11 CURVE",
"50 11 LINE",
"50 0 LINE"
);
}
);
width = 599;
}
);
note = uni03A9;
unicode = 03A9;
},
{
color = 6;
glyphname = pi;
lastChange = "2021-11-24 17:22:35 +0000";
layers = (
{
layerId = "5E1A2ACF-25BB-4872-A226-5327BC7330DB";
paths = (
{
closed = 1;
nodes = (
"132 0 LINE",
"167 168 OFFCURVE",
"198 349 OFFCURVE",
"198 483 CURVE",
"406 483 LINE",
"406 0 LINE",
"418 0 LINE",
"418 483 LINE",
"503 483 LINE",
"503 495 LINE",
"215 495 LINE SMOOTH",
"125 495 OFFCURVE",
"88 486 OFFCURVE",
"50 470 CURVE",
"50 459 LINE",
"91 475 OFFCURVE",
"129 481 OFFCURVE",
"186 484 CURVE",
"186 326 OFFCURVE",
"144 112 OFFCURVE",
"120 0 CURVE"
);
}
);
width = 556;
}
);
note = pi;
unicode = 03C0;
},
{
color = 6;
glyphname = zero;
lastChange = "2021-12-01 10:02:01 +0000";
layers = (
{
layerId = "5E1A2ACF-25BB-4872-A226-5327BC7330DB";
paths = (
{
closed = 1;
nodes = (
"249 -12 OFFCURVE",
"312 41 OFFCURVE",
"312 158 CURVE SMOOTH",
"312 428 LINE SMOOTH",
"312 544 OFFCURVE",
"249 599 OFFCURVE",
"172 599 CURVE SMOOTH",
"96 599 OFFCURVE",
"30 546 OFFCURVE",
"30 428 CURVE SMOOTH",
"30 158 LINE SMOOTH",
"30 41 OFFCURVE",
"94 -12 OFFCURVE",
"170 -12 CURVE SMOOTH"
);
},
{
closed = 1;
nodes = (
"99 -2 OFFCURVE",
"44 57 OFFCURVE",
"44 161 CURVE SMOOTH",
"44 426 LINE SMOOTH",
"44 530 OFFCURVE",
"99 589 OFFCURVE",
"171 589 CURVE SMOOTH",
"243 589 OFFCURVE",
"298 530 OFFCURVE",
"298 426 CURVE SMOOTH",
"298 161 LINE SMOOTH",
"298 57 OFFCURVE",
"244 -2 OFFCURVE",
"171 -2 CURVE SMOOTH"
);
}
);
width = 346;
}
);
leftKerningGroup = zero;
note = zero;
rightKerningGroup = zero;
unicode = 0030;
},
{
color = 6;
glyphname = one;
lastChange = "2021-12-01 10:02:01 +0000";
layers = (
{
layerId = "5E1A2ACF-25BB-4872-A226-5327BC7330DB";
paths = (
{
closed = 1;
nodes = (
"137 0 LINE",
"137 591 LINE",
"126 591 LINE",
"126 546 LINE SMOOTH",
"126 515 OFFCURVE",
"110 498 OFFCURVE",
"81 498 CURVE SMOOTH",
"40 498 LINE",
"40 488 LINE",
"125 488 LINE",
"125 0 LINE"
);
}
);
width = 192;
}
);
leftKerningGroup = one;
note = one;
rightKerningGroup = one;
unicode = 0031;
},
{
color = 6;
glyphname = two;
lastChange = "2021-12-01 10:02:01 +0000";
layers = (
{
layerId = "5E1A2ACF-25BB-4872-A226-5327BC7330DB";
paths = (
{
closed = 1;
nodes = (
"326 0 LINE",
"326 11 LINE",
"68 11 LINE",
"68 105 LINE SMOOTH",
"68 196 OFFCURVE",
"126 218 OFFCURVE",
"182 250 CURVE SMOOTH",
"274 301 OFFCURVE",
"321 358 OFFCURVE",
"321 450 CURVE SMOOTH",
"321 545 OFFCURVE",
"277 595 OFFCURVE",
"184 595 CURVE SMOOTH",
"100 595 OFFCURVE",
"50 551 OFFCURVE",
"50 458 CURVE SMOOTH",
"50 409 LINE",
"63 409 LINE",
"63 462 LINE SMOOTH",
"63 543 OFFCURVE",
"111 583 OFFCURVE",
"184 583 CURVE SMOOTH",
"267 583 OFFCURVE",
"307 538 OFFCURVE",
"307 454 CURVE SMOOTH",
"307 440 LINE SMOOTH",
"307 355 OFFCURVE",
"246 299 OFFCURVE",
"178 261 CURVE SMOOTH",
"104 222 OFFCURVE",
"54 195 OFFCURVE",
"54 105 CURVE SMOOTH",
"54 0 LINE"
);
}
);
width = 370;
}
);
leftKerningGroup = two;
note = two;
rightKerningGroup = two;
unicode = 0032;
},
{
color = 6;
glyphname = three;
lastChange = "2021-12-01 10:02:01 +0000";
layers = (
{
layerId = "5E1A2ACF-25BB-4872-A226-5327BC7330DB";
paths = (
{
closed = 1;
nodes = (
"232 -8 OFFCURVE",
"260 3 OFFCURVE",
"283 19 CURVE SMOOTH",
"319 46 OFFCURVE",
"332 88 OFFCURVE",
"332 137 CURVE SMOOTH",
"332 163 LINE SMOOTH",
"332 232 OFFCURVE",
"301 298 OFFCURVE",
"221 309 CURVE",
"285 321 OFFCURVE",
"326 373 OFFCURVE",
"326 442 CURVE SMOOTH",
"326 460 LINE SMOOTH",
"326 543 OFFCURVE",
"280 595 OFFCURVE",
"191 595 CURVE SMOOTH",
"102 595 OFFCURVE",
"56 543 OFFCURVE",
"56 460 CURVE SMOOTH",
"56 429 LINE",
"69 429 LINE",
"69 459 LINE SMOOTH",
"69 534 OFFCURVE",
"107 584 OFFCURVE",
"191 584 CURVE SMOOTH",
"275 584 OFFCURVE",
"313 534 OFFCURVE",
"313 459 CURVE SMOOTH",
"313 440 LINE SMOOTH",
"313 370 OFFCURVE",
"263 315 OFFCURVE",
"191 315 CURVE SMOOTH",
"127 315 LINE",
"127 303 LINE",
"191 303 LINE SMOOTH",
"274 303 OFFCURVE",
"320 247 OFFCURVE",
"320 163 CURVE SMOOTH",
"320 137 LINE SMOOTH",
"320 86 OFFCURVE",
"305 49 OFFCURVE",
"275 27 CURVE SMOOTH",
"254 12 OFFCURVE",
"226 3 OFFCURVE",
"191 2 CURVE SMOOTH",
"156 3 OFFCURVE",
"128 12 OFFCURVE",
"107 27 CURVE SMOOTH",
"77 49 OFFCURVE",
"62 86 OFFCURVE",
"62 137 CURVE SMOOTH",
"62 183 LINE",
"50 183 LINE",
"50 137 LINE SMOOTH",
"50 88 OFFCURVE",
"63 46 OFFCURVE",
"99 19 CURVE SMOOTH",
"122 3 OFFCURVE",
"150 -8 OFFCURVE",
"191 -8 CURVE SMOOTH"
);
}
);
width = 386;
}
);
leftKerningGroup = three;
note = three;
rightKerningGroup = three;
unicode = 0033;
},
{
color = 6;
glyphname = four;
lastChange = "2021-12-01 10:02:01 +0000";
layers = (
{
background = {
paths = (
{
closed = 1;
nodes = (
"273 0 LINE",
"273 124 LINE",
"325 124 LINE",
"325 135 LINE",
"273 135 LINE",
"273 591 LINE",
"265 591 LINE",
"35 134 LINE",
"35 124 LINE",
"261 124 LINE",
"261 0 LINE"
);
},
{
closed = 1;
nodes = (
"261 559 LINE",
"261 135 LINE",
"48 135 LINE"
);
}
);
};
layerId = "5E1A2ACF-25BB-4872-A226-5327BC7330DB";
paths = (
{
closed = 1;
nodes = (
"273 0 LINE",
"273 124 LINE",
"325 124 LINE",
"325 134 LINE",
"273 134 LINE",
"273 591 LINE",
"265 591 LINE",
"35 134 LINE",
"35 124 LINE",
"261 124 LINE",
"261 0 LINE"
);
},
{
closed = 1;
nodes = (
"261 559 LINE",
"261 134 LINE",
"47 134 LINE"
);
}
);
width = 382;
}
);
leftKerningGroup = four;
note = four;
rightKerningGroup = parenright;
unicode = 0034;
},
{
color = 6;
glyphname = five;
lastChange = "2021-12-01 10:02:01 +0000";
layers = (
{
layerId = "5E1A2ACF-25BB-4872-A226-5327BC7330DB";
paths = (
{
closed = 1;
nodes = (
"249 -8 OFFCURVE",
"325 19 OFFCURVE",
"325 163 CURVE SMOOTH",
"325 241 LINE SMOOTH",
"325 360 OFFCURVE",
"267 392 OFFCURVE",
"185 392 CURVE SMOOTH",
"129 392 OFFCURVE",
"83 369 OFFCURVE",
"59 328 CURVE",
"59 580 LINE",
"305 580 LINE",
"305 591 LINE",
"48 591 LINE",
"48 296 LINE",
"58 296 LINE",
"61 332 OFFCURVE",
"108 383 OFFCURVE",
"185 383 CURVE SMOOTH",
"290 383 OFFCURVE",
"314 317 OFFCURVE",
"314 242 CURVE SMOOTH",
"314 160 LINE SMOOTH",
"314 56 OFFCURVE",
"262 4 OFFCURVE",
"182 4 CURVE SMOOTH",
"58 4 OFFCURVE",
"51 94 OFFCURVE",
"51 154 CURVE SMOOTH",
"51 168 LINE",
"40 168 LINE",
"40 151 LINE SMOOTH",
"40 0 OFFCURVE",
"126 -8 OFFCURVE",
"181 -8 CURVE SMOOTH"
);
}
);
width = 365;
}
);
leftKerningGroup = five;
note = five;
rightKerningGroup = five;
unicode = 0035;
},
{
color = 6;
glyphname = six;
lastChange = "2021-12-01 13:53:26 +0000";
layers = (
{
layerId = "5E1A2ACF-25BB-4872-A226-5327BC7330DB";
paths = (
{
closed = 1;
nodes = (
"244 -9 OFFCURVE",
"338 13 OFFCURVE",
"338 158 CURVE SMOOTH",
"338 205 LINE SMOOTH",
"338 322 OFFCURVE",
"281 355 OFFCURVE",
"204 355 CURVE SMOOTH",
"136 355 OFFCURVE",
"94 326 OFFCURVE",
"62 282 CURVE",
"62 459 LINE SMOOTH",
"62 530 OFFCURVE",
"111 587 OFFCURVE",
"191 587 CURVE SMOOTH",
"266 587 OFFCURVE",
"310 545 OFFCURVE",
"310 465 CURVE SMOOTH",
"310 454 LINE",
"322 454 LINE",
"322 461 LINE SMOOTH",
"322 554 OFFCURVE",
"274 598 OFFCURVE",
"191 598 CURVE SMOOTH",
"106 598 OFFCURVE",
"50 543 OFFCURVE",
"50 455 CURVE SMOOTH",
"50 149 LINE SMOOTH",
"50 13 OFFCURVE",
"140 -9 OFFCURVE",
"200 -9 CURVE SMOOTH"
);
},
{
closed = 1;
nodes = (
"111 1 OFFCURVE",
"61 54 OFFCURVE",
"61 152 CURVE SMOOTH",
"61 256 LINE",
"69 292 OFFCURVE",
"123 346 OFFCURVE",
"204 346 CURVE SMOOTH",
"305 346 OFFCURVE",
"327 277 OFFCURVE",
"327 197 CURVE SMOOTH",
"327 158 LINE SMOOTH",
"327 54 OFFCURVE",
"274 1 OFFCURVE",
"200 1 CURVE SMOOTH"
);
}
);
width = 385;
}
);
leftKerningGroup = six;
note = six;
rightKerningGroup = six;
unicode = 0036;
},
{
color = 6;
glyphname = seven;
lastChange = "2021-12-01 10:02:01 +0000";
layers = (
{
layerId = "5E1A2ACF-25BB-4872-A226-5327BC7330DB";
paths = (
{
closed = 1;
nodes = (
"69 0 LINE",
"238 581 LINE",
"238 591 LINE",
"10 591 LINE",
"10 580 LINE",
"225 580 LINE",
"57 0 LINE"
);
}
);
width = 263;
}
);
leftKerningGroup = seven;
note = seven;
rightKerningGroup = seven;
unicode = 0037;
},
{
color = 6;
glyphname = eight;
lastChange = "2021-12-01 10:02:01 +0000";
layers = (
{
layerId = "5E1A2ACF-25BB-4872-A226-5327BC7330DB";
paths = (
{
closed = 1;
nodes = (
"222 -8 OFFCURVE",
"250 3 OFFCURVE",
"273 19 CURVE SMOOTH",
"309 46 OFFCURVE",
"322 88 OFFCURVE",
"322 137 CURVE SMOOTH",
"322 163 LINE SMOOTH",
"322 232 OFFCURVE",
"291 298 OFFCURVE",
"211 309 CURVE",
"275 321 OFFCURVE",
"316 373 OFFCURVE",
"316 442 CURVE SMOOTH",
"316 460 LINE SMOOTH",
"316 543 OFFCURVE",
"270 595 OFFCURVE",
"181 595 CURVE SMOOTH",
"92 595 OFFCURVE",
"46 543 OFFCURVE",
"46 460 CURVE SMOOTH",
"46 442 LINE SMOOTH",
"46 373 OFFCURVE",
"87 321 OFFCURVE",
"151 309 CURVE",
"71 298 OFFCURVE",
"40 232 OFFCURVE",
"40 163 CURVE SMOOTH",
"40 137 LINE SMOOTH",
"40 88 OFFCURVE",
"53 46 OFFCURVE",
"89 19 CURVE SMOOTH",
"112 3 OFFCURVE",
"140 -8 OFFCURVE",
"181 -8 CURVE SMOOTH"
);
},
{
closed = 1;
nodes = (
"146 3 OFFCURVE",
"118 12 OFFCURVE",
"97 27 CURVE SMOOTH",
"67 49 OFFCURVE",
"52 86 OFFCURVE",
"52 137 CURVE SMOOTH",
"52 163 LINE SMOOTH",
"52 247 OFFCURVE",
"98 303 OFFCURVE",
"181 303 CURVE SMOOTH",
"264 303 OFFCURVE",
"310 247 OFFCURVE",
"310 163 CURVE SMOOTH",
"310 137 LINE SMOOTH",
"310 86 OFFCURVE",
"295 49 OFFCURVE",
"265 27 CURVE SMOOTH",
"244 12 OFFCURVE",
"216 3 OFFCURVE",
"181 2 CURVE SMOOTH"
);
},
{
closed = 1;
nodes = (
"109 315 OFFCURVE",
"59 370 OFFCURVE",
"59 440 CURVE SMOOTH",
"59 459 LINE SMOOTH",
"59 534 OFFCURVE",
"97 584 OFFCURVE",
"181 584 CURVE SMOOTH",
"265 584 OFFCURVE",
"303 534 OFFCURVE",
"303 459 CURVE SMOOTH",
"303 440 LINE SMOOTH",
"303 370 OFFCURVE",
"253 315 OFFCURVE",
"181 315 CURVE SMOOTH"
);
}
);
width = 366;
}
);
leftKerningGroup = eight;
note = eight;
rightKerningGroup = eight;
unicode = 0038;
},
{
color = 6;
glyphname = nine;
lastChange = "2021-12-01 13:53:49 +0000";
layers = (
{
guideLines = (
{
position = "{-59, -8}";
}
);
layerId = "5E1A2ACF-25BB-4872-A226-5327BC7330DB";
paths = (
{
closed = 1;
nodes = (
"134 594 OFFCURVE",
"40 572 OFFCURVE",
"40 427 CURVE SMOOTH",
"40 380 LINE SMOOTH",
"40 263 OFFCURVE",
"97 230 OFFCURVE",
"174 230 CURVE SMOOTH",
"242 230 OFFCURVE",
"284 259 OFFCURVE",
"316 303 CURVE",
"316 131 LINE SMOOTH",
"316 60 OFFCURVE",
"267 3 OFFCURVE",
"187 3 CURVE SMOOTH",
"112 3 OFFCURVE",
"68 45 OFFCURVE",
"68 125 CURVE SMOOTH",
"68 136 LINE",
"56 136 LINE",
"56 129 LINE SMOOTH",
"56 36 OFFCURVE",
"104 -8 OFFCURVE",
"187 -8 CURVE SMOOTH",
"272 -8 OFFCURVE",
"328 47 OFFCURVE",
"328 135 CURVE SMOOTH",
"328 436 LINE SMOOTH",
"328 572 OFFCURVE",
"238 594 OFFCURVE",
"178 594 CURVE SMOOTH"
);
},
{
closed = 1;
nodes = (
"267 584 OFFCURVE",
"317 531 OFFCURVE",
"317 433 CURVE SMOOTH",
"317 329 LINE",
"309 293 OFFCURVE",
"255 239 OFFCURVE",
"174 239 CURVE SMOOTH",
"73 239 OFFCURVE",
"51 308 OFFCURVE",
"51 388 CURVE SMOOTH",
"51 427 LINE SMOOTH",
"51 531 OFFCURVE",
"104 584 OFFCURVE",
"178 584 CURVE SMOOTH"
);
}
);
width = 365;
}
);
leftKerningGroup = nine;
note = nine;
rightKerningGroup = nine;
unicode = 0039;
},
{
color = 6;
glyphname = onesuperior;
lastChange = "2021-11-24 17:22:35 +0000";
layers = (
{
layerId = "5E1A2ACF-25BB-4872-A226-5327BC7330DB";
paths = (
{
closed = 1;
nodes = (
"106 238 LINE",
"106 591 LINE",
"100 591 LINE",
"97 563 OFFCURVE",
"79 535 OFFCURVE",
"50 532 CURVE",
"50 525 LINE",
"93 525 LINE",
"93 238 LINE"
);
}
);
width = 186;
}
);
note = onesuperior;
unicode = 00B9;
},
{
color = 6;
glyphname = twosuperior;
lastChange = "2021-11-24 17:22:35 +0000";
layers = (
{
layerId = "5E1A2ACF-25BB-4872-A226-5327BC7330DB";
paths = (
{
closed = 1;
nodes = (
"218 237 LINE",
"218 247 LINE",
"66 247 LINE",
"66 301 LINE SMOOTH",
"66 353 OFFCURVE",
"99 368 OFFCURVE",
"136 387 CURVE",
"137 387 OFFCURVE",
"140 389 OFFCURVE",
"143 390 CURVE SMOOTH",
"190 411 OFFCURVE",
"215 453 OFFCURVE",
"215 505 CURVE SMOOTH",
"215 561 OFFCURVE",
"191 593 OFFCURVE",
"130 593 CURVE SMOOTH",
"81 593 OFFCURVE",
"50 566 OFFCURVE",
"50 510 CURVE SMOOTH",
"50 478 LINE",
"63 478 LINE",
"63 516 LINE SMOOTH",
"63 561 OFFCURVE",
"90 584 OFFCURVE",
"130 584 CURVE SMOOTH",
"177 584 OFFCURVE",
"200 555 OFFCURVE",
"200 510 CURVE SMOOTH",
"200 498 LINE SMOOTH",
"200 451 OFFCURVE",
"175 419 OFFCURVE",
"128 396 CURVE SMOOTH",
"77 372 OFFCURVE",
"53 359 OFFCURVE",
"53 301 CURVE SMOOTH",
"53 237 LINE"
);
}
);
width = 273;
}
);
note = twosuperior;
unicode = 00B2;
},
{
color = 6;
glyphname = threesuperior;
lastChange = "2021-11-24 17:22:35 +0000";
layers = (
{
layerId = "5E1A2ACF-25BB-4872-A226-5327BC7330DB";
paths = (
{
closed = 1;
nodes = (
"195 238 OFFCURVE",
"221 272 OFFCURVE",
"221 332 CURVE SMOOTH",
"221 355 LINE SMOOTH",
"221 386 OFFCURVE",
"199 422 OFFCURVE",
"152 428 CURVE",
"191 434 OFFCURVE",
"217 472 OFFCURVE",
"217 512 CURVE SMOOTH",
"217 519 LINE SMOOTH",
"217 568 OFFCURVE",
"190 595 OFFCURVE",
"138 595 CURVE SMOOTH",
"85 595 OFFCURVE",
"60 570 OFFCURVE",
"60 511 CURVE SMOOTH",
"60 492 LINE",
"72 492 LINE",
"72 517 LINE SMOOTH",
"72 563 OFFCURVE",
"93 585 OFFCURVE",
"138 585 CURVE SMOOTH",
"180 585 OFFCURVE",
"205 558 OFFCURVE",
"205 518 CURVE SMOOTH",
"205 514 LINE SMOOTH",
"205 459 OFFCURVE",
"158 434 OFFCURVE",
"131 434 CURVE SMOOTH",
"101 434 LINE",
"101 422 LINE",
"133 422 LINE SMOOTH",
"167 422 OFFCURVE",
"208 397 OFFCURVE",
"208 346 CURVE SMOOTH",
"208 332 LINE SMOOTH",
"208 275 OFFCURVE",
"183 249 OFFCURVE",
"135 249 CURVE SMOOTH",
"93 249 OFFCURVE",
"63 267 OFFCURVE",
"63 325 CURVE SMOOTH",
"63 355 LINE",
"50 355 LINE",
"50 324 LINE SMOOTH",
"50 260 OFFCURVE",
"81 238 OFFCURVE",
"135 238 CURVE SMOOTH"
);
}
);
width = 275;
}
);
note = threesuperior;
unicode = 00B3;
},
{
color = 6;
glyphname = foursuperior;
lastChange = "2021-11-24 17:22:35 +0000";
layers = (
{
layerId = "5E1A2ACF-25BB-4872-A226-5327BC7330DB";
paths = (
{
closed = 1;
nodes = (
"169 242 LINE",
"169 313 LINE",
"210 313 LINE",
"210 323 LINE",
"169 323 LINE",
"169 597 LINE",
"158 597 LINE",
"20 322 LINE",
"20 313 LINE",
"156 313 LINE",
"156 242 LINE"
);
},
{
closed = 1;
nodes = (
"156 567 LINE",
"156 323 LINE",
"34 323 LINE"
);
}
);
width = 250;
}
);
unicode = 2074;
},
{
color = 6;
glyphname = fraction;
lastChange = "2021-11-24 17:22:35 +0000";
layers = (
{
layerId = "5E1A2ACF-25BB-4872-A226-5327BC7330DB";
paths = (
{
closed = 1;
nodes = (
"63 0 LINE",
"384 585 LINE",
"369 585 LINE",
"50 0 LINE"
);
}
);
width = 434;
}
);
note = fraction;
unicode = 2044;
},
{
color = 6;
glyphname = onehalf;
lastChange = "2021-11-24 17:22:35 +0000";
layers = (
{
components = (
{
alignment = -1;
name = onesuperior;
},
{
alignment = -1;
name = twosuperior;
transform = "{1, 0, 0, 1, 258, -236}";
}
);
layerId = "5E1A2ACF-25BB-4872-A226-5327BC7330DB";
paths = (
{
closed = 1;
nodes = (
"64 0 LINE",
"385 585 LINE",
"370 585 LINE",
"51 0 LINE"
);
}
);
width = 526;
}
);
note = onehalf;
unicode = 00BD;
},
{
color = 6;
glyphname = onequarter;
lastChange = "2021-11-24 17:22:35 +0000";
layers = (
{
components = (
{
alignment = -1;
name = onesuperior;
},
{
name = foursuperior;
transform = "{1, 0, 0, 1, 262, -246}";
}
);
layerId = "5E1A2ACF-25BB-4872-A226-5327BC7330DB";
paths = (
{
closed = 1;
nodes = (
"64 0 LINE",
"385 585 LINE",
"370 585 LINE",
"51 0 LINE"
);
}
);
width = 509;
}
);
note = onequarter;
unicode = 00BC;
},
{
color = 6;
glyphname = threequarters;
lastChange = "2021-11-24 17:22:35 +0000";
layers = (
{
components = (
{
name = foursuperior;
transform = "{1, 0, 0, 1, 302, -246}";
},
{
name = threesuperior;
}
);
layerId = "5E1A2ACF-25BB-4872-A226-5327BC7330DB";
paths = (
{
closed = 1;
nodes = (
"154 0 LINE",
"475 585 LINE",
"460 585 LINE",
"141 0 LINE"
);
}
);
width = 549;
}
);
note = threequarters;
unicode = 00BE;
},
{
color = 6;
glyphname = period;
lastChange = "2021-11-24 17:22:35 +0000";
layers = (
{
layerId = "5E1A2ACF-25BB-4872-A226-5327BC7330DB";
paths = (
{
closed = 1;
nodes = (
"77 -3 OFFCURVE",
"82 2 OFFCURVE",
"82 13 CURVE SMOOTH",
"82 24 OFFCURVE",
"77 29 OFFCURVE",
"66 29 CURVE SMOOTH",
"55 29 OFFCURVE",
"50 24 OFFCURVE",
"50 13 CURVE SMOOTH",
"50 2 OFFCURVE",
"55 -3 OFFCURVE",
"66 -3 CURVE SMOOTH"
);
}
);
width = 143;
}
);
note = period;
rightKerningGroup = period;
unicode = 002E;
},
{
color = 6;
glyphname = comma;
lastChange = "2021-11-24 17:22:37 +0000";
layers = (
{
layerId = "5E1A2ACF-25BB-4872-A226-5327BC7330DB";
paths = (
{
closed = 1;
nodes = (
"60 -87 LINE",
"68 -78 OFFCURVE",
"83 -53 OFFCURVE",
"90 -36 CURVE SMOOTH",
"94 -25 OFFCURVE",
"98 -10 OFFCURVE",
"98 9 CURVE SMOOTH",
"98 20 OFFCURVE",
"92 30 OFFCURVE",
"79 30 CURVE SMOOTH",
"68 30 OFFCURVE",
"62 21 OFFCURVE",
"62 13 CURVE SMOOTH",
"62 8 OFFCURVE",
"64 2 OFFCURVE",
"68 -3 CURVE SMOOTH",
"73 -8 OFFCURVE",
"78 -16 OFFCURVE",
"78 -26 CURVE SMOOTH",
"78 -29 OFFCURVE",
"77 -33 OFFCURVE",
"76 -37 CURVE SMOOTH",
"71 -56 OFFCURVE",
"54 -82 OFFCURVE",
"50 -87 CURVE"
);
}
);
width = 153;
}
);
note = comma;
unicode = 002C;
},
{
color = 6;
glyphname = colon;
lastChange = "2021-11-24 17:22:35 +0000";
layers = (
{
layerId = "5E1A2ACF-25BB-4872-A226-5327BC7330DB";
paths = (
{
closed = 1;
nodes = (
"77 317 OFFCURVE",
"82 322 OFFCURVE",
"82 333 CURVE SMOOTH",
"82 344 OFFCURVE",
"77 349 OFFCURVE",
"66 349 CURVE SMOOTH",
"55 349 OFFCURVE",
"50 344 OFFCURVE",
"50 333 CURVE SMOOTH",
"50 322 OFFCURVE",
"55 317 OFFCURVE",
"66 317 CURVE SMOOTH"
);
},
{
closed = 1;
nodes = (
"77 -3 OFFCURVE",
"82 2 OFFCURVE",
"82 13 CURVE SMOOTH",
"82 24 OFFCURVE",
"77 29 OFFCURVE",
"66 29 CURVE SMOOTH",
"55 29 OFFCURVE",
"50 24 OFFCURVE",
"50 13 CURVE SMOOTH",
"50 2 OFFCURVE",
"55 -3 OFFCURVE",
"66 -3 CURVE SMOOTH"
);
}
);
width = 143;
}
);
note = colon;
unicode = 003A;
},
{
color = 6;
glyphname = semicolon;
lastChange = "2021-11-24 17:22:37 +0000";
layers = (
{
layerId = "5E1A2ACF-25BB-4872-A226-5327BC7330DB";
paths = (
{
closed = 1;
nodes = (
"60 -87 LINE",
"68 -78 OFFCURVE",
"83 -53 OFFCURVE",
"90 -36 CURVE SMOOTH",
"94 -25 OFFCURVE",
"98 -10 OFFCURVE",
"98 9 CURVE SMOOTH",
"98 20 OFFCURVE",
"92 30 OFFCURVE",
"79 30 CURVE SMOOTH",
"68 30 OFFCURVE",
"62 21 OFFCURVE",
"62 13 CURVE SMOOTH",
"62 8 OFFCURVE",
"64 2 OFFCURVE",
"68 -3 CURVE SMOOTH",
"73 -8 OFFCURVE",
"78 -16 OFFCURVE",
"78 -26 CURVE SMOOTH",
"78 -29 OFFCURVE",
"77 -33 OFFCURVE",
"76 -37 CURVE SMOOTH",
"71 -56 OFFCURVE",
"54 -82 OFFCURVE",
"50 -87 CURVE"
);
},
{
closed = 1;
nodes = (
"89 317 OFFCURVE",
"94 322 OFFCURVE",
"94 333 CURVE SMOOTH",
"94 344 OFFCURVE",
"89 349 OFFCURVE",
"78 349 CURVE SMOOTH",
"67 349 OFFCURVE",
"62 344 OFFCURVE",
"62 333 CURVE SMOOTH",
"62 322 OFFCURVE",
"67 317 OFFCURVE",
"78 317 CURVE SMOOTH"
);
}
);
width = 153;
}
);
note = semicolon;
unicode = 003B;
},
{
color = 6;
glyphname = ellipsis;
lastChange = "2021-11-24 17:22:35 +0000";
layers = (
{
layerId = "5E1A2ACF-25BB-4872-A226-5327BC7330DB";
paths = (
{
closed = 1;
nodes = (
"398 -3 OFFCURVE",
"403 2 OFFCURVE",
"403 13 CURVE SMOOTH",
"403 24 OFFCURVE",
"398 29 OFFCURVE",
"387 29 CURVE SMOOTH",
"376 29 OFFCURVE",
"371 24 OFFCURVE",
"371 13 CURVE SMOOTH",
"371 2 OFFCURVE",
"376 -3 OFFCURVE",
"387 -3 CURVE SMOOTH"
);
},
{
closed = 1;
nodes = (
"77 -3 OFFCURVE",
"82 2 OFFCURVE",
"82 13 CURVE SMOOTH",
"82 24 OFFCURVE",
"77 29 OFFCURVE",
"66 29 CURVE SMOOTH",
"55 29 OFFCURVE",
"50 24 OFFCURVE",
"50 13 CURVE SMOOTH",
"50 2 OFFCURVE",
"55 -3 OFFCURVE",
"66 -3 CURVE SMOOTH"
);
},
{
closed = 1;
nodes = (
"239 -3 OFFCURVE",
"244 2 OFFCURVE",
"244 13 CURVE SMOOTH",
"244 24 OFFCURVE",
"239 29 OFFCURVE",
"228 29 CURVE SMOOTH",
"217 29 OFFCURVE",
"212 24 OFFCURVE",
"212 13 CURVE SMOOTH",
"212 2 OFFCURVE",
"217 -3 OFFCURVE",
"228 -3 CURVE SMOOTH"
);
}
);
width = 508;
}
);
note = ellipsis;
rightKerningGroup = period;
unicode = 2026;
},
{
color = 6;
glyphname = exclam;
lastChange = "2021-11-24 17:22:35 +0000";
layers = (
{
layerId = "5E1A2ACF-25BB-4872-A226-5327BC7330DB";
paths = (
{
closed = 1;
nodes = (
"69 195 LINE",
"71 357 LINE",
"71 630 LINE",
"60 630 LINE",
"60 357 LINE",
"62 195 LINE"
);
},
{
closed = 1;
nodes = (
"77 -3 OFFCURVE",
"82 2 OFFCURVE",
"82 13 CURVE SMOOTH",
"82 24 OFFCURVE",
"77 29 OFFCURVE",
"66 29 CURVE SMOOTH",
"55 29 OFFCURVE",
"50 24 OFFCURVE",
"50 13 CURVE SMOOTH",
"50 2 OFFCURVE",
"55 -3 OFFCURVE",
"66 -3 CURVE SMOOTH"
);
}
);
width = 143;
}
);
note = exclam;
unicode = 0021;
},
{
color = 6;
glyphname = exclamdown;
lastChange = "2021-12-01 10:08:38 +0000";
layers = (
{
layerId = "5E1A2ACF-25BB-4872-A226-5327BC7330DB";
paths = (
{
closed = 1;
nodes = (
"72 -151 LINE",
"72 122 LINE",
"70 284 LINE",
"63 284 LINE",
"61 122 LINE",
"61 -151 LINE"
);
},
{
closed = 1;
nodes = (
"77 415 OFFCURVE",
"82 420 OFFCURVE",
"82 431 CURVE SMOOTH",
"82 442 OFFCURVE",
"77 447 OFFCURVE",
"66 447 CURVE SMOOTH",
"55 447 OFFCURVE",
"50 442 OFFCURVE",
"50 431 CURVE SMOOTH",
"50 420 OFFCURVE",
"55 415 OFFCURVE",
"66 415 CURVE SMOOTH"
);
}
);
width = 143;
}
);
note = exclamdown;
unicode = 00A1;
},
{
color = 6;
glyphname = question;
lastChange = "2021-11-24 17:22:35 +0000";
layers = (
{
layerId = "5E1A2ACF-25BB-4872-A226-5327BC7330DB";
paths = (
{
closed = 1;
nodes = (
"137 144 LINE",
"137 250 LINE",
"184 250 LINE SMOOTH",
"230 250 OFFCURVE",
"306 285 OFFCURVE",
"306 378 CURVE SMOOTH",
"306 449 LINE SMOOTH",
"306 550 OFFCURVE",
"265 595 OFFCURVE",
"172 595 CURVE SMOOTH",
"91 595 OFFCURVE",
"50 549 OFFCURVE",
"50 458 CURVE SMOOTH",
"50 429 LINE",
"61 429 LINE",
"61 462 LINE SMOOTH",
"61 544 OFFCURVE",
"99 585 OFFCURVE",
"174 585 CURVE SMOOTH",
"255 585 OFFCURVE",
"295 540 OFFCURVE",
"295 451 CURVE SMOOTH",
"295 380 LINE SMOOTH",
"295 294 OFFCURVE",
"227 260 OFFCURVE",
"180 260 CURVE SMOOTH",
"126 260 LINE",
"126 144 LINE"
);
},
{
closed = 1;
nodes = (
"143 -3 OFFCURVE",
"148 2 OFFCURVE",
"148 13 CURVE SMOOTH",
"148 24 OFFCURVE",
"143 29 OFFCURVE",
"132 29 CURVE SMOOTH",
"121 29 OFFCURVE",
"116 24 OFFCURVE",
"116 13 CURVE SMOOTH",
"116 2 OFFCURVE",
"121 -3 OFFCURVE",
"132 -3 CURVE SMOOTH"
);
}
);
width = 364;
}
);
note = question;
unicode = 003F;
},
{
color = 6;
glyphname = questiondown;
lastChange = "2021-11-24 17:22:35 +0000";
layers = (
{
layerId = "5E1A2ACF-25BB-4872-A226-5327BC7330DB";
paths = (
{
closed = 1;
nodes = (
"265 -151 OFFCURVE",
"306 -105 OFFCURVE",
"306 -14 CURVE SMOOTH",
"306 15 LINE",
"295 15 LINE",
"295 -18 LINE SMOOTH",
"295 -100 OFFCURVE",
"257 -141 OFFCURVE",
"182 -141 CURVE SMOOTH",
"101 -141 OFFCURVE",
"61 -96 OFFCURVE",
"61 -7 CURVE SMOOTH",
"61 64 LINE SMOOTH",
"61 150 OFFCURVE",
"129 184 OFFCURVE",
"176 184 CURVE SMOOTH",
"230 184 LINE",
"230 300 LINE",
"219 300 LINE",
"219 194 LINE",
"172 194 LINE SMOOTH",
"126 194 OFFCURVE",
"50 159 OFFCURVE",
"50 66 CURVE SMOOTH",
"50 -5 LINE SMOOTH",
"50 -106 OFFCURVE",
"91 -151 OFFCURVE",
"184 -151 CURVE SMOOTH"
);
},
{
closed = 1;
nodes = (
"235 415 OFFCURVE",
"240 420 OFFCURVE",
"240 431 CURVE SMOOTH",
"240 442 OFFCURVE",
"235 447 OFFCURVE",
"224 447 CURVE SMOOTH",
"213 447 OFFCURVE",
"208 442 OFFCURVE",
"208 431 CURVE SMOOTH",
"208 420 OFFCURVE",
"213 415 OFFCURVE",
"224 415 CURVE SMOOTH"
);
}
);
width = 364;
}
);
note = questiondown;
unicode = 00BF;
},
{
color = 6;
glyphname = periodcentered;
lastChange = "2021-11-24 17:22:35 +0000";
layers = (
{
layerId = "5E1A2ACF-25BB-4872-A226-5327BC7330DB";
paths = (
{
closed = 1;
nodes = (
"77 248 OFFCURVE",
"82 253 OFFCURVE",
"82 264 CURVE SMOOTH",
"82 275 OFFCURVE",
"77 280 OFFCURVE",
"66 280 CURVE SMOOTH",
"55 280 OFFCURVE",
"50 275 OFFCURVE",
"50 264 CURVE SMOOTH",
"50 253 OFFCURVE",
"55 248 OFFCURVE",
"66 248 CURVE SMOOTH"
);
}
);
width = 143;
}
);
note = periodcentered;
unicode = 00B7;
},
{
color = 6;
glyphname = bullet;
lastChange = "2021-11-24 17:22:35 +0000";
layers = (
{
layerId = "5E1A2ACF-25BB-4872-A226-5327BC7330DB";
paths = (
{
closed = 1;
nodes = (
"147 223 OFFCURVE",
"174 250 OFFCURVE",
"174 285 CURVE SMOOTH",
"174 320 OFFCURVE",
"146 347 OFFCURVE",
"113 347 CURVE SMOOTH",
"77 347 OFFCURVE",
"50 320 OFFCURVE",
"50 285 CURVE SMOOTH",
"51 249 OFFCURVE",
"78 223 OFFCURVE",
"111 223 CURVE SMOOTH"
);
}
);
width = 225;
}
);
note = bullet;
unicode = 2022;
},
{
color = 6;
glyphname = asterisk;
lastChange = "2021-11-24 17:22:35 +0000";
layers = (
{
layerId = "5E1A2ACF-25BB-4872-A226-5327BC7330DB";
paths = (
{
closed = 1;
nodes = (
"245 299 LINE",
"358 137 LINE",
"370 145 LINE",
"254 302 LINE",
"439 361 LINE",
"439 365 OFFCURVE",
"436 369 OFFCURVE",
"435 374 CURVE",
"250 310 LINE",
"253 503 LINE",
"238 503 LINE",
"240 310 LINE",
"54 374 LINE",
"50 361 LINE",
"236 302 LINE",
"120 144 LINE",
"123 143 OFFCURVE",
"127 140 OFFCURVE",
"132 136 CURVE"
);
}
);
width = 530;
}
);
note = asterisk;
unicode = 002A;
},
{
color = 6;
glyphname = numbersign;
lastChange = "2021-11-24 17:22:35 +0000";
layers = (
{
layerId = "5E1A2ACF-25BB-4872-A226-5327BC7330DB";
paths = (
{
closed = 1;
nodes = (
"144 0 LINE",
"165 64 OFFCURVE",
"187 136 OFFCURVE",
"207 200 CURVE",
"396 200 LINE",
"333 0 LINE",
"346 0 LINE",
"409 200 LINE",
"554 200 LINE",
"558 214 LINE",
"413 214 LINE",
"472 402 LINE",
"617 402 LINE",
"618 407 OFFCURVE",
"619 411 OFFCURVE",
"622 416 CURVE",
"477 416 LINE",
"526 573 LINE",
"513 573 LINE",
"465 416 LINE",
"275 416 LINE",
"324 573 LINE",
"312 573 LINE",
"263 416 LINE",
"118 416 LINE",
"113 402 LINE",
"258 402 LINE",
"199 214 LINE",
"54 214 LINE",
"50 200 LINE",
"195 200 LINE",
"131 0 LINE"
);
},
{
closed = 1;
nodes = (
"211 214 LINE",
"270 402 LINE",
"460 402 LINE",
"401 214 LINE"
);
}
);
width = 672;
}
);
note = numbersign;
unicode = 0023;
},
{
color = 6;
glyphname = slash;
lastChange = "2021-11-24 17:22:35 +0000";
layers = (
{
layerId = "5E1A2ACF-25BB-4872-A226-5327BC7330DB";
paths = (
{
closed = 1;
nodes = (
"64 -46 LINE",
"181 183 OFFCURVE",
"290 402 OFFCURVE",
"407 631 CURVE",
"394 631 LINE",
"50 -46 LINE"
);
}
);
width = 460;
}
);
note = slash;
unicode = 002F;
},
{
color = 6;
glyphname = backslash;
lastChange = "2021-11-24 17:22:35 +0000";
layers = (
{
layerId = "5E1A2ACF-25BB-4872-A226-5327BC7330DB";
paths = (
{
closed = 1;
nodes = (
"408 -46 LINE",
"65 631 LINE",
"50 631 LINE",
"394 -46 LINE"
);
}
);
width = 468;
}
);
note = backslash;
unicode = 005C;
},
{
color = 6;
glyphname = parenleft;
lastChange = "2021-11-24 17:22:35 +0000";
layers = (
{
layerId = "5E1A2ACF-25BB-4872-A226-5327BC7330DB";
paths = (
{
closed = 1;
nodes = (
"263 -116 LINE",
"135 -92 OFFCURVE",
"66 75 OFFCURVE",
"66 252 CURVE SMOOTH",
"66 444 OFFCURVE",
"161 625 OFFCURVE",
"274 663 CURVE",
"274 667 LINE",
"143 643 OFFCURVE",
"50 441 OFFCURVE",
"50 249 CURVE SMOOTH",
"50 65 OFFCURVE",
"125 -113 OFFCURVE",
"263 -124 CURVE"
);
}
);
width = 344;
}
);
note = parenleft;
unicode = 0028;
},
{
color = 6;
glyphname = parenright;
lastChange = "2021-11-24 17:22:35 +0000";
layers = (
{
layerId = "5E1A2ACF-25BB-4872-A226-5327BC7330DB";
paths = (
{
closed = 1;
nodes = (
"181 -98 OFFCURVE",
"274 102 OFFCURVE",
"274 296 CURVE SMOOTH",
"274 480 OFFCURVE",
"199 658 OFFCURVE",
"61 669 CURVE",
"61 662 LINE",
"189 638 OFFCURVE",
"258 472 OFFCURVE",
"258 293 CURVE SMOOTH",
"258 100 OFFCURVE",
"163 -83 OFFCURVE",
"50 -118 CURVE",
"50 -122 LINE"
);
}
);
width = 333;
}
);
note = parenright;
rightKerningGroup = parenright;
unicode = 0029;
},
{
color = 6;
glyphname = braceleft;
lastChange = "2021-11-24 17:22:35 +0000";
layers = (
{
layerId = "5E1A2ACF-25BB-4872-A226-5327BC7330DB";
paths = (
{
closed = 1;
nodes = (
"204 -125 LINE",
"152 -118 OFFCURVE",
"116 -91 OFFCURVE",
"116 -16 CURVE SMOOTH",
"116 23 OFFCURVE",
"131 57 OFFCURVE",
"146 90 CURVE SMOOTH",
"161 121 OFFCURVE",
"171 152 OFFCURVE",
"171 184 CURVE SMOOTH",
"171 215 OFFCURVE",
"148 248 OFFCURVE",
"93 268 CURVE",
"146 287 OFFCURVE",
"171 319 OFFCURVE",
"171 350 CURVE SMOOTH",
"171 382 OFFCURVE",
"161 414 OFFCURVE",
"146 446 CURVE SMOOTH",
"131 479 OFFCURVE",
"116 512 OFFCURVE",
"116 551 CURVE SMOOTH",
"116 623 OFFCURVE",
"152 644 OFFCURVE",
"204 651 CURVE",
"204 665 LINE",
"151 657 OFFCURVE",
"101 628 OFFCURVE",
"101 551 CURVE SMOOTH",
"101 514 OFFCURVE",
"115 483 OFFCURVE",
"130 451 CURVE SMOOTH",
"133 444 LINE SMOOTH",
"146 413 OFFCURVE",
"159 385 OFFCURVE",
"159 350 CURVE SMOOTH",
"159 298 OFFCURVE",
"101 273 OFFCURVE",
"50 270 CURVE",
"50 266 LINE",
"101 261 OFFCURVE",
"159 230 OFFCURVE",
"159 184 CURVE SMOOTH",
"159 149 OFFCURVE",
"147 119 OFFCURVE",
"134 90 CURVE SMOOTH",
"129 79 LINE SMOOTH",
"114 47 OFFCURVE",
"101 16 OFFCURVE",
"101 -16 CURVE SMOOTH",
"101 -95 OFFCURVE",
"151 -126 OFFCURVE",
"204 -137 CURVE"
);
}
);
width = 258;
}
);
note = braceleft;
unicode = 007B;
},
{
color = 6;
glyphname = braceright;
lastChange = "2021-11-24 17:22:35 +0000";
layers = (
{
layerId = "5E1A2ACF-25BB-4872-A226-5327BC7330DB";
paths = (
{
closed = 1;
nodes = (
"103 -126 OFFCURVE",
"153 -95 OFFCURVE",
"153 -16 CURVE SMOOTH",
"153 16 OFFCURVE",
"140 47 OFFCURVE",
"125 79 CURVE SMOOTH",
"120 90 LINE SMOOTH",
"107 119 OFFCURVE",
"95 149 OFFCURVE",
"95 184 CURVE SMOOTH",
"95 230 OFFCURVE",
"152 261 OFFCURVE",
"204 266 CURVE",
"204 270 LINE",
"153 273 OFFCURVE",
"95 298 OFFCURVE",
"95 350 CURVE SMOOTH",
"95 385 OFFCURVE",
"108 413 OFFCURVE",
"121 444 CURVE SMOOTH",
"124 451 LINE SMOOTH",
"139 483 OFFCURVE",
"153 514 OFFCURVE",
"153 551 CURVE SMOOTH",
"153 628 OFFCURVE",
"103 657 OFFCURVE",
"50 665 CURVE",
"50 651 LINE",
"102 644 OFFCURVE",
"138 623 OFFCURVE",
"138 551 CURVE SMOOTH",
"138 512 OFFCURVE",
"123 479 OFFCURVE",
"108 446 CURVE SMOOTH",
"93 414 OFFCURVE",
"84 382 OFFCURVE",
"84 350 CURVE SMOOTH",
"84 319 OFFCURVE",
"108 287 OFFCURVE",
"161 268 CURVE",
"106 248 OFFCURVE",
"84 215 OFFCURVE",
"84 184 CURVE SMOOTH",
"84 152 OFFCURVE",
"93 121 OFFCURVE",
"108 90 CURVE SMOOTH",
"123 57 OFFCURVE",
"138 23 OFFCURVE",
"138 -16 CURVE SMOOTH",
"138 -91 OFFCURVE",
"102 -118 OFFCURVE",
"50 -125 CURVE",
"50 -137 LINE"
);
}
);
width = 258;
}
);
note = braceright;
unicode = 007D;
},
{
color = 6;
glyphname = bracketleft;
lastChange = "2021-11-24 17:22:35 +0000";
layers = (
{
layerId = "5E1A2ACF-25BB-4872-A226-5327BC7330DB";
paths = (
{
closed = 1;
nodes = (
"217 -57 LINE",
"217 -46 LINE",
"62 -46 LINE",
"62 619 LINE",
"217 619 LINE",
"217 630 LINE",
"50 630 LINE",
"50 -57 LINE"
);
}
);
width = 267;
}
);
note = bracketleft;
unicode = 005B;
},
{
color = 6;
glyphname = bracketright;
lastChange = "2021-11-24 17:22:35 +0000";
layers = (
{
layerId = "5E1A2ACF-25BB-4872-A226-5327BC7330DB";
paths = (
{
closed = 1;
nodes = (
"217 -57 LINE",
"217 630 LINE",
"50 630 LINE",
"50 619 LINE",
"205 619 LINE",
"205 -46 LINE",
"50 -46 LINE",
"50 -57 LINE"
);
}
);
width = 267;
}
);
note = bracketright;
unicode = 005D;
},
{
color = 6;
glyphname = hyphen;
lastChange = "2021-11-24 17:22:35 +0000";
layers = (
{
layerId = "5E1A2ACF-25BB-4872-A226-5327BC7330DB";
paths = (
{
closed = 1;
nodes = (
"229 247 LINE",
"229 257 LINE",
"50 257 LINE",
"50 247 LINE"
);
}
);
width = 299;
}
);
leftKerningGroup = hyphen;
note = hyphen;
unicode = 002D;
},
{
color = 6;
glyphname = endash;
lastChange = "2021-11-24 17:22:35 +0000";
layers = (
{
layerId = "5E1A2ACF-25BB-4872-A226-5327BC7330DB";
paths = (
{
closed = 1;
nodes = (
"294 247 LINE",
"294 257 LINE",
"20 257 LINE",
"20 247 LINE"
);
}
);
width = 314;
}
);
leftKerningGroup = hyphen;
note = endash;
unicode = 2013;
},
{
color = 6;
glyphname = emdash;
lastChange = "2021-11-24 17:22:35 +0000";
layers = (
{
layerId = "5E1A2ACF-25BB-4872-A226-5327BC7330DB";
paths = (
{
closed = 1;
nodes = (
"385 247 LINE",
"385 257 LINE",
"20 257 LINE",
"20 247 LINE"
);
}
);
width = 405;
}
);
leftKerningGroup = hyphen;
note = emdash;
unicode = 2014;
},
{
color = 6;
glyphname = horizontalbar;
lastChange = "2021-11-24 17:27:32 +0000";
layers = (
{
layerId = "5E1A2ACF-25BB-4872-A226-5327BC7330DB";
paths = (
{
closed = 1;
nodes = (
"510 617 LINE",
"510 630 LINE",
"40 630 LINE",
"40 617 LINE"
);
}
);
width = 550;
}
);
note = uni2015;
unicode = 2015;
},
{
color = 6;
glyphname = underscore;
lastChange = "2021-11-24 17:22:35 +0000";
layers = (
{
layerId = "5E1A2ACF-25BB-4872-A226-5327BC7330DB";
paths = (
{
closed = 1;
nodes = (
"693 -102 LINE",
"693 -92 LINE",
"50 -92 LINE",
"50 -102 LINE"
);
}
);
width = 745;
}
);
note = underscore;
unicode = 005F;
},
{
color = 6;
glyphname = guillemetleft;
lastChange = "2021-11-24 17:22:35 +0000";
layers = (
{
layerId = "5E1A2ACF-25BB-4872-A226-5327BC7330DB";
paths = (
{
closed = 1;
nodes = (
"361 115 LINE",
"246 284 LINE",
"373 468 LINE",
"359 468 LINE",
"230 284 LINE",
"347 115 LINE"
);
},
{
closed = 1;
nodes = (
"181 115 LINE",
"66 284 LINE",
"193 468 LINE",
"179 468 LINE",
"50 284 LINE",
"167 115 LINE"
);
}
);
width = 433;
}
);
note = guillemotleft;
unicode = 00AB;
},
{
color = 6;
glyphname = guillemetright;
lastChange = "2021-11-24 17:22:35 +0000";
layers = (
{
layerId = "5E1A2ACF-25BB-4872-A226-5327BC7330DB";
paths = (
{
closed = 1;
nodes = (
"256 115 LINE",
"373 284 LINE",
"244 468 LINE",
"230 468 LINE",
"357 284 LINE",
"242 115 LINE"
);
},
{
closed = 1;
nodes = (
"76 115 LINE",
"193 284 LINE",
"64 468 LINE",
"50 468 LINE",
"177 284 LINE",
"62 115 LINE"
);
}
);
width = 433;
}
);
note = guillemotright;
unicode = 00BB;
},
{
color = 6;
glyphname = guilsinglleft;
lastChange = "2021-11-24 17:22:35 +0000";
layers = (
{
layerId = "5E1A2ACF-25BB-4872-A226-5327BC7330DB";
paths = (
{
closed = 1;
nodes = (
"181 115 LINE",
"66 284 LINE",
"193 468 LINE",
"179 468 LINE",
"50 284 LINE",
"167 115 LINE"
);
}
);
width = 255;
}
);
note = guilsinglleft;
unicode = 2039;
},
{
color = 6;
glyphname = guilsinglright;
lastChange = "2021-11-24 17:22:35 +0000";
layers = (
{
layerId = "5E1A2ACF-25BB-4872-A226-5327BC7330DB";
paths = (
{
closed = 1;
nodes = (
"76 115 LINE",
"193 284 LINE",
"64 468 LINE",
"50 468 LINE",
"177 284 LINE",
"62 115 LINE"
);
}
);
width = 255;
}
);
note = guilsinglright;
unicode = 203A;
},
{
color = 6;
glyphname = quotedbl;
lastChange = "2021-11-24 17:22:35 +0000";
layers = (
{
layerId = "5E1A2ACF-25BB-4872-A226-5327BC7330DB";
paths = (
{
closed = 1;
nodes = (
"175 431 LINE",
"190 631 LINE",
"156 631 LINE",
"168 431 LINE"
);
},
{
closed = 1;
nodes = (
"71 431 LINE",
"84 631 LINE",
"50 631 LINE",
"63 431 LINE"
);
}
);
width = 299;
}
);
note = quotedbl;
unicode = 0022;
},
{
color = 6;
glyphname = quotesingle;
lastChange = "2021-11-24 17:22:35 +0000";
layers = (
{
layerId = "5E1A2ACF-25BB-4872-A226-5327BC7330DB";
paths = (
{
closed = 1;
nodes = (
"70 441 LINE",
"80 631 LINE",
"56 631 LINE",
"62 441 LINE"
);
}
);
width = 134;
}
);
note = quotesingle;
unicode = 0027;
},
{
glyphname = "leftanglebracket-math";
lastChange = "2021-11-24 17:22:35 +0000";
layers = (
{
layerId = "5E1A2ACF-25BB-4872-A226-5327BC7330DB";
paths = (
{
closed = 1;
nodes = (
"198 -142 LINE",
"66 233 LINE",
"208 628 LINE",
"194 628 LINE",
"50 233 LINE",
"184 -142 LINE"
);
}
);
width = 258;
},
{
associatedMasterId = "5E1A2ACF-25BB-4872-A226-5327BC7330DB";
layerId = "8A3706BD-364F-4FE3-9C2E-7E87DF0DB4CC";
name = Black;
paths = (
{
closed = 1;
nodes = (
"303 -153 LINE",
"167 236 LINE",
"303 632 LINE",
"166 632 LINE",
"30 236 LINE",
"167 -153 LINE"
);
}
);
width = 333;
}
);
unicode = 27E8;
},
{
glyphname = "rightanglebracket-math";
lastChange = "2021-11-24 17:22:35 +0000";
layers = (
{
layerId = "5E1A2ACF-25BB-4872-A226-5327BC7330DB";
paths = (
{
closed = 1;
nodes = (
"74 -142 LINE",
"208 233 LINE",
"64 628 LINE",
"50 628 LINE",
"192 233 LINE",
"60 -142 LINE"
);
}
);
width = 258;
},
{
associatedMasterId = "5E1A2ACF-25BB-4872-A226-5327BC7330DB";
layerId = "8A3706BD-364F-4FE3-9C2E-7E87DF0DB4CC";
name = Black;
paths = (
{
closed = 1;
nodes = (
"303 236 LINE",
"167 632 LINE",
"30 632 LINE",
"166 236 LINE",
"30 -153 LINE",
"166 -153 LINE"
);
}
);
width = 333;
}
);
unicode = 27E9;
},
{
glyphname = cedi;
lastChange = "2021-11-24 17:22:35 +0000";
layers = (
{
components = (
{
name = C;
}
);
layerId = "5E1A2ACF-25BB-4872-A226-5327BC7330DB";
paths = (
{
closed = 1;
nodes = (
"148 -81 LINE",
"242 659 LINE",
"231 659 LINE",
"137 -81 LINE"
);
}
);
width = 373;
}
);
unicode = 20B5;
},
{
color = 6;
glyphname = cent;
lastChange = "2021-11-24 17:22:35 +0000";
layers = (
{
layerId = "5E1A2ACF-25BB-4872-A226-5327BC7330DB";
paths = (
{
closed = 1;
nodes = (
"166 -63 LINE",
"177 -63 LINE",
"177 53 LINE",
"284 56 OFFCURVE",
"289 123 OFFCURVE",
"289 184 CURVE SMOOTH",
"289 227 LINE",
"278 227 LINE",
"278 187 LINE SMOOTH",
"278 128 OFFCURVE",
"273 63 OFFCURVE",
"170 63 CURVE SMOOTH",
"66 63 OFFCURVE",
"61 128 OFFCURVE",
"61 187 CURVE SMOOTH",
"61 429 LINE SMOOTH",
"61 488 OFFCURVE",
"66 553 OFFCURVE",
"170 553 CURVE SMOOTH",
"273 553 OFFCURVE",
"278 488 OFFCURVE",
"278 429 CURVE SMOOTH",
"278 388 LINE",
"289 388 LINE",
"289 432 LINE SMOOTH",
"289 492 OFFCURVE",
"284 560 OFFCURVE",
"177 563 CURVE",
"177 643 LINE",
"166 643 LINE",
"166 563 LINE",
"56 560 OFFCURVE",
"50 493 OFFCURVE",
"50 432 CURVE SMOOTH",
"50 184 LINE SMOOTH",
"50 123 OFFCURVE",
"56 53 OFFCURVE",
"166 53 CURVE"
);
}
);
width = 331;
}
);
note = cent;
unicode = 00A2;
},
{
glyphname = colonsign;
lastChange = "2021-11-24 17:22:35 +0000";
layers = (
{
components = (
{
name = C;
}
);
layerId = "5E1A2ACF-25BB-4872-A226-5327BC7330DB";
paths = (
{
closed = 1;
nodes = (
"189 -81 LINE",
"283 659 LINE",
"272 659 LINE",
"178 -81 LINE"
);
},
{
closed = 1;
nodes = (
"109 -81 LINE",
"203 659 LINE",
"192 659 LINE",
"98 -81 LINE"
);
}
);
width = 373;
}
);
unicode = 20A1;
},
{
color = 6;
glyphname = currency;
lastChange = "2021-11-24 17:22:35 +0000";
layers = (
{
layerId = "5E1A2ACF-25BB-4872-A226-5327BC7330DB";
paths = (
{
closed = 1;
nodes = (
"116 218 LINE",
"137 199 OFFCURVE",
"162 190 OFFCURVE",
"191 190 CURVE SMOOTH",
"220 190 OFFCURVE",
"245 199 OFFCURVE",
"265 218 CURVE",
"325 159 LINE",
"332 166 LINE",
"272 225 LINE",
"291 246 OFFCURVE",
"301 271 OFFCURVE",
"301 300 CURVE SMOOTH",
"301 328 OFFCURVE",
"291 355 OFFCURVE",
"272 374 CURVE",
"332 434 LINE",
"325 441 LINE",
"265 381 LINE",
"246 400 OFFCURVE",
"219 410 OFFCURVE",
"191 410 CURVE SMOOTH",
"162 410 OFFCURVE",
"137 400 OFFCURVE",
"116 381 CURVE",
"57 441 LINE",
"50 434 LINE",
"109 374 LINE",
"90 354 OFFCURVE",
"81 329 OFFCURVE",
"81 300 CURVE SMOOTH",
"81 271 OFFCURVE",
"90 246 OFFCURVE",
"109 225 CURVE",
"50 166 LINE",
"57 159 LINE"
);
},
{
closed = 1;
nodes = (
"135 200 OFFCURVE",
"91 244 OFFCURVE",
"91 300 CURVE SMOOTH",
"91 356 OFFCURVE",
"135 400 OFFCURVE",
"191 400 CURVE SMOOTH",
"247 400 OFFCURVE",
"291 356 OFFCURVE",
"291 300 CURVE SMOOTH",
"291 244 OFFCURVE",
"247 200 OFFCURVE",
"191 200 CURVE SMOOTH"
);
}
);
width = 420;
}
);
note = currency;
unicode = 00A4;
},
{
color = 6;
glyphname = dollar;
lastChange = "2021-11-24 17:22:35 +0000";
layers = (
{
components = (
{
alignment = -1;
name = s;
transform = "{1, 0, 0, 1, 0, 60}";
}
);
layerId = "5E1A2ACF-25BB-4872-A226-5327BC7330DB";
paths = (
{
closed = 1;
nodes = (
"118 -81 LINE",
"212 659 LINE",
"201 659 LINE",
"107 -81 LINE"
);
}
);
width = 320;
}
);
note = dollar;
unicode = 0024;
},
{
color = 6;
glyphname = dong;
lastChange = "2021-11-24 17:22:35 +0000";
layers = (
{
layerId = "5E1A2ACF-25BB-4872-A226-5327BC7330DB";
paths = (
{
closed = 1;
nodes = (
"222 85 OFFCURVE",
"242 90 OFFCURVE",
"256 100 CURVE SMOOTH",
"268 108 OFFCURVE",
"277 120 OFFCURVE",
"283 137 CURVE",
"284 90 LINE",
"291 90 LINE",
"291 550 LINE",
"325 550 LINE",
"325 558 LINE",
"291 558 LINE",
"291 589 LINE",
"283 589 LINE",
"283 558 LINE",
"197 558 LINE",
"197 550 LINE",
"283 550 LINE",
"283 459 LINE",
"275 467 OFFCURVE",
"251 489 OFFCURVE",
"196 489 CURVE SMOOTH",
"107 489 OFFCURVE",
"102 433 OFFCURVE",
"102 385 CURVE SMOOTH",
"102 188 LINE SMOOTH",
"102 139 OFFCURVE",
"107 85 OFFCURVE",
"196 85 CURVE SMOOTH"
);
},
{
closed = 1;
nodes = (
"301 0 LINE",
"301 10 LINE",
"102 10 LINE",
"102 0 LINE"
);
},
{
closed = 1;
nodes = (
"114 93 OFFCURVE",
"111 144 OFFCURVE",
"111 191 CURVE SMOOTH",
"111 383 LINE SMOOTH",
"111 428 OFFCURVE",
"114 481 OFFCURVE",
"196 481 CURVE SMOOTH",
"261 480 OFFCURVE",
"283 449 OFFCURVE",
"283 448 CURVE SMOOTH",
"283 191 LINE SMOOTH",
"283 167 OFFCURVE",
"281 126 OFFCURVE",
"249 105 CURVE SMOOTH",
"236 97 OFFCURVE",
"218 93 OFFCURVE",
"196 93 CURVE SMOOTH"
);
}
);
width = 380;
}
);
note = dong;
unicode = 20AB;
},
{
color = 6;
glyphname = euro;
lastChange = "2021-11-24 17:22:35 +0000";
layers = (
{
layerId = "5E1A2ACF-25BB-4872-A226-5327BC7330DB";
paths = (
{
closed = 1;
nodes = (
"343 -12 OFFCURVE",
"401 2 OFFCURVE",
"401 118 CURVE SMOOTH",
"401 172 LINE",
"389 172 LINE",
"389 116 LINE SMOOTH",
"389 12 OFFCURVE",
"334 -3 OFFCURVE",
"264 -3 CURVE SMOOTH",
"195 -3 OFFCURVE",
"140 12 OFFCURVE",
"140 116 CURVE SMOOTH",
"140 242 LINE",
"236 242 LINE",
"242 252 LINE",
"140 252 LINE",
"140 335 LINE",
"279 335 LINE",
"284 345 LINE",
"140 345 LINE",
"140 467 LINE SMOOTH",
"140 572 OFFCURVE",
"189 589 OFFCURVE",
"264 589 CURVE SMOOTH",
"339 589 OFFCURVE",
"389 574 OFFCURVE",
"389 473 CURVE SMOOTH",
"389 442 LINE",
"401 442 LINE",
"401 469 LINE SMOOTH",
"401 583 OFFCURVE",
"342 599 OFFCURVE",
"265 599 CURVE SMOOTH",
"188 599 OFFCURVE",
"128 585 OFFCURVE",
"128 469 CURVE SMOOTH",
"128 345 LINE",
"55 345 LINE",
"50 335 LINE",
"128 335 LINE",
"128 252 LINE",
"56 252 LINE",
"50 242 LINE",
"128 242 LINE",
"128 118 LINE SMOOTH",
"128 4 OFFCURVE",
"187 -12 OFFCURVE",
"263 -12 CURVE SMOOTH"
);
}
);
width = 445;
}
);
note = Euro;
unicode = 20AC;
},
